SplineFontDB: 3.2
FontName: HeadingNowTrial-56Bold
FullName: Heading Now Trial 56 Bold
FamilyName: Heading Now Trial 54
Weight: Bold
Copyright: Copyright (c) 2017 by Studio Kmzero & Zetafonts. All rights reserved.
Version: 1.001
ItalicAngle: 0
UnderlinePosition: -100
UnderlineWidth: 50
Ascent: 800
Descent: 200
InvalidEm: 0
sfntRevision: 0x00010041
LayerCount: 2
Layer: 0 1 "Back" 1
Layer: 1 1 "Fore" 0
XUID: [1021 504 1408284211 7300118]
StyleMap: 0x0020
FSType: 4
OS2Version: 4
OS2_WeightWidthSlopeOnly: 0
OS2_UseTypoMetrics: 1
CreationTime: 1520599031
ModificationTime: 1773980152
PfmFamily: 81
TTFWeight: 700
TTFWidth: 5
LineGap: 0
VLineGap: 0
Panose: 0 0 8 0 0 0 0 0 0 0
OS2TypoAscent: 1050
OS2TypoAOffset: 0
OS2TypoDescent: -265
OS2TypoDOffset: 0
OS2TypoLinegap: 257
OS2WinAscent: 1050
OS2WinAOffset: 0
OS2WinDescent: 265
OS2WinDOffset: 0
HheadAscent: 1050
HheadAOffset: 0
HheadDescent: -265
HheadDOffset: 0
OS2SubXSize: 650
OS2SubYSize: 600
OS2SubXOff: 0
OS2SubYOff: 75
OS2SupXSize: 650
OS2SupYSize: 600
OS2SupXOff: 0
OS2SupYOff: 350
OS2StrikeYSize: 53
OS2StrikeYPos: 358
OS2CapHeight: 743
OS2XHeight: 594
OS2Vendor: 'UKWN'
OS2CodePages: 0000009f.00000000
OS2UnicodeRanges: 800002a7.40000003.00000000.00000000
Lookup: 1 0 0 "'aalt' Access All Alternates in Latin lookup 0" { "'aalt' Access All Alternates in Latin lookup 0 subtable"  } ['aalt' ('DFLT' <'dflt' > 'latn' <'AZE ' 'CAT ' 'CRT ' 'KAZ ' 'MOL ' 'ROM ' 'TAT ' 'TRK ' 'dflt' > ) ]
Lookup: 3 0 0 "'aalt' Access All Alternates in Latin lookup 1" { "'aalt' Access All Alternates in Latin lookup 1 subtable"  } ['aalt' ('DFLT' <'dflt' > 'latn' <'AZE ' 'CAT ' 'CRT ' 'KAZ ' 'MOL ' 'ROM ' 'TAT ' 'TRK ' 'dflt' > ) ]

StartChar: uniF8FF
Encoding: 63743 63743 2
Width: 1308
GlyphClass: 1
Flags: W
LayerCount: 2
Fore
SplineSet
1283 462 m 1,0,-1
 1283 269 l 1,1,-1
 29 269 l 1,2,-1
 29 462 l 1,3,-1
 515 462 l 1,4,5
 519 518 519 518 559.5 556 c 128,-1,6
 600 594 600 594 656 594 c 256,7,8
 712 594 712 594 752.5 556 c 128,-1,9
 793 518 793 518 797 462 c 1,10,-1
 1283 462 l 1,0,-1
741 547 m 1,11,12
 703 580 703 580 656 580 c 0,13,14
 607 580 607 580 571 547 c 1,15,-1
 741 547 l 1,11,12
754 371 m 1,16,17
 783 406 783 406 783 452 c 0,18,19
 783 500 783 500 751 537 c 1,20,-1
 585 371 l 1,21,-1
 754 371 l 1,16,17
557 533 m 1,22,23
 528 498 528 498 528 452 c 0,24,25
 528 403 528 403 561 367 c 1,26,-1
 728 533 l 1,27,-1
 557 533 l 1,22,23
920 321 m 128,-1,29
 939 339 939 339 939 367 c 0,30,31
 939 394 939 394 920 412 c 128,-1,32
 901 430 901 430 873 430 c 256,33,34
 845 430 845 430 826.5 412 c 128,-1,35
 808 394 808 394 808 367 c 0,36,37
 808 339 808 339 826.5 321 c 128,-1,38
 845 303 845 303 873 303 c 256,39,28
 901 303 901 303 920 321 c 128,-1,29
120 392 m 1,40,-1
 148 392 l 1,41,-1
 148 427 l 1,42,-1
 52 427 l 1,43,-1
 52 392 l 1,44,-1
 81 392 l 1,45,-1
 81 306 l 1,46,-1
 120 306 l 1,47,-1
 120 392 l 1,40,-1
217 306 m 1,48,-1
 258 306 l 1,49,-1
 237 352 l 1,50,51
 251 364 251 364 251 384 c 0,52,53
 251 402 251 402 237.5 414.5 c 128,-1,54
 224 427 224 427 205 427 c 2,55,-1
 155 427 l 1,56,-1
 155 306 l 1,57,-1
 194 306 l 1,58,-1
 194 341 l 1,59,-1
 202 341 l 1,60,-1
 217 306 l 1,48,-1
264 306 m 1,61,-1
 302 306 l 1,62,-1
 302 427 l 1,63,-1
 264 427 l 1,64,-1
 264 306 l 1,61,-1
389 325 m 1,65,-1
 394 306 l 1,66,-1
 436 306 l 1,67,-1
 395 427 l 1,68,-1
 350 427 l 1,69,-1
 309 306 l 1,70,-1
 350 306 l 1,71,-1
 355 325 l 1,72,-1
 389 325 l 1,65,-1
443 306 m 1,73,-1
 525 306 l 1,74,-1
 525 339 l 1,75,-1
 482 339 l 1,76,-1
 482 427 l 1,77,-1
 443 427 l 1,78,-1
 443 306 l 1,73,-1
1023 306 m 1,79,-1
 1063 306 l 1,80,-1
 1063 427 l 1,81,-1
 1024 427 l 1,82,-1
 1024 363 l 1,83,-1
 987 427 l 1,84,-1
 947 427 l 1,85,-1
 947 306 l 1,86,-1
 986 306 l 1,87,-1
 985 365 l 1,88,-1
 1023 306 l 1,79,-1
1075 306 m 1,89,-1
 1157 306 l 1,90,-1
 1157 339 l 1,91,-1
 1114 339 l 1,92,-1
 1114 427 l 1,93,-1
 1075 427 l 1,94,-1
 1075 306 l 1,89,-1
1218 306 m 1,95,-1
 1218 354 l 1,96,-1
 1259 427 l 1,97,-1
 1214 427 l 1,98,-1
 1198 391 l 1,99,-1
 1183 427 l 1,100,-1
 1137 427 l 1,101,-1
 1179 354 l 1,102,-1
 1179 306 l 1,103,-1
 1218 306 l 1,95,-1
892.5 387 m 128,-1,105
 900 379 900 379 900 367 c 0,106,107
 900 354 900 354 892.5 346 c 128,-1,108
 885 338 885 338 873 338 c 0,109,110
 862 338 862 338 854 346 c 128,-1,111
 846 354 846 354 846 367 c 0,112,113
 846 379 846 379 854 387 c 128,-1,114
 862 395 862 395 873 395 c 0,115,104
 885 395 885 395 892.5 387 c 128,-1,105
204 394 m 2,116,117
 207 394 207 394 209.5 391 c 128,-1,118
 212 388 212 388 212 384 c 256,119,120
 212 380 212 380 209.5 376.5 c 128,-1,121
 207 373 207 373 204 373 c 2,122,-1
 194 373 l 1,123,-1
 194 394 l 1,124,-1
 204 394 l 2,116,117
363 357 m 1,125,-1
 371 386 l 1,126,-1
 372 386 l 1,127,-1
 380 357 l 1,128,-1
 363 357 l 1,125,-1
571 357 m 1,129,130
 608 325 608 325 656 325 c 256,131,132
 704 325 704 325 741 357 c 1,133,-1
 571 357 l 1,129,130
512 176 m 1,134,135
 524 169 524 169 538 169 c 0,136,137
 549 169 549 169 556.5 175 c 128,-1,138
 564 181 564 181 564 192 c 0,139,140
 564 205 564 205 541 214 c 0,141,142
 532 217 532 217 528.5 219.5 c 128,-1,143
 525 222 525 222 525 227 c 256,144,145
 525 232 525 232 529 235 c 128,-1,146
 533 238 533 238 539 238 c 0,147,148
 550 238 550 238 559 231 c 1,149,-1
 559 244 l 1,150,151
 549 249 549 249 539 249 c 0,152,153
 527 249 527 249 520 243 c 128,-1,154
 513 237 513 237 513 227 c 0,155,156
 513 218 513 218 518 213.5 c 128,-1,157
 523 209 523 209 535 204 c 0,158,159
 552 199 552 199 552 192 c 0,160,161
 552 180 552 180 538 180 c 0,162,163
 525 180 525 180 512 189 c 1,164,-1
 512 176 l 1,134,135
612.5 180.5 m 128,-1,166
 624 169 624 169 641 169 c 256,167,168
 658 169 658 169 669.5 180.5 c 128,-1,169
 681 192 681 192 681 209 c 256,170,171
 681 226 681 226 669.5 237.5 c 128,-1,172
 658 249 658 249 641 249 c 256,173,174
 624 249 624 249 612.5 237.5 c 128,-1,175
 601 226 601 226 601 209 c 256,176,165
 601 192 601 192 612.5 180.5 c 128,-1,166
760 168 m 1,177,-1
 760 247 l 1,178,-1
 748 247 l 1,179,-1
 748 193 l 1,180,-1
 699 248 l 1,181,-1
 693 248 l 1,182,-1
 693 170 l 1,183,-1
 705 170 l 1,184,-1
 705 222 l 1,185,-1
 754 168 l 1,186,-1
 760 168 l 1,177,-1
78 247 m 1,187,-1
 28 247 l 1,188,-1
 28 170 l 1,189,-1
 40 170 l 1,190,-1
 40 199 l 1,191,-1
 73 199 l 1,192,-1
 73 210 l 1,193,-1
 40 210 l 1,194,-1
 40 236 l 1,195,-1
 78 236 l 1,196,-1
 78 247 l 1,187,-1
88 200 m 2,197,198
 88 187 88 187 97 178 c 128,-1,199
 106 169 106 169 119 169 c 0,200,201
 133 169 133 169 142 177.5 c 128,-1,202
 151 186 151 186 151 200 c 2,203,-1
 151 247 l 1,204,-1
 139 247 l 1,205,-1
 139 200 l 2,206,207
 139 192 139 192 133 186 c 128,-1,208
 127 180 127 180 119 180 c 256,209,210
 111 180 111 180 105.5 185.5 c 128,-1,211
 100 191 100 191 100 200 c 2,212,-1
 100 247 l 1,213,-1
 88 247 l 1,214,-1
 88 200 l 2,197,198
178 247 m 1,215,-1
 166 247 l 1,216,-1
 166 170 l 1,217,-1
 213 170 l 1,218,-1
 213 181 l 1,219,-1
 178 181 l 1,220,-1
 178 247 l 1,215,-1
236 247 m 1,221,-1
 224 247 l 1,222,-1
 224 170 l 1,223,-1
 272 170 l 1,224,-1
 272 181 l 1,225,-1
 236 181 l 1,226,-1
 236 247 l 1,221,-1
344 170 m 1,227,-1
 376 247 l 1,228,-1
 362 247 l 1,229,-1
 340 190 l 1,230,-1
 318 247 l 1,231,-1
 304 247 l 1,232,-1
 336 170 l 1,233,-1
 344 170 l 1,227,-1
436 247 m 1,234,-1
 386 247 l 1,235,-1
 386 170 l 1,236,-1
 436 170 l 1,237,-1
 436 181 l 1,238,-1
 398 181 l 1,239,-1
 398 204 l 1,240,-1
 431 204 l 1,241,-1
 431 214 l 1,242,-1
 398 214 l 1,243,-1
 398 236 l 1,244,-1
 436 236 l 1,245,-1
 436 247 l 1,234,-1
492 170 m 1,246,-1
 506 170 l 1,247,-1
 491 201 l 1,248,249
 503 208 503 208 503 222 c 0,250,251
 503 233 503 233 496 240 c 128,-1,252
 489 247 489 247 478 247 c 2,253,-1
 449 247 l 1,254,-1
 449 170 l 1,255,-1
 461 170 l 1,256,-1
 461 198 l 1,257,-1
 479 198 l 1,258,-1
 492 170 l 1,246,-1
588 247 m 1,259,-1
 576 247 l 1,260,-1
 576 170 l 1,261,-1
 588 170 l 1,262,-1
 588 247 l 1,259,-1
660 188 m 128,-1,264
 652 180 652 180 641 180 c 0,265,266
 629 180 629 180 621 188 c 128,-1,267
 613 196 613 196 613 209 c 0,268,269
 613 221 613 221 621 229 c 128,-1,270
 629 237 629 237 641 237 c 0,271,272
 652 237 652 237 660 229 c 128,-1,273
 668 221 668 221 668 209 c 0,274,263
 668 196 668 196 660 188 c 128,-1,264
487 212 m 128,-1,276
 483 208 483 208 478 208 c 2,277,-1
 461 208 l 1,278,-1
 461 236 l 1,279,-1
 478 236 l 2,280,281
 483 236 483 236 487 232 c 128,-1,282
 491 228 491 228 491 222 c 256,283,275
 491 216 491 216 487 212 c 128,-1,276
1247 183 m 1,284,-1
 1272 207 l 1,285,-1
 1247 231 l 1,286,-1
 1239 224 l 1,287,-1
 1252 213 l 1,288,-1
 794 213 l 1,289,-1
 794 201 l 1,290,-1
 1252 201 l 1,291,-1
 1239 190 l 1,292,-1
 1247 183 l 1,284,-1
508 53.5 m 128,-1,294
 525 37 525 37 550 37 c 256,295,296
 575 37 575 37 592 53.5 c 128,-1,297
 609 70 609 70 609 95 c 0,298,299
 609 119 609 119 592 135.5 c 128,-1,300
 575 152 575 152 550 152 c 256,301,302
 525 152 525 152 508 135.5 c 128,-1,303
 491 119 491 119 491 95 c 0,304,293
 491 70 491 70 508 53.5 c 128,-1,294
818 47 m 1,305,306
 834 37 834 37 856 37 c 0,307,308
 875 37 875 37 887.5 47 c 128,-1,309
 900 57 900 57 900 74 c 0,310,311
 900 101 900 101 864 109 c 0,312,313
 861 110 861 110 857 111 c 128,-1,314
 853 112 853 112 851.5 113.5 c 128,-1,315
 850 115 850 115 850 117 c 0,316,317
 850 121 850 121 861 121 c 0,318,319
 868 121 868 121 877.5 118 c 128,-1,320
 887 115 887 115 893 110 c 1,321,-1
 893 144 l 1,322,323
 875 152 875 152 861 152 c 0,324,325
 840 152 840 152 828 143 c 128,-1,326
 816 134 816 134 816 118 c 0,327,328
 816 104 816 104 823.5 96.5 c 128,-1,329
 831 89 831 89 848 83 c 0,330,331
 851 82 851 82 858 80 c 128,-1,332
 865 78 865 78 865 74 c 0,333,334
 865 68 865 68 856 68 c 0,335,336
 843 68 843 68 818 84 c 1,337,-1
 818 47 l 1,305,306
963 53.5 m 128,-1,339
 980 37 980 37 1004 37 c 0,340,341
 1016 37 1016 37 1030 44 c 1,342,-1
 1031 79 l 1,343,344
 1021 69 1021 69 1006 69 c 0,345,346
 995 69 995 69 988 76.5 c 128,-1,347
 981 84 981 84 981 95 c 256,348,349
 981 106 981 106 988.5 113 c 128,-1,350
 996 120 996 120 1006 120 c 256,351,352
 1016 120 1016 120 1028 113 c 1,353,-1
 1028 146 l 1,354,355
 1018 152 1018 152 1005 152 c 0,356,357
 980 152 980 152 963 135.5 c 128,-1,358
 946 119 946 119 946 95 c 0,359,338
 946 70 946 70 963 53.5 c 128,-1,339
1051 53.5 m 128,-1,361
 1068 37 1068 37 1094 37 c 0,362,363
 1119 37 1119 37 1136 53.5 c 128,-1,364
 1153 70 1153 70 1153 95 c 0,365,366
 1153 119 1153 119 1136 135.5 c 128,-1,367
 1119 152 1119 152 1094 152 c 256,368,369
 1069 152 1069 152 1051.5 135.5 c 128,-1,370
 1034 119 1034 119 1034 95 c 0,371,360
 1034 70 1034 70 1051 53.5 c 128,-1,361
29 118 m 1,372,-1
 65 118 l 1,373,-1
 24 40 l 1,374,-1
 119 40 l 1,375,-1
 119 71 l 1,376,-1
 81 71 l 1,377,-1
 122 149 l 1,378,-1
 29 149 l 1,379,-1
 29 118 l 1,372,-1
208 149 m 1,380,-1
 129 149 l 1,381,-1
 129 40 l 1,382,-1
 209 40 l 1,383,-1
 209 70 l 1,384,-1
 164 70 l 1,385,-1
 164 80 l 1,386,-1
 202 80 l 1,387,-1
 202 110 l 1,388,-1
 164 110 l 1,389,-1
 164 119 l 1,390,-1
 208 119 l 1,391,-1
 208 149 l 1,380,-1
213 118 m 1,392,-1
 239 118 l 1,393,-1
 239 40 l 1,394,-1
 274 40 l 1,395,-1
 274 118 l 1,396,-1
 300 118 l 1,397,-1
 300 149 l 1,398,-1
 213 149 l 1,399,-1
 213 118 l 1,392,-1
329 57 m 1,400,-1
 360 57 l 1,401,-1
 364 40 l 1,402,-1
 402 40 l 1,403,-1
 365 149 l 1,404,-1
 325 149 l 1,405,-1
 288 40 l 1,406,-1
 324 40 l 1,407,-1
 329 57 l 1,400,-1
487 149 m 1,408,-1
 408 149 l 1,409,-1
 408 40 l 1,410,-1
 443 40 l 1,411,-1
 443 74 l 1,412,-1
 480 74 l 1,413,-1
 480 103 l 1,414,-1
 443 103 l 1,415,-1
 443 119 l 1,416,-1
 487 119 l 1,417,-1
 487 149 l 1,408,-1
721 40 m 1,418,-1
 721 149 l 1,419,-1
 686 149 l 1,420,-1
 686 91 l 1,421,-1
 653 149 l 1,422,-1
 617 149 l 1,423,-1
 617 40 l 1,424,-1
 652 40 l 1,425,-1
 651 93 l 1,426,-1
 685 40 l 1,427,-1
 721 40 l 1,418,-1
727 118 m 1,428,-1
 753 118 l 1,429,-1
 753 40 l 1,430,-1
 788 40 l 1,431,-1
 788 118 l 1,432,-1
 813 118 l 1,433,-1
 813 149 l 1,434,-1
 727 149 l 1,435,-1
 727 118 l 1,428,-1
1195 149 m 1,436,-1
 1160 149 l 1,437,-1
 1160 40 l 1,438,-1
 1195 40 l 1,439,-1
 1195 83 l 1,440,-1
 1209 56 l 1,441,-1
 1234 56 l 1,442,-1
 1248 83 l 1,443,-1
 1248 40 l 1,444,-1
 1282 40 l 1,445,-1
 1282 149 l 1,446,-1
 1247 149 l 1,447,-1
 1221 99 l 1,448,-1
 1195 149 l 1,436,-1
567 76.5 m 128,-1,450
 560 69 560 69 550 69 c 256,451,452
 540 69 540 69 533 76.5 c 128,-1,453
 526 84 526 84 526 95 c 256,454,455
 526 106 526 106 533 113 c 128,-1,456
 540 120 540 120 550 120 c 256,457,458
 560 120 560 120 567 113 c 128,-1,459
 574 106 574 106 574 95 c 256,460,449
 574 84 574 84 567 76.5 c 128,-1,450
1111 76.5 m 128,-1,462
 1104 69 1104 69 1094 69 c 0,463,464
 1083 69 1083 69 1076 76.5 c 128,-1,465
 1069 84 1069 84 1069 95 c 256,466,467
 1069 106 1069 106 1076.5 113 c 128,-1,468
 1084 120 1084 120 1094 120 c 256,469,470
 1104 120 1104 120 1111 112.5 c 128,-1,471
 1118 105 1118 105 1118 95 c 0,472,461
 1118 84 1118 84 1111 76.5 c 128,-1,462
345 112 m 1,473,-1
 352 86 l 1,474,-1
 337 86 l 1,475,-1
 344 112 l 1,476,-1
 345 112 l 1,473,-1
910 42 m 128,-1,478
 915 37 915 37 923 37 c 0,479,480
 930 37 930 37 935 42 c 128,-1,481
 940 47 940 47 940 54 c 256,482,483
 940 61 940 61 935 65.5 c 128,-1,484
 930 70 930 70 923 70 c 0,485,486
 915 70 915 70 910 65.5 c 128,-1,487
 905 61 905 61 905 54 c 256,488,477
 905 47 905 47 910 42 c 128,-1,478
EndSplineSet
EndChar

StartChar: A
Encoding: 65 65 3
Width: 516
GlyphClass: 2
Flags: W
AnchorPoint: "Anchor-18" 247 744 basechar 0
AnchorPoint: "Anchor-17" 509 0 basechar 0
AnchorPoint: "Anchor-16" 258 195 basechar 0
AnchorPoint: "Anchor-15" 247 0 basechar 0
LayerCount: 2
Fore
SplineSet
511 0 m 1,0,-1
 346 0 l 1,1,-1
 327 125 l 1,2,-1
 189 125 l 1,3,-1
 169 0 l 1,4,-1
 5 0 l 1,5,-1
 150 744 l 1,6,-1
 365 744 l 1,7,-1
 511 0 l 1,0,-1
250 513 m 1,8,-1
 210 259 l 1,9,-1
 306 259 l 1,10,-1
 266 513 l 1,11,-1
 259 570 l 1,12,-1
 257 570 l 1,13,-1
 250 513 l 1,8,-1
EndSplineSet
Substitution2: "'c2sc' Capitals to Small Capitals in Latin lookup 16 subtable" a.sc
Substitution2: "'aalt' Access All Alternates in Latin lookup 0 subtable" a.sc
EndChar

StartChar: B
Encoding: 66 66 4
Width: 484
GlyphClass: 2
Flags: W
AnchorPoint: "Anchor-18" 241 744 basechar 0
AnchorPoint: "Anchor-15" 241 0 basechar 0
LayerCount: 2
Fore
SplineSet
41 0 m 1,0,-1
 41 744 l 1,1,-1
 240 744 l 2,2,3
 333 744 333 744 385 702.5 c 128,-1,4
 437 661 437 661 437 583 c 2,5,-1
 437 536 l 2,6,7
 437 433 437 433 354 396 c 1,8,-1
 354 395 l 1,9,10
 407 383 407 383 434 345.5 c 128,-1,11
 461 308 461 308 461 250 c 2,12,-1
 461 188 l 2,13,14
 461 99 461 99 410 49.5 c 128,-1,15
 359 0 359 0 257 0 c 2,16,-1
 41 0 l 1,0,-1
232 445 m 2,17,18
 265 445 265 445 279 460.5 c 128,-1,19
 293 476 293 476 293 509 c 2,20,-1
 293 554 l 2,21,22
 293 584 293 584 279 598.5 c 128,-1,23
 265 613 265 613 233 613 c 2,24,-1
 197 613 l 1,25,-1
 197 445 l 1,26,-1
 232 445 l 2,17,18
236 130 m 2,27,28
 271 130 271 130 286.5 146.5 c 128,-1,29
 302 163 302 163 302 198 c 2,30,-1
 302 253 l 2,31,32
 302 288 302 288 286 303.5 c 128,-1,33
 270 319 270 319 234 319 c 2,34,-1
 197 319 l 1,35,-1
 197 130 l 1,36,-1
 236 130 l 2,27,28
EndSplineSet
Substitution2: "'c2sc' Capitals to Small Capitals in Latin lookup 16 subtable" b.sc
Substitution2: "'aalt' Access All Alternates in Latin lookup 0 subtable" b.sc
EndChar

StartChar: C
Encoding: 67 67 5
Width: 491
GlyphClass: 2
Flags: W
AnchorPoint: "Anchor-18" 248 744 basechar 0
AnchorPoint: "Anchor-15" 248 0 basechar 0
LayerCount: 2
Fore
SplineSet
30 240 m 2,1,-1
 30 502 l 2,2,3
 30 630 30 630 84 693.5 c 128,-1,4
 138 757 138 757 248 757 c 0,5,6
 467 757 467 757 467 510 c 2,7,-1
 467 452 l 1,8,-1
 306 452 l 1,9,-1
 306 527 l 2,10,11
 306 571 306 571 293.5 593 c 128,-1,12
 281 615 281 615 249 615 c 0,13,14
 191 615 191 615 191 527 c 2,15,-1
 191 217 l 2,16,17
 191 128 191 128 248 128 c 0,18,19
 278 128 278 128 292 149 c 128,-1,20
 306 170 306 170 306 215 c 2,21,-1
 306 301 l 1,22,-1
 467 301 l 1,23,-1
 467 232 l 2,24,25
 467 110 467 110 415.5 48 c 128,-1,26
 364 -14 364 -14 248 -14 c 0,27,0
 30 -14 30 -14 30 240 c 2,1,-1
EndSplineSet
Substitution2: "'c2sc' Capitals to Small Capitals in Latin lookup 16 subtable" c.sc
Substitution2: "'aalt' Access All Alternates in Latin lookup 0 subtable" c.sc
EndChar

StartChar: D
Encoding: 68 68 6
Width: 504
GlyphClass: 2
Flags: W
AnchorPoint: "Anchor-18" 251 744 basechar 0
AnchorPoint: "Anchor-16" 131 372 basechar 0
AnchorPoint: "Anchor-15" 251 0 basechar 0
LayerCount: 2
Fore
SplineSet
41 0 m 1,0,-1
 41 744 l 1,1,-1
 256 744 l 2,2,3
 370 744 370 744 422 676 c 128,-1,4
 474 608 474 608 474 466 c 2,5,-1
 474 278 l 2,6,7
 474 136 474 136 421.5 68 c 128,-1,8
 369 0 369 0 257 0 c 2,9,-1
 41 0 l 1,0,-1
238 138 m 2,10,11
 276 138 276 138 294.5 163 c 128,-1,12
 313 188 313 188 313 250 c 2,13,-1
 313 494 l 2,14,15
 313 555 313 555 294.5 580 c 128,-1,16
 276 605 276 605 238 605 c 2,17,-1
 202 605 l 1,18,-1
 202 138 l 1,19,-1
 238 138 l 2,10,11
EndSplineSet
Substitution2: "'c2sc' Capitals to Small Capitals in Latin lookup 16 subtable" d.sc
Substitution2: "'aalt' Access All Alternates in Latin lookup 0 subtable" d.sc
EndChar

StartChar: E
Encoding: 69 69 7
Width: 418
GlyphClass: 2
Flags: W
AnchorPoint: "Anchor-18" 213 744 basechar 0
AnchorPoint: "Anchor-17" 398 0 basechar 0
AnchorPoint: "Anchor-15" 224 0 basechar 0
LayerCount: 2
Fore
SplineSet
398 0 m 1,0,-1
 41 0 l 1,1,-1
 41 744 l 1,2,-1
 392 744 l 1,3,-1
 392 602 l 1,4,-1
 202 602 l 1,5,-1
 202 446 l 1,6,-1
 370 446 l 1,7,-1
 370 310 l 1,8,-1
 202 310 l 1,9,-1
 202 144 l 1,10,-1
 398 144 l 1,11,-1
 398 0 l 1,0,-1
EndSplineSet
Substitution2: "'c2sc' Capitals to Small Capitals in Latin lookup 16 subtable" e.sc
Substitution2: "'aalt' Access All Alternates in Latin lookup 0 subtable" e.sc
EndChar

StartChar: F
Encoding: 70 70 8
Width: 400
GlyphClass: 2
Flags: W
AnchorPoint: "Anchor-18" 203 744 basechar 0
AnchorPoint: "Anchor-15" 203 0 basechar 0
LayerCount: 2
Fore
SplineSet
202 0 m 1,0,-1
 41 0 l 1,1,-1
 41 744 l 1,2,-1
 388 744 l 1,3,-1
 388 601 l 1,4,-1
 202 601 l 1,5,-1
 202 433 l 1,6,-1
 365 433 l 1,7,-1
 365 290 l 1,8,-1
 202 290 l 1,9,-1
 202 0 l 1,0,-1
EndSplineSet
Substitution2: "'c2sc' Capitals to Small Capitals in Latin lookup 16 subtable" f.sc
Substitution2: "'aalt' Access All Alternates in Latin lookup 0 subtable" f.sc
EndChar

StartChar: G
Encoding: 71 71 9
Width: 491
GlyphClass: 2
Flags: W
AnchorPoint: "Anchor-18" 248 744 basechar 0
AnchorPoint: "Anchor-15" 248 0 basechar 0
LayerCount: 2
Fore
SplineSet
84.5 49 m 128,-1,1
 30 112 30 112 30 240 c 2,2,-1
 30 502 l 2,3,4
 30 630 30 630 84.5 693.5 c 128,-1,5
 139 757 139 757 249 757 c 0,6,7
 362 757 362 757 413.5 695.5 c 128,-1,8
 465 634 465 634 465 513 c 2,9,-1
 465 469 l 1,10,-1
 306 469 l 1,11,-1
 306 534 l 2,12,13
 306 572 306 572 293 593.5 c 128,-1,14
 280 615 280 615 249 615 c 0,15,16
 222 615 222 615 206.5 594 c 128,-1,17
 191 573 191 573 191 532 c 2,18,-1
 191 212 l 2,19,20
 191 121 191 121 252 121 c 0,21,22
 286 121 286 121 302.5 141.5 c 128,-1,23
 319 162 319 162 319 209 c 2,24,-1
 319 262 l 1,25,-1
 256 262 l 1,26,-1
 256 388 l 1,27,-1
 466 388 l 1,28,-1
 466 249 l 2,29,30
 466 114 466 114 416 50 c 128,-1,31
 366 -14 366 -14 249 -14 c 0,32,0
 139 -14 139 -14 84.5 49 c 128,-1,1
EndSplineSet
Substitution2: "'ss03' Style Set 3 in Latin lookup 23 subtable" G.ss03
Substitution2: "'c2sc' Capitals to Small Capitals in Latin lookup 16 subtable" g.sc
AlternateSubs2: "'aalt' Access All Alternates in Latin lookup 1 subtable" g.sc G.ss03
EndChar

StartChar: H
Encoding: 72 72 10
Width: 517
GlyphClass: 2
Flags: W
AnchorPoint: "Anchor-18" 258 744 basechar 0
AnchorPoint: "Anchor-16" 258 591 basechar 0
AnchorPoint: "Anchor-15" 258 0 basechar 0
LayerCount: 2
Fore
SplineSet
315 447 m 1,0,-1
 315 744 l 1,1,-1
 476 744 l 1,2,-1
 476 0 l 1,3,-1
 315 0 l 1,4,-1
 315 305 l 1,5,-1
 202 305 l 1,6,-1
 202 0 l 1,7,-1
 41 0 l 1,8,-1
 41 744 l 1,9,-1
 202 744 l 1,10,-1
 202 447 l 1,11,-1
 315 447 l 1,0,-1
EndSplineSet
Substitution2: "'c2sc' Capitals to Small Capitals in Latin lookup 16 subtable" h.sc
Substitution2: "'aalt' Access All Alternates in Latin lookup 0 subtable" h.sc
EndChar

StartChar: I
Encoding: 73 73 11
Width: 243
GlyphClass: 2
Flags: W
AnchorPoint: "Anchor-18" 121 744 basechar 0
AnchorPoint: "Anchor-17" 172 0 basechar 0
AnchorPoint: "Anchor-15" 121 0 basechar 0
LayerCount: 2
Fore
SplineSet
202 0 m 1,0,-1
 41 0 l 1,1,-1
 41 744 l 1,2,-1
 202 744 l 1,3,-1
 202 0 l 1,0,-1
EndSplineSet
Substitution2: "'ss03' Style Set 3 in Latin lookup 23 subtable" I.ss03
Substitution2: "'c2sc' Capitals to Small Capitals in Latin lookup 16 subtable" i.sc
AlternateSubs2: "'aalt' Access All Alternates in Latin lookup 1 subtable" i.sc I.ss03
EndChar

StartChar: J
Encoding: 74 74 12
Width: 380
GlyphClass: 2
Flags: W
AnchorPoint: "Anchor-18" 280 744 basechar 0
AnchorPoint: "Anchor-15" 234 0 basechar 0
LayerCount: 2
Fore
SplineSet
186 744 m 1,0,-1
 347 744 l 1,1,-1
 347 202 l 2,2,3
 347 89 347 89 296 37.5 c 128,-1,4
 245 -14 245 -14 133 -14 c 0,5,6
 70 -14 70 -14 3 0 c 1,7,-1
 8 140 l 1,8,9
 66 129 66 129 105 129 c 0,10,11
 148 129 148 129 167 148.5 c 128,-1,12
 186 168 186 168 186 212 c 2,13,-1
 186 603 l 1,14,-1
 27 603 l 1,15,-1
 27 743 l 1,16,-1
 186 743 l 1,17,-1
 186 744 l 1,0,-1
EndSplineSet
Substitution2: "'ss04' Style Set 4 in Latin lookup 24 subtable" J.ss04
Substitution2: "'ss03' Style Set 3 in Latin lookup 23 subtable" J.ss03
Substitution2: "'c2sc' Capitals to Small Capitals in Latin lookup 16 subtable" j.sc
AlternateSubs2: "'aalt' Access All Alternates in Latin lookup 1 subtable" j.sc J.ss03 J.ss04
EndChar

StartChar: K
Encoding: 75 75 13
Width: 504
GlyphClass: 2
Flags: W
AnchorPoint: "Anchor-18" 250 744 basechar 0
AnchorPoint: "Anchor-15" 250 0 basechar 0
LayerCount: 2
Fore
SplineSet
202 0 m 1,0,-1
 41 0 l 1,1,-1
 41 744 l 1,2,-1
 202 744 l 1,3,-1
 202 453 l 1,4,-1
 236 453 l 1,5,-1
 313 744 l 1,6,-1
 484 744 l 1,7,-1
 363 386 l 1,8,-1
 363 382 l 1,9,-1
 498 0 l 1,10,-1
 326 0 l 1,11,-1
 236 312 l 1,12,-1
 202 312 l 1,13,-1
 202 0 l 1,0,-1
EndSplineSet
Substitution2: "'ss03' Style Set 3 in Latin lookup 23 subtable" K.ss03
Substitution2: "'c2sc' Capitals to Small Capitals in Latin lookup 16 subtable" k.sc
AlternateSubs2: "'aalt' Access All Alternates in Latin lookup 1 subtable" k.sc K.ss03
EndChar

StartChar: L
Encoding: 76 76 14
Width: 391
GlyphClass: 2
Flags: W
AnchorPoint: "Anchor-19" 273 744 basechar 0
AnchorPoint: "Anchor-18" 127 744 basechar 0
AnchorPoint: "Anchor-16" 133 383 basechar 0
AnchorPoint: "Anchor-15" 199 0 basechar 0
LayerCount: 2
Fore
SplineSet
379 0 m 1,0,-1
 41 0 l 1,1,-1
 41 744 l 1,2,-1
 202 744 l 1,3,-1
 202 147 l 1,4,-1
 379 147 l 1,5,-1
 379 0 l 1,0,-1
EndSplineSet
Substitution2: "'c2sc' Capitals to Small Capitals in Latin lookup 16 subtable" l.sc
Substitution2: "'aalt' Access All Alternates in Latin lookup 0 subtable" l.sc
EndChar

StartChar: M
Encoding: 77 77 15
Width: 653
GlyphClass: 2
Flags: W
AnchorPoint: "Anchor-18" 326 744 basechar 0
AnchorPoint: "Anchor-15" 326 0 basechar 0
LayerCount: 2
Fore
SplineSet
199 0 m 1,0,-1
 41 0 l 1,1,-1
 41 744 l 1,2,-1
 238 744 l 1,3,-1
 320 355 l 1,4,-1
 325 309 l 1,5,-1
 328 309 l 1,6,-1
 333 355 l 1,7,-1
 416 744 l 1,8,-1
 612 744 l 1,9,-1
 612 0 l 1,10,-1
 454 0 l 1,11,-1
 454 339 l 1,12,-1
 459 470 l 1,13,-1
 457 470 l 1,14,-1
 450 432 l 1,15,-1
 377 99 l 1,16,-1
 277 99 l 1,17,-1
 203 432 l 1,18,-1
 196 470 l 1,19,-1
 194 470 l 1,20,-1
 199 339 l 1,21,-1
 199 0 l 1,0,-1
EndSplineSet
Substitution2: "'c2sc' Capitals to Small Capitals in Latin lookup 16 subtable" m.sc
Substitution2: "'aalt' Access All Alternates in Latin lookup 0 subtable" m.sc
EndChar

StartChar: N
Encoding: 78 78 16
Width: 534
GlyphClass: 2
Flags: W
AnchorPoint: "Anchor-18" 267 744 basechar 0
AnchorPoint: "Anchor-15" 267 0 basechar 0
LayerCount: 2
Fore
SplineSet
199 0 m 1,0,-1
 41 0 l 1,1,-1
 41 744 l 1,2,-1
 201 744 l 1,3,-1
 318 399 l 1,4,-1
 336 333 l 1,5,-1
 338 333 l 1,6,-1
 335 408 l 1,7,-1
 335 744 l 1,8,-1
 493 744 l 1,9,-1
 493 0 l 1,10,-1
 334 0 l 1,11,-1
 216 341 l 1,12,-1
 199 406 l 1,13,-1
 196 406 l 1,14,-1
 199 332 l 1,15,-1
 199 0 l 1,0,-1
EndSplineSet
Substitution2: "'c2sc' Capitals to Small Capitals in Latin lookup 16 subtable" n.sc
Substitution2: "'aalt' Access All Alternates in Latin lookup 0 subtable" n.sc
EndChar

StartChar: O
Encoding: 79 79 17
Width: 498
GlyphClass: 2
Flags: W
AnchorPoint: "Anchor-19" 306 752 basechar 0
AnchorPoint: "Anchor-18" 255 744 basechar 0
AnchorPoint: "Anchor-17" 363 10 basechar 0
AnchorPoint: "Anchor-16" 255 372 basechar 0
AnchorPoint: "Anchor-15" 255 0 basechar 0
LayerCount: 2
Fore
SplineSet
30 240 m 2,1,-1
 30 503 l 2,2,3
 30 757 30 757 249 757 c 256,4,5
 468 757 468 757 468 503 c 2,6,-1
 468 240 l 2,7,8
 468 -14 468 -14 249 -14 c 256,9,0
 30 -14 30 -14 30 240 c 2,1,-1
292.5 149.5 m 128,-1,11
 307 171 307 171 307 217 c 2,12,-1
 307 526 l 2,13,14
 307 572 307 572 292.5 593.5 c 128,-1,15
 278 615 278 615 249 615 c 0,16,17
 191 615 191 615 191 526 c 2,18,-1
 191 217 l 2,19,20
 191 128 191 128 249 128 c 0,21,10
 278 128 278 128 292.5 149.5 c 128,-1,11
EndSplineSet
Substitution2: "'c2sc' Capitals to Small Capitals in Latin lookup 16 subtable" o.sc
Substitution2: "'aalt' Access All Alternates in Latin lookup 0 subtable" o.sc
EndChar

StartChar: P
Encoding: 80 80 18
Width: 479
GlyphClass: 2
Flags: W
AnchorPoint: "Anchor-18" 241 744 basechar 0
AnchorPoint: "Anchor-15" 241 0 basechar 0
LayerCount: 2
Fore
SplineSet
41 0 m 1,0,-1
 41 744 l 1,1,-1
 252 744 l 2,2,3
 355 744 355 744 411.5 687 c 128,-1,4
 468 630 468 630 468 516 c 2,5,-1
 468 433 l 2,6,7
 468 316 468 316 415 257.5 c 128,-1,8
 362 199 362 199 267 199 c 2,9,-1
 202 199 l 1,10,-1
 202 0 l 1,11,-1
 41 0 l 1,0,-1
237 342 m 2,12,13
 272 342 272 342 289.5 361.5 c 128,-1,14
 307 381 307 381 307 433 c 2,15,-1
 307 512 l 2,16,17
 307 561 307 561 290 581 c 128,-1,18
 273 601 273 601 239 601 c 2,19,-1
 202 601 l 1,20,-1
 202 342 l 1,21,-1
 237 342 l 2,12,13
EndSplineSet
Substitution2: "'c2sc' Capitals to Small Capitals in Latin lookup 16 subtable" p.sc
Substitution2: "'aalt' Access All Alternates in Latin lookup 0 subtable" p.sc
EndChar

StartChar: Q
Encoding: 81 81 19
Width: 498
GlyphClass: 2
Flags: W
AnchorPoint: "Anchor-19" 306 752 basechar 0
AnchorPoint: "Anchor-18" 241 744 basechar 0
AnchorPoint: "Anchor-17" 363 10 basechar 0
AnchorPoint: "Anchor-16" 255 372 basechar 0
AnchorPoint: "Anchor-15" 241 0 basechar 0
LayerCount: 2
Fore
SplineSet
468 503 m 2,1,-1
 468 240 l 2,2,3
 468 34 468 34 324 -5 c 1,4,-1
 324 -126 l 1,5,-1
 188 -126 l 1,6,-1
 188 -8 l 1,7,8
 30 25 30 25 30 240 c 2,9,-1
 30 503 l 2,10,11
 30 757 30 757 249 757 c 256,12,0
 468 757 468 757 468 503 c 2,1,-1
191 217 m 2,13,14
 191 128 191 128 249 128 c 0,15,16
 278 128 278 128 292.5 149.5 c 128,-1,17
 307 171 307 171 307 217 c 2,18,-1
 307 526 l 2,19,20
 307 572 307 572 292.5 593.5 c 128,-1,21
 278 615 278 615 249 615 c 0,22,23
 191 615 191 615 191 526 c 2,24,-1
 191 217 l 2,13,14
EndSplineSet
Substitution2: "'ss03' Style Set 3 in Latin lookup 23 subtable" Q.ss03
Substitution2: "'c2sc' Capitals to Small Capitals in Latin lookup 16 subtable" q.sc
AlternateSubs2: "'aalt' Access All Alternates in Latin lookup 1 subtable" q.sc Q.ss03
EndChar

StartChar: R
Encoding: 82 82 20
Width: 488
GlyphClass: 2
Flags: W
AnchorPoint: "Anchor-18" 251 744 basechar 0
AnchorPoint: "Anchor-15" 251 0 basechar 0
LayerCount: 2
Fore
SplineSet
41 0 m 1,0,-1
 41 744 l 1,1,-1
 257 744 l 2,2,3
 361 744 361 744 414.5 695.5 c 128,-1,4
 468 647 468 647 468 554 c 2,5,-1
 468 493 l 2,6,7
 468 433 468 433 443.5 392.5 c 128,-1,8
 419 352 419 352 372 338 c 1,9,-1
 372 337 l 1,10,11
 456 318 456 318 461 183 c 2,12,-1
 465 90 l 2,13,14
 469 25 469 25 480 0 c 1,15,-1
 319 0 l 1,16,17
 310 36 310 36 306 116 c 2,18,-1
 302 202 l 2,19,20
 300 235 300 235 284 251 c 128,-1,21
 268 267 268 267 236 267 c 2,22,-1
 202 267 l 1,23,-1
 202 0 l 1,24,-1
 41 0 l 1,0,-1
243 390 m 2,25,26
 273 390 273 390 290 408.5 c 128,-1,27
 307 427 307 427 307 471 c 2,28,-1
 307 535 l 2,29,30
 307 573 307 573 292.5 591 c 128,-1,31
 278 609 278 609 248 609 c 2,32,-1
 202 609 l 1,33,-1
 202 390 l 1,34,-1
 243 390 l 2,25,26
EndSplineSet
Substitution2: "'ss03' Style Set 3 in Latin lookup 23 subtable" R.ss03
Substitution2: "'c2sc' Capitals to Small Capitals in Latin lookup 16 subtable" r.sc
AlternateSubs2: "'aalt' Access All Alternates in Latin lookup 1 subtable" r.sc R.ss03
EndChar

StartChar: S
Encoding: 83 83 21
Width: 472
GlyphClass: 2
Flags: W
AnchorPoint: "Anchor-18" 236 744 basechar 0
AnchorPoint: "Anchor-15" 236 0 basechar 0
LayerCount: 2
Fore
SplineSet
75 39 m 128,-1,1
 19 92 19 92 19 199 c 2,2,-1
 19 243 l 1,3,-1
 177 243 l 1,4,-1
 177 199 l 2,5,6
 177 124 177 124 238 124 c 0,7,8
 264 124 264 124 277 138.5 c 128,-1,9
 290 153 290 153 290 178 c 2,10,-1
 290 226 l 2,11,12
 290 252 290 252 280 267.5 c 128,-1,13
 270 283 270 283 250.5 293.5 c 128,-1,14
 231 304 231 304 177 329 c 0,15,16
 121 356 121 356 88.5 381.5 c 128,-1,17
 56 407 56 407 41 442 c 128,-1,18
 26 477 26 477 26 529 c 2,19,-1
 26 572 l 2,20,21
 26 660 26 660 83.5 708.5 c 128,-1,22
 141 757 141 757 236 757 c 0,23,24
 338 757 338 757 392.5 701.5 c 128,-1,25
 447 646 447 646 446 546 c 2,26,-1
 446 506 l 1,27,-1
 294 506 l 1,28,-1
 294 546 l 2,29,30
 294 619 294 619 236 619 c 0,31,32
 212 619 212 619 199.5 606 c 128,-1,33
 187 593 187 593 187 572 c 2,34,-1
 187 529 l 2,35,36
 188 500 188 500 206 484.5 c 128,-1,37
 224 469 224 469 265 451 c 0,38,39
 335 422 335 422 375.5 391.5 c 128,-1,40
 416 361 416 361 434.5 321.5 c 128,-1,41
 453 282 453 282 453 224 c 2,42,-1
 453 176 l 2,43,44
 453 87 453 87 394 36.5 c 128,-1,45
 335 -14 335 -14 238 -14 c 0,46,0
 131 -14 131 -14 75 39 c 128,-1,1
EndSplineSet
Substitution2: "'c2sc' Capitals to Small Capitals in Latin lookup 16 subtable" s.sc
Substitution2: "'aalt' Access All Alternates in Latin lookup 0 subtable" s.sc
EndChar

StartChar: T
Encoding: 84 84 22
Width: 412
GlyphClass: 2
Flags: W
AnchorPoint: "Anchor-18" 207 744 basechar 0
AnchorPoint: "Anchor-16" 207 372 basechar 0
AnchorPoint: "Anchor-15" 205 -1 basechar 0
LayerCount: 2
Fore
SplineSet
286 0 m 1,0,-1
 125 0 l 1,1,-1
 125 597 l 1,2,-1
 7 597 l 1,3,-1
 7 744 l 1,4,-1
 405 744 l 1,5,-1
 405 597 l 1,6,-1
 286 597 l 1,7,-1
 286 0 l 1,0,-1
EndSplineSet
Substitution2: "'c2sc' Capitals to Small Capitals in Latin lookup 16 subtable" t.sc
Substitution2: "'aalt' Access All Alternates in Latin lookup 0 subtable" t.sc
EndChar

StartChar: U
Encoding: 85 85 23
Width: 501
GlyphClass: 2
Flags: W
AnchorPoint: "Anchor-19" 393 744 basechar 0
AnchorPoint: "Anchor-18" 247 744 basechar 0
AnchorPoint: "Anchor-17" 364 10 basechar 0
AnchorPoint: "Anchor-15" 247 0 basechar 0
LayerCount: 2
Fore
SplineSet
85.5 45 m 128,-1,1
 33 104 33 104 33 232 c 2,2,-1
 33 744 l 1,3,-1
 194 744 l 1,4,-1
 194 215 l 2,5,6
 194 128 194 128 251 128 c 0,7,8
 278 128 278 128 292.5 150 c 128,-1,9
 307 172 307 172 307 215 c 2,10,-1
 307 744 l 1,11,-1
 468 744 l 1,12,-1
 468 234 l 2,13,14
 468 105 468 105 415.5 45.5 c 128,-1,15
 363 -14 363 -14 251 -14 c 0,16,0
 138 -14 138 -14 85.5 45 c 128,-1,1
EndSplineSet
Substitution2: "'c2sc' Capitals to Small Capitals in Latin lookup 16 subtable" u.sc
Substitution2: "'aalt' Access All Alternates in Latin lookup 0 subtable" u.sc
EndChar

StartChar: V
Encoding: 86 86 24
Width: 512
GlyphClass: 2
Flags: W
AnchorPoint: "Anchor-18" 242 744 basechar 0
AnchorPoint: "Anchor-17" 489 744 basechar 0
AnchorPoint: "Anchor-16" 256 549 basechar 0
AnchorPoint: "Anchor-15" 242 0 basechar 0
LayerCount: 2
Fore
SplineSet
150 0 m 1,0,-1
 5 744 l 1,1,-1
 169 744 l 1,2,-1
 249 223 l 1,3,-1
 255 157 l 1,4,-1
 257 157 l 1,5,-1
 263 223 l 1,6,-1
 343 744 l 1,7,-1
 507 744 l 1,8,-1
 362 0 l 1,9,-1
 150 0 l 1,0,-1
EndSplineSet
Substitution2: "'c2sc' Capitals to Small Capitals in Latin lookup 16 subtable" v.sc
Substitution2: "'aalt' Access All Alternates in Latin lookup 0 subtable" v.sc
EndChar

StartChar: W
Encoding: 87 87 25
Width: 772
GlyphClass: 2
Flags: W
AnchorPoint: "Anchor-18" 392 744 basechar 0
AnchorPoint: "Anchor-15" 392 0 basechar 0
LayerCount: 2
Fore
SplineSet
328 0 m 1,0,-1
 120 0 l 1,1,-1
 5 744 l 1,2,-1
 168 744 l 1,3,-1
 224 223 l 1,4,-1
 229 161 l 1,5,-1
 231 161 l 1,6,-1
 236 223 l 1,7,-1
 292 744 l 1,8,-1
 479 744 l 1,9,-1
 536 223 l 1,10,-1
 541 161 l 1,11,-1
 543 161 l 1,12,-1
 548 223 l 1,13,-1
 603 744 l 1,14,-1
 767 744 l 1,15,-1
 652 0 l 1,16,-1
 444 0 l 1,17,-1
 392 494 l 1,18,-1
 388 553 l 1,19,-1
 385 553 l 1,20,-1
 381 494 l 1,21,-1
 328 0 l 1,0,-1
EndSplineSet
Substitution2: "'c2sc' Capitals to Small Capitals in Latin lookup 16 subtable" w.sc
Substitution2: "'aalt' Access All Alternates in Latin lookup 0 subtable" w.sc
EndChar

StartChar: X
Encoding: 88 88 26
Width: 506
GlyphClass: 2
Flags: W
AnchorPoint: "Anchor-18" 254 744 basechar 0
AnchorPoint: "Anchor-15" 254 0 basechar 0
LayerCount: 2
Fore
SplineSet
177 0 m 1,0,-1
 6 0 l 1,1,-1
 127 385 l 1,2,-1
 18 744 l 1,3,-1
 188 744 l 1,4,-1
 241 519 l 1,5,-1
 252 461 l 1,6,-1
 254 461 l 1,7,-1
 265 519 l 1,8,-1
 318 744 l 1,9,-1
 489 744 l 1,10,-1
 378 386 l 1,11,-1
 500 0 l 1,12,-1
 330 0 l 1,13,-1
 266 249 l 1,14,-1
 254 307 l 1,15,-1
 252 307 l 1,16,-1
 239 249 l 1,17,-1
 177 0 l 1,0,-1
EndSplineSet
Substitution2: "'c2sc' Capitals to Small Capitals in Latin lookup 16 subtable" x.sc
Substitution2: "'aalt' Access All Alternates in Latin lookup 0 subtable" x.sc
EndChar

StartChar: Y
Encoding: 89 89 27
Width: 478
GlyphClass: 2
Flags: W
AnchorPoint: "Anchor-18" 240 744 basechar 0
AnchorPoint: "Anchor-15" 240 0 basechar 0
LayerCount: 2
Fore
SplineSet
320 0 m 1,0,-1
 159 0 l 1,1,-1
 159 207 l 1,2,-1
 5 744 l 1,3,-1
 172 744 l 1,4,-1
 234 421 l 1,5,-1
 238 387 l 1,6,-1
 240 387 l 1,7,-1
 245 421 l 1,8,-1
 305 744 l 1,9,-1
 473 744 l 1,10,-1
 320 207 l 1,11,-1
 320 0 l 1,0,-1
EndSplineSet
Substitution2: "'c2sc' Capitals to Small Capitals in Latin lookup 16 subtable" y.sc
Substitution2: "'aalt' Access All Alternates in Latin lookup 0 subtable" y.sc
EndChar

StartChar: Z
Encoding: 90 90 28
Width: 423
GlyphClass: 2
Flags: W
AnchorPoint: "Anchor-18" 212 744 basechar 0
AnchorPoint: "Anchor-16" 212 372 basechar 0
AnchorPoint: "Anchor-15" 212 0 basechar 0
LayerCount: 2
Fore
SplineSet
412 0 m 1,0,-1
 12 0 l 1,1,-1
 12 125 l 1,2,-1
 221 593 l 1,3,-1
 21 593 l 1,4,-1
 21 744 l 1,5,-1
 407 744 l 1,6,-1
 407 625 l 1,7,-1
 194 151 l 1,8,-1
 412 151 l 1,9,-1
 412 0 l 1,0,-1
EndSplineSet
Substitution2: "'c2sc' Capitals to Small Capitals in Latin lookup 16 subtable" z.sc
Substitution2: "'aalt' Access All Alternates in Latin lookup 0 subtable" z.sc
EndChar

StartChar: AE
Encoding: 198 198 29
Width: 671
GlyphClass: 2
Flags: W
AnchorPoint: "Anchor-18" 452 744 basechar 0
AnchorPoint: "Anchor-15" 341 0 basechar 0
LayerCount: 2
Fore
SplineSet
456 310 m 1,0,-1
 456 143 l 1,1,-1
 651 143 l 1,2,-1
 651 0 l 1,3,-1
 295 0 l 1,4,-1
 295 157 l 1,5,-1
 199 157 l 1,6,-1
 163 0 l 1,7,-1
 5 0 l 1,8,-1
 198 744 l 1,9,-1
 647 744 l 1,10,-1
 647 602 l 1,11,-1
 456 602 l 1,12,-1
 456 444 l 1,13,-1
 626 444 l 1,14,-1
 626 310 l 1,15,-1
 456 310 l 1,0,-1
282 515 m 1,16,-1
 227 276 l 1,17,-1
 295 276 l 1,18,-1
 295 613 l 1,19,-1
 292 613 l 1,20,-1
 282 515 l 1,16,-1
EndSplineSet
Substitution2: "'c2sc' Capitals to Small Capitals in Latin lookup 16 subtable" ae.sc
Substitution2: "'aalt' Access All Alternates in Latin lookup 0 subtable" ae.sc
EndChar

StartChar: OE
Encoding: 338 338 30
Width: 663
GlyphClass: 2
Flags: W
AnchorPoint: "Anchor-18" 321 744 basechar 0
AnchorPoint: "Anchor-17" 643 0 basechar 0
AnchorPoint: "Anchor-15" 321 0 basechar 0
LayerCount: 2
Fore
SplineSet
643 144 m 1,0,-1
 643 0 l 1,1,-1
 340 0 l 1,2,3
 301 -14 301 -14 249 -14 c 0,4,5
 30 -14 30 -14 30 242 c 2,6,-1
 30 503 l 2,7,8
 30 630 30 630 84 693.5 c 128,-1,9
 138 757 138 757 248 757 c 0,10,11
 302 757 302 757 338 744 c 1,12,-1
 637 744 l 1,13,-1
 637 602 l 1,14,-1
 447 602 l 1,15,-1
 447 446 l 1,16,-1
 615 446 l 1,17,-1
 615 310 l 1,18,-1
 447 310 l 1,19,-1
 447 144 l 1,20,-1
 643 144 l 1,0,-1
286 160 m 1,22,-1
 286 584 l 1,23,24
 277 614 277 614 249 614 c 256,25,26
 221 614 221 614 206 591.5 c 128,-1,27
 191 569 191 569 191 526 c 2,28,-1
 191 220 l 2,29,30
 191 176 191 176 206 152.5 c 128,-1,31
 221 129 221 129 249 129 c 256,32,21
 277 129 277 129 286 160 c 1,22,-1
EndSplineSet
Substitution2: "'c2sc' Capitals to Small Capitals in Latin lookup 16 subtable" oe.sc
Substitution2: "'aalt' Access All Alternates in Latin lookup 0 subtable" oe.sc
EndChar

StartChar: Eth
Encoding: 208 208 31
Width: 504
GlyphClass: 2
Flags: W
AnchorPoint: "Anchor-18" 251 744 basechar 0
AnchorPoint: "Anchor-16" 131 372 basechar 0
AnchorPoint: "Anchor-15" 251 0 basechar 0
LayerCount: 2
Fore
SplineSet
256 744 m 2,0,1
 370 744 370 744 422 676 c 128,-1,2
 474 608 474 608 474 466 c 2,3,-1
 474 278 l 2,4,5
 474 136 474 136 421.5 68 c 128,-1,6
 369 0 369 0 257 0 c 2,7,-1
 41 0 l 1,8,-1
 41 327 l 1,9,-1
 4 327 l 1,10,-1
 4 412 l 1,11,-1
 41 412 l 1,12,-1
 41 744 l 1,13,-1
 256 744 l 2,0,1
313 494 m 2,14,15
 313 555 313 555 294.5 580 c 128,-1,16
 276 605 276 605 238 605 c 2,17,-1
 202 605 l 1,18,-1
 202 412 l 1,19,-1
 256 412 l 1,20,-1
 256 327 l 1,21,-1
 202 327 l 1,22,-1
 202 138 l 1,23,-1
 238 138 l 2,24,25
 276 138 276 138 294.5 163 c 128,-1,26
 313 188 313 188 313 250 c 2,27,-1
 313 494 l 2,14,15
EndSplineSet
Substitution2: "'c2sc' Capitals to Small Capitals in Latin lookup 16 subtable" eth.sc
Substitution2: "'aalt' Access All Alternates in Latin lookup 0 subtable" eth.sc
EndChar

StartChar: Thorn
Encoding: 222 222 32
Width: 465
GlyphClass: 2
Flags: W
AnchorPoint: "Anchor-18" 234 744 basechar 0
AnchorPoint: "Anchor-15" 234 0 basechar 0
LayerCount: 2
Fore
SplineSet
271 626 m 2,0,1
 355 626 355 626 404.5 574 c 128,-1,2
 454 522 454 522 454 438 c 2,3,-1
 454 306 l 2,4,5
 454 218 454 218 405.5 164.5 c 128,-1,6
 357 111 357 111 275 111 c 2,7,-1
 202 111 l 1,8,-1
 202 0 l 1,9,-1
 41 0 l 1,10,-1
 41 744 l 1,11,-1
 202 744 l 1,12,-1
 202 626 l 1,13,-1
 271 626 l 2,0,1
292 434 m 2,14,15
 292 462 292 462 278.5 476.5 c 128,-1,16
 265 491 265 491 240 491 c 2,17,-1
 202 491 l 1,18,-1
 202 246 l 1,19,-1
 238 246 l 2,20,21
 264 246 264 246 278 261.5 c 128,-1,22
 292 277 292 277 292 306 c 2,23,-1
 292 434 l 2,14,15
EndSplineSet
Substitution2: "'c2sc' Capitals to Small Capitals in Latin lookup 16 subtable" thorn.sc
Substitution2: "'aalt' Access All Alternates in Latin lookup 0 subtable" thorn.sc
EndChar

StartChar: uni1E9E
Encoding: 7838 7838 33
Width: 471
GlyphClass: 2
Flags: W
AnchorPoint: "Anchor-18" 236 744 basechar 0
AnchorPoint: "Anchor-15" 236 0 basechar 0
LayerCount: 2
Fore
SplineSet
39 566 m 2,0,1
 39 657 39 657 83.5 700.5 c 128,-1,2
 128 744 128 744 218 744 c 2,3,-1
 418 744 l 1,4,-1
 418 617 l 1,5,-1
 338 430 l 1,6,7
 397 424 397 424 423 381.5 c 128,-1,8
 449 339 449 339 449 278 c 2,9,-1
 449 204 l 2,10,11
 449 98 449 98 402.5 49 c 128,-1,12
 356 0 356 0 255 0 c 2,13,-1
 226 0 l 1,14,-1
 226 134 l 1,15,-1
 237 134 l 2,16,17
 261 134 261 134 274.5 148.5 c 128,-1,18
 288 163 288 163 288 204 c 2,19,-1
 288 281 l 2,20,21
 288 317 288 317 273.5 331 c 128,-1,22
 259 345 259 345 226 345 c 1,23,-1
 226 442 l 1,24,-1
 286 601 l 1,25,-1
 235 601 l 2,26,27
 209 601 209 601 198 585.5 c 128,-1,28
 187 570 187 570 187 534 c 2,29,-1
 187 0 l 1,30,-1
 39 0 l 1,31,-1
 39 566 l 2,0,1
EndSplineSet
Substitution2: "'c2sc' Capitals to Small Capitals in Latin lookup 16 subtable" germandbls.sc
Substitution2: "'aalt' Access All Alternates in Latin lookup 0 subtable" germandbls.sc
EndChar

StartChar: a
Encoding: 97 97 34
Width: 465
GlyphClass: 2
Flags: W
AnchorPoint: "Anchor-18" 231 594 basechar 0
AnchorPoint: "Anchor-17" 429 0 basechar 0
AnchorPoint: "Anchor-15" 231 0 basechar 0
LayerCount: 2
Fore
SplineSet
380 555.5 m 128,-1,1
 429 503 429 503 429 408 c 2,2,-1
 429 0 l 1,3,-1
 275 0 l 1,4,-1
 275 29 l 1,5,-1
 279 63 l 1,6,-1
 276 63 l 1,7,8
 242 -14 242 -14 165 -14 c 0,9,10
 98 -14 98 -14 60 29 c 128,-1,11
 22 72 22 72 22 147 c 2,12,-1
 22 188 l 2,13,14
 22 264 22 264 64.5 306.5 c 128,-1,15
 107 349 107 349 194 349 c 0,16,17
 237 349 237 349 275 335 c 1,18,-1
 275 417 l 2,19,20
 275 480 275 480 227 480 c 0,21,22
 204 480 204 480 192.5 463 c 128,-1,23
 181 446 181 446 181 421 c 2,24,-1
 181 387 l 1,25,-1
 31 387 l 1,26,-1
 31 411 l 2,27,28
 31 499 31 499 79.5 553.5 c 128,-1,29
 128 608 128 608 227 608 c 0,30,0
 331 608 331 608 380 555.5 c 128,-1,1
275 198 m 2,32,-1
 275 256 l 1,33,34
 246 269 246 269 224 269 c 0,35,36
 175 269 175 269 175 211 c 2,37,-1
 175 169 l 2,38,39
 175 141 175 141 186 127.5 c 128,-1,40
 197 114 197 114 221 114 c 0,41,31
 275 114 275 114 275 198 c 2,32,-1
EndSplineSet
Substitution2: "'ss01' Style Set 1 in Latin lookup 21 subtable" a.ss01
Substitution2: "'salt' Stylistic Alternatives in Latin lookup 20 subtable" a.ss01
Substitution2: "'smcp' Lowercase to Small Capitals in Latin lookup 17 subtable" a.sc
AlternateSubs2: "'aalt' Access All Alternates in Latin lookup 1 subtable" a.sc a.ss01
EndChar

StartChar: b
Encoding: 98 98 35
Width: 471
GlyphClass: 2
Flags: W
AnchorPoint: "Anchor-18" 232 766 basechar 0
AnchorPoint: "Anchor-15" 232 0 basechar 0
LayerCount: 2
Fore
SplineSet
415 549 m 128,-1,1
 447 490 447 490 447 364 c 2,2,-1
 447 235 l 2,3,4
 447 105 447 105 415 45.5 c 128,-1,5
 383 -14 383 -14 307 -14 c 0,6,7
 267 -14 267 -14 235.5 7.5 c 128,-1,8
 204 29 204 29 188 68 c 1,9,-1
 186 68 l 1,10,-1
 191 24 l 1,11,-1
 191 0 l 1,12,-1
 36 0 l 1,13,-1
 36 766 l 1,14,-1
 191 766 l 1,15,-1
 191 576 l 1,16,-1
 187 526 l 1,17,-1
 189 526 l 1,18,19
 206 567 206 567 236.5 587.5 c 128,-1,20
 267 608 267 608 307 608 c 0,21,0
 383 608 383 608 415 549 c 128,-1,1
292 381 m 2,22,23
 292 428 292 428 282.5 454 c 128,-1,24
 273 480 273 480 243 480 c 256,25,26
 213 480 213 480 202 454.5 c 128,-1,27
 191 429 191 429 191 386 c 2,28,-1
 191 204 l 2,29,30
 191 114 191 114 243 114 c 0,31,32
 273 114 273 114 282.5 137 c 128,-1,33
 292 160 292 160 292 210 c 2,34,-1
 292 381 l 2,22,23
EndSplineSet
Substitution2: "'smcp' Lowercase to Small Capitals in Latin lookup 17 subtable" b.sc
Substitution2: "'aalt' Access All Alternates in Latin lookup 0 subtable" b.sc
EndChar

StartChar: c
Encoding: 99 99 36
Width: 440
GlyphClass: 2
Flags: W
AnchorPoint: "Anchor-18" 223 594 basechar 0
AnchorPoint: "Anchor-16" 225 297 basechar 0
AnchorPoint: "Anchor-15" 223 0 basechar 0
LayerCount: 2
Fore
SplineSet
24 228 m 2,1,-1
 24 369 l 2,2,3
 24 608 24 608 227 608 c 0,4,5
 317 608 317 608 368.5 553.5 c 128,-1,6
 420 499 420 499 420 388 c 2,7,-1
 420 351 l 1,8,-1
 272 351 l 1,9,-1
 272 412 l 2,10,11
 272 448 272 448 261 464 c 128,-1,12
 250 480 250 480 227 480 c 0,13,14
 179 480 179 480 179 405 c 2,15,-1
 179 192 l 2,16,17
 179 114 179 114 227 114 c 0,18,19
 274 114 274 114 274 187 c 2,20,-1
 274 252 l 1,21,-1
 421 252 l 1,22,-1
 421 212 l 2,23,24
 421 95 421 95 369.5 40.5 c 128,-1,25
 318 -14 318 -14 225 -14 c 0,26,0
 24 -14 24 -14 24 228 c 2,1,-1
EndSplineSet
Substitution2: "'smcp' Lowercase to Small Capitals in Latin lookup 17 subtable" c.sc
Substitution2: "'aalt' Access All Alternates in Latin lookup 0 subtable" c.sc
EndChar

StartChar: d
Encoding: 100 100 37
Width: 471
GlyphClass: 2
Flags: W
AnchorPoint: "Anchor-19" 460 766 basechar 0
AnchorPoint: "Anchor-18" 232 766 basechar 0
AnchorPoint: "Anchor-16" 300 689 basechar 0
AnchorPoint: "Anchor-15" 232 0 basechar 0
LayerCount: 2
Fore
SplineSet
280 766 m 1,0,-1
 435 766 l 1,1,-1
 435 0 l 1,2,-1
 280 0 l 1,3,-1
 280 24 l 1,4,-1
 285 68 l 1,5,-1
 283 68 l 1,6,7
 267 29 267 29 235.5 7.5 c 128,-1,8
 204 -14 204 -14 164 -14 c 0,9,10
 88 -14 88 -14 56 45.5 c 128,-1,11
 24 105 24 105 24 235 c 2,12,-1
 24 364 l 2,13,14
 24 490 24 490 56 549 c 128,-1,15
 88 608 88 608 164 608 c 0,16,17
 204 608 204 608 234.5 587.5 c 128,-1,18
 265 567 265 567 282 526 c 1,19,-1
 284 526 l 1,20,-1
 280 576 l 1,21,-1
 280 766 l 1,0,-1
280 204 m 2,23,-1
 280 386 l 2,24,25
 280 429 280 429 269 454.5 c 128,-1,26
 258 480 258 480 228 480 c 256,27,28
 198 480 198 480 188.5 454 c 128,-1,29
 179 428 179 428 179 381 c 2,30,-1
 179 210 l 2,31,32
 179 160 179 160 188.5 137 c 128,-1,33
 198 114 198 114 228 114 c 0,34,22
 280 114 280 114 280 204 c 2,23,-1
EndSplineSet
Substitution2: "'smcp' Lowercase to Small Capitals in Latin lookup 17 subtable" d.sc
Substitution2: "'aalt' Access All Alternates in Latin lookup 0 subtable" d.sc
EndChar

StartChar: e
Encoding: 101 101 38
Width: 443
GlyphClass: 2
Flags: W
AnchorPoint: "Anchor-18" 222 594 basechar 0
AnchorPoint: "Anchor-17" 322 7 basechar 0
AnchorPoint: "Anchor-15" 222 0 basechar 0
LayerCount: 2
Fore
SplineSet
370.5 551 m 128,-1,1
 420 494 420 494 420 381 c 2,2,-1
 420 254 l 1,3,-1
 179 254 l 1,4,-1
 179 193 l 2,5,6
 179 110 179 110 226 110 c 0,7,8
 251 110 251 110 261.5 126 c 128,-1,9
 272 142 272 142 274 177 c 2,10,-1
 274 208 l 1,11,-1
 419 208 l 1,12,-1
 419 178 l 2,13,14
 417 87 417 87 366 36.5 c 128,-1,15
 315 -14 315 -14 222 -14 c 0,16,17
 123 -14 123 -14 73.5 49.5 c 128,-1,18
 24 113 24 113 24 226 c 2,19,-1
 24 370 l 2,20,21
 24 482 24 482 75 545 c 128,-1,22
 126 608 126 608 226 608 c 0,23,0
 321 608 321 608 370.5 551 c 128,-1,1
179 351 m 1,24,-1
 273 351 l 1,25,-1
 273 402 l 2,26,27
 273 446 273 446 262.5 465.5 c 128,-1,28
 252 485 252 485 227 485 c 256,29,30
 202 485 202 485 190.5 465.5 c 128,-1,31
 179 446 179 446 179 404 c 2,32,-1
 179 351 l 1,24,-1
EndSplineSet
Substitution2: "'ss03' Style Set 3 in Latin lookup 23 subtable" e.ss03
Substitution2: "'smcp' Lowercase to Small Capitals in Latin lookup 17 subtable" e.sc
AlternateSubs2: "'aalt' Access All Alternates in Latin lookup 1 subtable" e.sc e.ss03
EndChar

StartChar: f
Encoding: 102 102 39
Width: 322
GlyphClass: 2
Flags: W
AnchorPoint: "Anchor-18" 158 766 basechar 0
AnchorPoint: "Anchor-15" 158 0 basechar 0
LayerCount: 2
Fore
SplineSet
238.5 659.5 m 128,-1,1
 226 653 226 653 221.5 638.5 c 128,-1,2
 217 624 217 624 216 594 c 1,3,-1
 321 594 l 1,4,-1
 321 466 l 1,5,-1
 216 466 l 1,6,-1
 216 0 l 1,7,-1
 61 0 l 1,8,-1
 61 466 l 1,9,-1
 5 466 l 1,10,-1
 5 594 l 1,11,-1
 61 594 l 1,12,13
 64 696 64 696 107 739.5 c 128,-1,14
 150 783 150 783 243 783 c 0,15,16
 280 783 280 783 328 773 c 1,17,-1
 320 662 l 1,18,19
 300 666 300 666 277 666 c 0,20,0
 251 666 251 666 238.5 659.5 c 128,-1,1
EndSplineSet
Substitution2: "'smcp' Lowercase to Small Capitals in Latin lookup 17 subtable" f.sc
Substitution2: "'aalt' Access All Alternates in Latin lookup 0 subtable" f.sc
EndChar

StartChar: g
Encoding: 103 103 40
Width: 471
GlyphClass: 2
Flags: W
AnchorPoint: "Anchor-18" 240 594 basechar 0
AnchorPoint: "Anchor-15" 240 -163 basechar 0
LayerCount: 2
Fore
SplineSet
280 594 m 1,0,-1
 435 594 l 1,1,-1
 435 40 l 2,2,3
 435 -70 435 -70 378 -124.5 c 128,-1,4
 321 -179 321 -179 205 -179 c 0,5,6
 137 -179 137 -179 69 -159 c 1,7,-1
 76 -36 l 1,8,9
 96 -43 96 -43 125.5 -47.5 c 128,-1,10
 155 -52 155 -52 184 -52 c 0,11,12
 275 -52 275 -52 280 34 c 1,13,-1
 280 39 l 1,14,-1
 285 101 l 1,15,-1
 283 101 l 1,16,17
 267 61 267 61 235.5 39.5 c 128,-1,18
 204 18 204 18 164 18 c 0,19,20
 89 18 89 18 56.5 76.5 c 128,-1,21
 24 135 24 135 24 263 c 2,22,-1
 24 369 l 2,23,24
 24 492 24 492 56.5 550 c 128,-1,25
 89 608 89 608 164 608 c 0,26,27
 204 608 204 608 235.5 587 c 128,-1,28
 267 566 267 566 283 526 c 1,29,-1
 285 526 l 1,30,-1
 280 569 l 1,31,-1
 280 594 l 1,0,-1
280 234 m 2,33,-1
 280 386 l 2,34,35
 280 480 280 480 228 480 c 0,36,37
 198 480 198 480 188.5 454.5 c 128,-1,38
 179 429 179 429 179 385 c 2,39,-1
 179 231 l 2,40,41
 179 191 179 191 189 169.5 c 128,-1,42
 199 148 199 148 228 148 c 0,43,32
 280 148 280 148 280 234 c 2,33,-1
EndSplineSet
Substitution2: "'ss02' Style Set 2 in Latin lookup 22 subtable" g.ss02
Substitution2: "'smcp' Lowercase to Small Capitals in Latin lookup 17 subtable" g.sc
AlternateSubs2: "'aalt' Access All Alternates in Latin lookup 1 subtable" g.sc g.ss02
EndChar

StartChar: h
Encoding: 104 104 41
Width: 480
GlyphClass: 2
Flags: W
AnchorPoint: "Anchor-18" 112 740 basechar 0
AnchorPoint: "Anchor-16" 164 687 basechar 0
AnchorPoint: "Anchor-15" 237 0 basechar 0
LayerCount: 2
Fore
SplineSet
445 436 m 2,1,-1
 445 0 l 1,2,-1
 290 0 l 1,3,-1
 290 414 l 2,4,5
 290 444 290 444 278 460 c 128,-1,6
 266 476 266 476 245 476 c 0,7,8
 219 476 219 476 205 453 c 128,-1,9
 191 430 191 430 191 394 c 2,10,-1
 191 0 l 1,11,-1
 36 0 l 1,12,-1
 36 766 l 1,13,-1
 191 766 l 1,14,-1
 191 571 l 1,15,-1
 187 526 l 1,16,-1
 189 526 l 1,17,18
 207 567 207 567 237.5 587.5 c 128,-1,19
 268 608 268 608 308 608 c 0,20,0
 445 608 445 608 445 436 c 2,1,-1
EndSplineSet
Substitution2: "'smcp' Lowercase to Small Capitals in Latin lookup 17 subtable" h.sc
Substitution2: "'aalt' Access All Alternates in Latin lookup 0 subtable" h.sc
EndChar

StartChar: i
Encoding: 105 105 42
Width: 227
GlyphClass: 2
Flags: W
AnchorPoint: "Anchor-18" 114 594 basechar 0
AnchorPoint: "Anchor-17" 161 0 basechar 0
AnchorPoint: "Anchor-15" 114 0 basechar 0
LayerCount: 2
Fore
SplineSet
47.5 663.5 m 128,-1,1
 27 682 27 682 27 724 c 0,2,3
 27 767 27 767 47.5 785.5 c 128,-1,4
 68 804 68 804 114 804 c 256,5,6
 160 804 160 804 181 785 c 128,-1,7
 202 766 202 766 202 724 c 256,8,9
 202 682 202 682 181 663.5 c 128,-1,10
 160 645 160 645 114 645 c 256,11,0
 68 645 68 645 47.5 663.5 c 128,-1,1
191 0 m 1,12,-1
 36 0 l 1,13,-1
 36 594 l 1,14,-1
 191 594 l 1,15,-1
 191 0 l 1,12,-1
EndSplineSet
Substitution2: "Single Substitution lookup 25 subtable" dotlessi
Substitution2: "'ss03' Style Set 3 in Latin lookup 23 subtable" i.ss03
Substitution2: "'smcp' Lowercase to Small Capitals in Latin lookup 17 subtable" i.sc
Substitution2: "'locl' Localized Forms in Latin lookup 6 subtable" i.loclTRK
AlternateSubs2: "'aalt' Access All Alternates in Latin lookup 1 subtable" i.loclTRK i.sc i.ss03
EndChar

StartChar: dotlessi
Encoding: 305 305 43
Width: 227
GlyphClass: 2
Flags: W
AnchorPoint: "Anchor-18" 114 594 basechar 0
AnchorPoint: "Anchor-17" 161 0 basechar 0
AnchorPoint: "Anchor-15" 114 0 basechar 0
LayerCount: 2
Fore
SplineSet
191 0 m 1,0,-1
 36 0 l 1,1,-1
 36 594 l 1,2,-1
 191 594 l 1,3,-1
 191 0 l 1,0,-1
EndSplineSet
Substitution2: "'ss03' Style Set 3 in Latin lookup 23 subtable" dotlessi.ss03
Substitution2: "'aalt' Access All Alternates in Latin lookup 0 subtable" dotlessi.ss03
EndChar

StartChar: j
Encoding: 106 106 44
Width: 230
GlyphClass: 2
Flags: W
AnchorPoint: "Anchor-18" 116 594 basechar 0
AnchorPoint: "Anchor-15" 116 -163 basechar 0
LayerCount: 2
Fore
SplineSet
50.5 663.5 m 128,-1,1
 30 682 30 682 30 724 c 0,2,3
 30 767 30 767 50.5 785.5 c 128,-1,4
 71 804 71 804 117 804 c 256,5,6
 163 804 163 804 184 785 c 128,-1,7
 205 766 205 766 205 724 c 256,8,9
 205 682 205 682 184 663.5 c 128,-1,10
 163 645 163 645 117 645 c 256,11,0
 71 645 71 645 50.5 663.5 c 128,-1,1
-53 -170 m 1,13,-1
 -48 -48 l 1,14,15
 -32 -52 -32 -52 -11 -52 c 0,16,17
 17 -52 17 -52 27.5 -35.5 c 128,-1,18
 38 -19 38 -19 38 28 c 2,19,-1
 38 594 l 1,20,-1
 194 594 l 1,21,-1
 194 29 l 2,22,23
 194 -75 194 -75 149.5 -126.5 c 128,-1,24
 105 -178 105 -178 10 -178 c 0,25,12
 -19 -178 -19 -178 -53 -170 c 1,13,-1
EndSplineSet
Substitution2: "Single Substitution lookup 25 subtable" uni0237
Substitution2: "'ss03' Style Set 3 in Latin lookup 23 subtable" j.ss03
Substitution2: "'smcp' Lowercase to Small Capitals in Latin lookup 17 subtable" j.sc
AlternateSubs2: "'aalt' Access All Alternates in Latin lookup 1 subtable" j.sc j.ss03
EndChar

StartChar: uni0237
Encoding: 567 567 45
Width: 230
GlyphClass: 2
Flags: W
AnchorPoint: "Anchor-18" 116 594 basechar 0
AnchorPoint: "Anchor-15" 116 -163 basechar 0
LayerCount: 2
Fore
SplineSet
-53 -170 m 1,1,-1
 -48 -48 l 1,2,3
 -32 -52 -32 -52 -11 -52 c 0,4,5
 17 -52 17 -52 27.5 -35.5 c 128,-1,6
 38 -19 38 -19 38 28 c 2,7,-1
 38 594 l 1,8,-1
 194 594 l 1,9,-1
 194 29 l 2,10,11
 194 -75 194 -75 149.5 -126.5 c 128,-1,12
 105 -178 105 -178 10 -178 c 0,13,0
 -19 -178 -19 -178 -53 -170 c 1,1,-1
EndSplineSet
Substitution2: "'ss03' Style Set 3 in Latin lookup 23 subtable" uni0237.ss03
Substitution2: "'smcp' Lowercase to Small Capitals in Latin lookup 17 subtable" j.sc
AlternateSubs2: "'aalt' Access All Alternates in Latin lookup 1 subtable" j.sc uni0237.ss03
EndChar

StartChar: k
Encoding: 107 107 46
Width: 475
GlyphClass: 2
Flags: W
AnchorPoint: "Anchor-18" 240 766 basechar 0
AnchorPoint: "Anchor-15" 240 0 basechar 0
LayerCount: 2
Fore
SplineSet
192 0 m 1,0,-1
 36 0 l 1,1,-1
 36 766 l 1,2,-1
 192 766 l 1,3,-1
 192 368 l 1,4,-1
 226 368 l 1,5,-1
 290 594 l 1,6,-1
 459 594 l 1,7,-1
 360 301 l 1,8,-1
 475 0 l 1,9,-1
 302 0 l 1,10,-1
 226 240 l 1,11,-1
 192 240 l 1,12,-1
 192 0 l 1,0,-1
EndSplineSet
Substitution2: "'ss03' Style Set 3 in Latin lookup 23 subtable" k.ss03
Substitution2: "'smcp' Lowercase to Small Capitals in Latin lookup 17 subtable" k.sc
AlternateSubs2: "'aalt' Access All Alternates in Latin lookup 1 subtable" k.sc k.ss03
EndChar

StartChar: l
Encoding: 108 108 47
Width: 227
GlyphClass: 2
Flags: W
AnchorPoint: "Anchor-19" 214 766 basechar 0
AnchorPoint: "Anchor-18" 114 739 basechar 0
AnchorPoint: "Anchor-16" 114 383 basechar 0
AnchorPoint: "Anchor-15" 114 0 basechar 0
LayerCount: 2
Fore
SplineSet
191 0 m 1,0,-1
 36 0 l 1,1,-1
 36 766 l 1,2,-1
 191 766 l 1,3,-1
 191 0 l 1,0,-1
EndSplineSet
Substitution2: "'ss03' Style Set 3 in Latin lookup 23 subtable" l.ss03
Substitution2: "'smcp' Lowercase to Small Capitals in Latin lookup 17 subtable" l.sc
AlternateSubs2: "'aalt' Access All Alternates in Latin lookup 1 subtable" l.sc l.ss03
EndChar

StartChar: m
Encoding: 109 109 48
Width: 729
GlyphClass: 2
Flags: W
AnchorPoint: "Anchor-18" 361 594 basechar 0
AnchorPoint: "Anchor-15" 361 0 basechar 0
LayerCount: 2
Fore
SplineSet
36 0 m 1,0,-1
 36 594 l 1,1,-1
 191 594 l 1,2,-1
 191 571 l 1,3,-1
 186 525 l 1,4,-1
 188 525 l 1,5,6
 205 566 205 566 237.5 587 c 128,-1,7
 270 608 270 608 313 608 c 0,8,9
 359 608 359 608 390 586 c 128,-1,10
 421 564 421 564 433 525 c 1,11,-1
 435 525 l 1,12,13
 452 564 452 564 484.5 586 c 128,-1,14
 517 608 517 608 559 608 c 0,15,16
 694 608 694 608 694 417 c 2,17,-1
 694 0 l 1,18,-1
 538 0 l 1,19,-1
 538 406 l 2,20,21
 538 438 538 438 529 457 c 128,-1,22
 520 476 520 476 495 476 c 0,23,24
 471 476 471 476 456.5 454 c 128,-1,25
 442 432 442 432 442 397 c 2,26,-1
 442 0 l 1,27,-1
 287 0 l 1,28,-1
 287 411 l 2,29,30
 287 476 287 476 243 476 c 0,31,32
 219 476 219 476 205 453.5 c 128,-1,33
 191 431 191 431 191 396 c 2,34,-1
 191 0 l 1,35,-1
 36 0 l 1,0,-1
EndSplineSet
Substitution2: "'smcp' Lowercase to Small Capitals in Latin lookup 17 subtable" m.sc
Substitution2: "'aalt' Access All Alternates in Latin lookup 0 subtable" m.sc
EndChar

StartChar: n
Encoding: 110 110 49
Width: 480
GlyphClass: 2
Flags: W
AnchorPoint: "Anchor-18" 237 594 basechar 0
AnchorPoint: "Anchor-15" 237 0 basechar 0
LayerCount: 2
Fore
SplineSet
445 436 m 2,1,-1
 445 0 l 1,2,-1
 290 0 l 1,3,-1
 290 414 l 2,4,5
 290 444 290 444 278 460 c 128,-1,6
 266 476 266 476 244 476 c 0,7,8
 218 476 218 476 204.5 453 c 128,-1,9
 191 430 191 430 191 394 c 2,10,-1
 191 0 l 1,11,-1
 36 0 l 1,12,-1
 36 594 l 1,13,-1
 191 594 l 1,14,-1
 191 572 l 1,15,-1
 187 525 l 1,16,-1
 189 525 l 1,17,18
 206 567 206 567 236.5 587.5 c 128,-1,19
 267 608 267 608 308 608 c 0,20,0
 445 608 445 608 445 436 c 2,1,-1
EndSplineSet
Substitution2: "'smcp' Lowercase to Small Capitals in Latin lookup 17 subtable" n.sc
Substitution2: "'aalt' Access All Alternates in Latin lookup 0 subtable" n.sc
EndChar

StartChar: o
Encoding: 111 111 50
Width: 459
GlyphClass: 2
Flags: W
AnchorPoint: "Anchor-19" 229 608 basechar 0
AnchorPoint: "Anchor-18" 229 594 basechar 0
AnchorPoint: "Anchor-17" 342 12 basechar 0
AnchorPoint: "Anchor-16" 229 298 basechar 0
AnchorPoint: "Anchor-15" 229 0 basechar 0
LayerCount: 2
Fore
SplineSet
75.5 47 m 128,-1,1
 24 108 24 108 24 226 c 2,2,-1
 24 369 l 2,3,4
 24 488 24 488 76 548 c 128,-1,5
 128 608 128 608 229 608 c 0,6,7
 332 608 332 608 383.5 548 c 128,-1,8
 435 488 435 488 435 369 c 2,9,-1
 435 226 l 2,10,11
 435 106 435 106 383 46 c 128,-1,12
 331 -14 331 -14 229 -14 c 256,13,0
 127 -14 127 -14 75.5 47 c 128,-1,1
280 191 m 2,15,-1
 280 403 l 2,16,17
 280 480 280 480 229 480 c 0,18,19
 179 480 179 480 179 403 c 2,20,-1
 179 192 l 2,21,22
 179 114 179 114 229 114 c 0,23,14
 280 114 280 114 280 191 c 2,15,-1
EndSplineSet
Substitution2: "'smcp' Lowercase to Small Capitals in Latin lookup 17 subtable" o.sc
Substitution2: "'aalt' Access All Alternates in Latin lookup 0 subtable" o.sc
EndChar

StartChar: p
Encoding: 112 112 51
Width: 471
GlyphClass: 2
Flags: W
AnchorPoint: "Anchor-18" 232 594 basechar 0
AnchorPoint: "Anchor-15" 232 0 basechar 0
LayerCount: 2
Fore
SplineSet
415 548.5 m 128,-1,1
 447 489 447 489 447 359 c 2,2,-1
 447 230 l 2,3,4
 447 104 447 104 415 45 c 128,-1,5
 383 -14 383 -14 307 -14 c 0,6,7
 267 -14 267 -14 235.5 7.5 c 128,-1,8
 204 29 204 29 188 68 c 1,9,-1
 186 68 l 1,10,-1
 191 18 l 1,11,-1
 191 -178 l 1,12,-1
 36 -178 l 1,13,-1
 36 594 l 1,14,-1
 191 594 l 1,15,-1
 191 571 l 1,16,-1
 186 526 l 1,17,-1
 189 526 l 1,18,19
 204 566 204 566 235.5 587 c 128,-1,20
 267 608 267 608 307 608 c 0,21,0
 383 608 383 608 415 548.5 c 128,-1,1
292 384 m 2,22,23
 292 431 292 431 282.5 455.5 c 128,-1,24
 273 480 273 480 243 480 c 0,25,26
 214 480 214 480 202.5 456 c 128,-1,27
 191 432 191 432 191 388 c 2,28,-1
 191 207 l 2,29,30
 191 164 191 164 202 139 c 128,-1,31
 213 114 213 114 243 114 c 256,32,33
 273 114 273 114 282.5 138.5 c 128,-1,34
 292 163 292 163 292 213 c 2,35,-1
 292 384 l 2,22,23
EndSplineSet
Substitution2: "'smcp' Lowercase to Small Capitals in Latin lookup 17 subtable" p.sc
Substitution2: "'aalt' Access All Alternates in Latin lookup 0 subtable" p.sc
EndChar

StartChar: q
Encoding: 113 113 52
Width: 471
GlyphClass: 2
Flags: W
AnchorPoint: "Anchor-18" 232 594 basechar 0
AnchorPoint: "Anchor-15" 232 0 basechar 0
LayerCount: 2
Fore
SplineSet
280 594 m 1,0,-1
 435 594 l 1,1,-1
 435 -178 l 1,2,-1
 280 -178 l 1,3,-1
 280 18 l 1,4,-1
 285 68 l 1,5,-1
 283 68 l 1,6,7
 267 29 267 29 235.5 7.5 c 128,-1,8
 204 -14 204 -14 164 -14 c 0,9,10
 88 -14 88 -14 56 45 c 128,-1,11
 24 104 24 104 24 230 c 2,12,-1
 24 359 l 2,13,14
 24 489 24 489 56 548.5 c 128,-1,15
 88 608 88 608 164 608 c 0,16,17
 204 608 204 608 235.5 587 c 128,-1,18
 267 566 267 566 282 526 c 1,19,-1
 285 526 l 1,20,-1
 280 571 l 1,21,-1
 280 594 l 1,0,-1
269 139 m 128,-1,23
 280 164 280 164 280 207 c 2,24,-1
 280 388 l 2,25,26
 280 432 280 432 268.5 456 c 128,-1,27
 257 480 257 480 228 480 c 0,28,29
 198 480 198 480 188.5 455.5 c 128,-1,30
 179 431 179 431 179 384 c 2,31,-1
 179 213 l 2,32,33
 179 163 179 163 188.5 138.5 c 128,-1,34
 198 114 198 114 228 114 c 256,35,22
 258 114 258 114 269 139 c 128,-1,23
EndSplineSet
Substitution2: "'smcp' Lowercase to Small Capitals in Latin lookup 17 subtable" q.sc
Substitution2: "'aalt' Access All Alternates in Latin lookup 0 subtable" q.sc
EndChar

StartChar: r
Encoding: 114 114 53
Width: 344
GlyphClass: 2
Flags: W
AnchorPoint: "Anchor-18" 178 594 basechar 0
AnchorPoint: "Anchor-15" 109 0 basechar 0
LayerCount: 2
Fore
SplineSet
336 602 m 1,1,-1
 336 452 l 1,2,3
 321 458 321 458 292 458 c 0,4,5
 244 458 244 458 217.5 425 c 128,-1,6
 191 392 191 392 191 330 c 2,7,-1
 191 0 l 1,8,-1
 36 0 l 1,9,-1
 36 594 l 1,10,-1
 190 594 l 1,11,-1
 190 571 l 1,12,-1
 185 522 l 1,13,-1
 187 522 l 1,14,15
 199 563 199 563 228.5 585.5 c 128,-1,16
 258 608 258 608 292 608 c 0,17,0
 320 608 320 608 336 602 c 1,1,-1
EndSplineSet
Substitution2: "'smcp' Lowercase to Small Capitals in Latin lookup 17 subtable" r.sc
Substitution2: "'aalt' Access All Alternates in Latin lookup 0 subtable" r.sc
EndChar

StartChar: s
Encoding: 115 115 54
Width: 441
GlyphClass: 2
Flags: W
AnchorPoint: "Anchor-18" 221 594 basechar 0
AnchorPoint: "Anchor-15" 221 0 basechar 0
LayerCount: 2
Fore
SplineSet
70.5 34 m 128,-1,1
 20 81 20 81 19 171 c 2,2,-1
 19 205 l 1,3,-1
 170 205 l 1,4,-1
 170 170 l 2,5,6
 171 107 171 107 225 107 c 0,7,8
 245 107 245 107 256 118 c 128,-1,9
 267 129 267 129 267 148 c 2,10,-1
 267 187 l 2,11,12
 267 212 267 212 252.5 225 c 128,-1,13
 238 238 238 238 197 249 c 0,14,15
 104 275 104 275 66 315 c 128,-1,16
 28 355 28 355 28 424 c 2,17,-1
 28 457 l 2,18,19
 28 528 28 528 73.5 568 c 128,-1,20
 119 608 119 608 215 608 c 0,21,22
 313 608 313 608 360.5 564.5 c 128,-1,23
 408 521 408 521 408 440 c 2,24,-1
 408 413 l 1,25,-1
 266 413 l 1,26,-1
 266 441 l 2,27,28
 266 462 266 462 255.5 475 c 128,-1,29
 245 488 245 488 223 488 c 0,30,31
 182 488 182 488 182 452 c 2,32,-1
 182 421 l 2,33,34
 182 399 182 399 197.5 387 c 128,-1,35
 213 375 213 375 253 364 c 0,36,37
 342 340 342 340 382 300 c 128,-1,38
 422 260 422 260 422 188 c 2,39,-1
 422 148 l 2,40,41
 422 70 422 70 370.5 28.5 c 128,-1,42
 319 -13 319 -13 221 -13 c 0,43,0
 121 -13 121 -13 70.5 34 c 128,-1,1
EndSplineSet
Substitution2: "'smcp' Lowercase to Small Capitals in Latin lookup 17 subtable" s.sc
Substitution2: "'aalt' Access All Alternates in Latin lookup 0 subtable" s.sc
EndChar

StartChar: t
Encoding: 116 116 55
Width: 326
GlyphClass: 2
Flags: W
AnchorPoint: "Anchor-19" 242 884 basechar 0
AnchorPoint: "Anchor-18" 149 676 basechar 0
AnchorPoint: "Anchor-16" 150 298 basechar 0
AnchorPoint: "Anchor-15" 194 0 basechar 0
LayerCount: 2
Fore
SplineSet
320 0 m 1,0,1
 266 -14 266 -14 212 -14 c 0,2,3
 60 -14 60 -14 60 158 c 2,4,-1
 60 466 l 1,5,-1
 5 466 l 1,6,-1
 5 594 l 1,7,-1
 60 594 l 1,8,-1
 60 721 l 1,9,-1
 215 721 l 1,10,-1
 215 594 l 1,11,-1
 314 594 l 1,12,-1
 314 466 l 1,13,-1
 215 466 l 1,14,-1
 215 197 l 2,15,16
 215 160 215 160 227.5 143.5 c 128,-1,17
 240 127 240 127 267 127 c 0,18,19
 288 127 288 127 319 131 c 1,20,-1
 320 0 l 1,0,1
EndSplineSet
Substitution2: "'smcp' Lowercase to Small Capitals in Latin lookup 17 subtable" t.sc
Substitution2: "'aalt' Access All Alternates in Latin lookup 0 subtable" t.sc
EndChar

StartChar: u
Encoding: 117 117 56
Width: 480
GlyphClass: 2
Flags: W
AnchorPoint: "Anchor-19" 360 594 basechar 0
AnchorPoint: "Anchor-18" 240 594 basechar 0
AnchorPoint: "Anchor-17" 444 0 basechar 0
AnchorPoint: "Anchor-15" 237 0 basechar 0
LayerCount: 2
Fore
SplineSet
289 594 m 1,0,-1
 444 594 l 1,1,-1
 444 0 l 1,2,-1
 289 0 l 1,3,-1
 289 22 l 1,4,-1
 293 69 l 1,5,-1
 291 69 l 1,6,7
 256 -14 256 -14 172 -14 c 0,8,9
 35 -14 35 -14 35 158 c 2,10,-1
 35 594 l 1,11,-1
 190 594 l 1,12,-1
 190 180 l 2,13,14
 190 150 190 150 202 134 c 128,-1,15
 214 118 214 118 236 118 c 0,16,17
 262 118 262 118 275.5 141 c 128,-1,18
 289 164 289 164 289 200 c 2,19,-1
 289 594 l 1,0,-1
EndSplineSet
Substitution2: "'smcp' Lowercase to Small Capitals in Latin lookup 17 subtable" u.sc
Substitution2: "'aalt' Access All Alternates in Latin lookup 0 subtable" u.sc
EndChar

StartChar: v
Encoding: 118 118 57
Width: 445
GlyphClass: 2
Flags: W
AnchorPoint: "Anchor-18" 223 594 basechar 0
AnchorPoint: "Anchor-15" 223 0 basechar 0
LayerCount: 2
Fore
SplineSet
325 0 m 1,0,-1
 120 0 l 1,1,-1
 2 594 l 1,2,-1
 159 594 l 1,3,-1
 217 223 l 1,4,-1
 221 160 l 1,5,-1
 223 160 l 1,6,-1
 227 223 l 1,7,-1
 285 594 l 1,8,-1
 443 594 l 1,9,-1
 325 0 l 1,0,-1
EndSplineSet
Substitution2: "'smcp' Lowercase to Small Capitals in Latin lookup 17 subtable" v.sc
Substitution2: "'aalt' Access All Alternates in Latin lookup 0 subtable" v.sc
EndChar

StartChar: w
Encoding: 119 119 58
Width: 676
GlyphClass: 2
Flags: W
AnchorPoint: "Anchor-18" 341 594 basechar 0
AnchorPoint: "Anchor-15" 341 0 basechar 0
LayerCount: 2
Fore
SplineSet
288 0 m 1,0,-1
 97 0 l 1,1,-1
 2 594 l 1,2,-1
 159 594 l 1,3,-1
 202 225 l 1,4,-1
 204 160 l 1,5,-1
 207 160 l 1,6,-1
 212 225 l 1,7,-1
 263 594 l 1,8,-1
 413 594 l 1,9,-1
 464 225 l 1,10,-1
 469 160 l 1,11,-1
 472 160 l 1,12,-1
 474 225 l 1,13,-1
 518 594 l 1,14,-1
 674 594 l 1,15,-1
 579 0 l 1,16,-1
 388 0 l 1,17,-1
 342 365 l 1,18,-1
 339 399 l 1,19,-1
 337 399 l 1,20,-1
 334 365 l 1,21,-1
 288 0 l 1,0,-1
EndSplineSet
Substitution2: "'smcp' Lowercase to Small Capitals in Latin lookup 17 subtable" w.sc
Substitution2: "'aalt' Access All Alternates in Latin lookup 0 subtable" w.sc
EndChar

StartChar: x
Encoding: 120 120 59
Width: 466
GlyphClass: 2
Flags: W
AnchorPoint: "Anchor-18" 233 594 basechar 0
AnchorPoint: "Anchor-15" 233 0 basechar 0
LayerCount: 2
Fore
SplineSet
166 0 m 1,0,-1
 2 0 l 1,1,-1
 116 310 l 1,2,-1
 13 594 l 1,3,-1
 177 594 l 1,4,-1
 226 421 l 1,5,-1
 231 390 l 1,6,-1
 234 390 l 1,7,-1
 240 421 l 1,8,-1
 289 594 l 1,9,-1
 453 594 l 1,10,-1
 350 310 l 1,11,-1
 464 0 l 1,12,-1
 300 0 l 1,13,-1
 240 192 l 1,14,-1
 234 219 l 1,15,-1
 231 219 l 1,16,-1
 225 192 l 1,17,-1
 166 0 l 1,0,-1
EndSplineSet
Substitution2: "'smcp' Lowercase to Small Capitals in Latin lookup 17 subtable" x.sc
Substitution2: "'aalt' Access All Alternates in Latin lookup 0 subtable" x.sc
EndChar

StartChar: y
Encoding: 121 121 60
Width: 445
GlyphClass: 2
Flags: W
AnchorPoint: "Anchor-18" 223 594 basechar 0
AnchorPoint: "Anchor-15" 221 -149 basechar 0
LayerCount: 2
Fore
SplineSet
77 -69 m 1,0,1
 128 -55 128 -55 152 -38 c 128,-1,2
 176 -21 176 -21 185 11 c 2,3,-1
 186 15 l 1,4,-1
 125 15 l 1,5,-1
 2 594 l 1,6,-1
 160 594 l 1,7,-1
 218 232 l 1,8,-1
 222 172 l 1,9,-1
 224 172 l 1,10,-1
 228 232 l 1,11,-1
 286 594 l 1,12,-1
 443 594 l 1,13,-1
 328 34 l 2,14,15
 308 -60 308 -60 253 -113.5 c 128,-1,16
 198 -167 198 -167 98 -182 c 1,17,-1
 77 -69 l 1,0,1
EndSplineSet
Substitution2: "'smcp' Lowercase to Small Capitals in Latin lookup 17 subtable" y.sc
Substitution2: "'aalt' Access All Alternates in Latin lookup 0 subtable" y.sc
EndChar

StartChar: z
Encoding: 122 122 61
Width: 394
GlyphClass: 2
Flags: W
AnchorPoint: "Anchor-18" 200 594 basechar 0
AnchorPoint: "Anchor-16" 200 298 basechar 0
AnchorPoint: "Anchor-15" 200 0 basechar 0
LayerCount: 2
Fore
SplineSet
380 0 m 1,0,-1
 14 0 l 1,1,-1
 14 112 l 1,2,-1
 196 466 l 1,3,-1
 29 466 l 1,4,-1
 29 594 l 1,5,-1
 379 594 l 1,6,-1
 379 472 l 1,7,-1
 195 128 l 1,8,-1
 380 128 l 1,9,-1
 380 0 l 1,0,-1
EndSplineSet
Substitution2: "'smcp' Lowercase to Small Capitals in Latin lookup 17 subtable" z.sc
Substitution2: "'aalt' Access All Alternates in Latin lookup 0 subtable" z.sc
EndChar

StartChar: ae
Encoding: 230 230 62
Width: 693
GlyphClass: 2
Flags: W
AnchorPoint: "Anchor-18" 344 594 basechar 0
AnchorPoint: "Anchor-17" 572 7 basechar 0
AnchorPoint: "Anchor-15" 344 0 basechar 0
LayerCount: 2
Fore
SplineSet
57.5 28.5 m 128,-1,1
 22 71 22 71 22 144 c 2,2,-1
 22 189 l 2,3,4
 22 261 22 261 65 305 c 128,-1,5
 108 349 108 349 193 349 c 0,6,7
 238 349 238 349 274 335 c 1,8,-1
 274 417 l 2,9,10
 274 480 274 480 227 480 c 0,11,12
 203 480 203 480 191.5 463 c 128,-1,13
 180 446 180 446 180 422 c 2,14,-1
 180 387 l 1,15,-1
 30 387 l 1,16,-1
 30 415 l 2,17,18
 30 501 30 501 78.5 554.5 c 128,-1,19
 127 608 127 608 227 608 c 0,20,21
 303 608 303 608 347 566 c 1,22,23
 397 608 397 608 475 608 c 0,24,25
 570 608 570 608 620 550.5 c 128,-1,26
 670 493 670 493 670 381 c 2,27,-1
 670 254 l 1,28,-1
 429 254 l 1,29,-1
 429 193 l 2,30,31
 429 110 429 110 475 110 c 0,32,33
 501 110 501 110 511.5 126 c 128,-1,34
 522 142 522 142 523 177 c 2,35,-1
 523 210 l 1,36,-1
 669 210 l 1,37,-1
 669 178 l 2,38,39
 667 87 667 87 616 36.5 c 128,-1,40
 565 -14 565 -14 472 -14 c 0,41,42
 353 -14 353 -14 306 82 c 1,43,44
 266 -14 266 -14 159 -14 c 0,45,0
 93 -14 93 -14 57.5 28.5 c 128,-1,1
429 351 m 1,46,-1
 522 351 l 1,47,-1
 523 408 l 2,48,49
 522 449 522 449 511.5 467 c 128,-1,50
 501 485 501 485 476 485 c 0,51,52
 452 485 452 485 441 466.5 c 128,-1,53
 430 448 430 448 429 409 c 2,54,-1
 429 351 l 1,46,-1
261.5 137.5 m 128,-1,56
 274 159 274 159 274 193 c 2,57,-1
 274 258 l 1,58,59
 248 271 248 271 223 271 c 0,60,61
 174 271 174 271 174 214 c 2,62,-1
 174 169 l 2,63,64
 174 142 174 142 185 129 c 128,-1,65
 196 116 196 116 220 116 c 0,66,55
 249 116 249 116 261.5 137.5 c 128,-1,56
EndSplineSet
Substitution2: "'smcp' Lowercase to Small Capitals in Latin lookup 17 subtable" ae.sc
Substitution2: "'aalt' Access All Alternates in Latin lookup 0 subtable" ae.sc
EndChar

StartChar: oe
Encoding: 339 339 63
Width: 711
GlyphClass: 2
Flags: W
AnchorPoint: "Anchor-19" 235 608 basechar 0
AnchorPoint: "Anchor-18" 351 594 basechar 0
AnchorPoint: "Anchor-17" 583 8 basechar 0
AnchorPoint: "Anchor-16" 235 297 basechar 0
AnchorPoint: "Anchor-15" 351 0 basechar 0
LayerCount: 2
Fore
SplineSet
631.5 551.5 m 128,-1,1
 681 494 681 494 681 381 c 2,2,-1
 681 254 l 1,3,-1
 441 254 l 1,4,-1
 441 226 l 2,5,6
 441 204 441 204 440 194 c 2,7,-1
 440 193 l 2,8,9
 440 110 440 110 487 110 c 0,10,11
 512 110 512 110 522.5 126 c 128,-1,12
 533 142 533 142 534 177 c 2,13,-1
 534 208 l 1,14,-1
 680 208 l 1,15,-1
 680 178 l 2,16,17
 678 87 678 87 627 36.5 c 128,-1,18
 576 -14 576 -14 483 -14 c 0,19,20
 412 -14 412 -14 363 22 c 1,21,22
 316 -15 316 -15 235 -15 c 0,23,24
 133 -15 133 -15 81.5 46 c 128,-1,25
 30 107 30 107 30 226 c 2,26,-1
 30 369 l 2,27,28
 30 488 30 488 81.5 548 c 128,-1,29
 133 608 133 608 235 608 c 0,30,31
 315 608 315 608 363 572 c 1,32,33
 412 609 412 609 487 609 c 0,34,0
 582 609 582 609 631.5 551.5 c 128,-1,1
440 401 m 2,35,36
 441 391 441 391 441 369 c 2,37,-1
 441 351 l 1,38,-1
 534 351 l 1,39,-1
 534 403 l 2,40,41
 534 447 534 447 523.5 466.5 c 128,-1,42
 513 486 513 486 488 486 c 256,43,44
 463 486 463 486 451.5 466 c 128,-1,45
 440 446 440 446 440 404 c 2,46,-1
 440 401 l 2,35,36
285 403 m 2,47,48
 285 480 285 480 235 480 c 256,49,50
 185 480 185 480 185 403 c 2,51,-1
 185 192 l 2,52,53
 185 114 185 114 235 114 c 256,54,55
 285 114 285 114 285 191 c 2,56,-1
 285 403 l 2,47,48
EndSplineSet
Substitution2: "'smcp' Lowercase to Small Capitals in Latin lookup 17 subtable" oe.sc
Substitution2: "'aalt' Access All Alternates in Latin lookup 0 subtable" oe.sc
EndChar

StartChar: eth
Encoding: 240 240 64
Width: 459
GlyphClass: 1
Flags: W
LayerCount: 2
Fore
SplineSet
360 724 m 1,0,1
 435 647 435 647 435 484 c 2,2,-1
 435 230 l 2,3,4
 435 -13 435 -13 229 -13 c 0,5,6
 125 -13 125 -13 74.5 50 c 128,-1,7
 24 113 24 113 24 230 c 2,8,-1
 24 326 l 2,9,10
 24 433 24 433 70 494.5 c 128,-1,11
 116 556 116 556 198 556 c 0,12,13
 258 556 258 556 292 528 c 1,14,15
 289 586 289 586 266 620 c 1,16,-1
 233 584 l 1,17,-1
 179 631 l 1,18,-1
 211 667 l 1,19,20
 185 679 185 679 143 688 c 1,21,-1
 201 800 l 1,22,23
 260 789 260 789 300 768 c 1,24,-1
 336 808 l 1,25,-1
 392 760 l 1,26,-1
 360 724 l 1,0,1
280 353 m 2,27,28
 280 385 280 385 268.5 406.5 c 128,-1,29
 257 428 257 428 229 428 c 0,30,31
 179 428 179 428 179 349 c 2,32,-1
 179 194 l 2,33,34
 179 154 179 154 190.5 134 c 128,-1,35
 202 114 202 114 229 114 c 256,36,37
 256 114 256 114 268 135.5 c 128,-1,38
 280 157 280 157 280 193 c 2,39,-1
 280 353 l 2,27,28
EndSplineSet
Substitution2: "'smcp' Lowercase to Small Capitals in Latin lookup 17 subtable" eth.sc
Substitution2: "'aalt' Access All Alternates in Latin lookup 0 subtable" eth.sc
EndChar

StartChar: thorn
Encoding: 254 254 65
Width: 477
GlyphClass: 2
Flags: W
AnchorPoint: "Anchor-18" 232 766 basechar 0
AnchorPoint: "Anchor-15" 232 0 basechar 0
LayerCount: 2
Fore
SplineSet
415 549 m 128,-1,1
 447 490 447 490 447 364 c 2,2,-1
 447 235 l 2,3,4
 447 105 447 105 415 45.5 c 128,-1,5
 383 -14 383 -14 307 -14 c 0,6,7
 267 -14 267 -14 235.5 7.5 c 128,-1,8
 204 29 204 29 188 68 c 1,9,-1
 185 68 l 1,10,-1
 191 24 l 1,11,-1
 191 -178 l 1,12,-1
 36 -178 l 1,13,-1
 36 766 l 1,14,-1
 191 766 l 1,15,-1
 191 576 l 1,16,-1
 185 526 l 1,17,-1
 189 526 l 1,18,19
 206 567 206 567 236.5 587.5 c 128,-1,20
 267 608 267 608 307 608 c 0,21,0
 383 608 383 608 415 549 c 128,-1,1
292 381 m 2,22,23
 292 428 292 428 282.5 454 c 128,-1,24
 273 480 273 480 243 480 c 256,25,26
 213 480 213 480 202 454.5 c 128,-1,27
 191 429 191 429 191 386 c 2,28,-1
 191 204 l 2,29,30
 191 114 191 114 243 114 c 0,31,32
 273 114 273 114 282.5 137 c 128,-1,33
 292 160 292 160 292 210 c 2,34,-1
 292 381 l 2,22,23
EndSplineSet
Substitution2: "'smcp' Lowercase to Small Capitals in Latin lookup 17 subtable" thorn.sc
Substitution2: "'aalt' Access All Alternates in Latin lookup 0 subtable" thorn.sc
EndChar

StartChar: germandbls
Encoding: 223 223 66
Width: 464
GlyphClass: 2
Flags: W
AnchorPoint: "Anchor-18" 232 594 basechar 0
AnchorPoint: "Anchor-15" 232 0 basechar 0
LayerCount: 2
Fore
SplineSet
30 587 m 2,0,1
 30 685 30 685 79 732 c 128,-1,2
 128 779 128 779 225 779 c 256,3,4
 322 779 322 779 370.5 734 c 128,-1,5
 419 689 419 689 419 608 c 2,6,-1
 419 556 l 2,7,8
 419 505 419 505 408.5 474 c 128,-1,9
 398 443 398 443 374 421 c 1,10,11
 408 402 408 402 421 369 c 128,-1,12
 434 336 434 336 434 283 c 2,13,-1
 434 199 l 2,14,15
 434 103 434 103 386.5 51.5 c 128,-1,16
 339 0 339 0 250 0 c 2,17,-1
 213 0 l 1,18,-1
 213 133 l 1,19,-1
 222 133 l 2,20,21
 246 133 246 133 259.5 146 c 128,-1,22
 273 159 273 159 273 192 c 2,23,-1
 273 304 l 2,24,25
 273 354 273 354 224 354 c 2,26,-1
 212 354 l 1,27,-1
 212 479 l 1,28,-1
 220 479 l 2,29,30
 245 479 245 479 258 492.5 c 128,-1,31
 271 506 271 506 271 543 c 2,32,-1
 271 593 l 2,33,34
 271 619 271 619 259 632 c 128,-1,35
 247 645 247 645 225 645 c 0,36,37
 178 645 178 645 178 587 c 2,38,-1
 178 0 l 1,39,-1
 30 0 l 1,40,-1
 30 587 l 2,0,1
EndSplineSet
Substitution2: "'smcp' Lowercase to Small Capitals in Latin lookup 17 subtable" germandbls.sc
Substitution2: "'aalt' Access All Alternates in Latin lookup 0 subtable" germandbls.sc
EndChar

StartChar: zero
Encoding: 48 48 67
Width: 496
GlyphClass: 2
Flags: W
LayerCount: 2
Fore
SplineSet
493.11328125 92.3447265625 m 0,0,1
 491.001953125 82.03125 491.001953125 82.03125 487.299804688 60.80859375 c 128,-1,2
 483.598632812 39.5849609375 483.598632812 39.5849609375 480.205078125 24.06640625 c 128,-1,3
 476.8125 8.548828125 476.8125 8.548828125 472.250976562 -5.1474609375 c 0,4,5
 433.91015625 -120.276367188 433.91015625 -120.276367188 314.65234375 -143.901367188 c 0,6,7
 238.017578125 -159.081054688 238.017578125 -159.081054688 168.069335938 -140.556640625 c 0,8,9
 100.049804688 -122.549804688 100.049804688 -122.549804688 58.208984375 -69.662109375 c 128,-1,10
 16.3681640625 -16.7734375 16.3681640625 -16.7734375 7.208984375 62.763671875 c 0,11,12
 2.548828125 103.224609375 2.548828125 103.224609375 2.380859375 145.556640625 c 0,13,14
 1.27734375 422.356445312 1.27734375 422.356445312 3.7724609375 488.079101562 c 0,15,16
 6.1416015625 550.456054688 6.1416015625 550.456054688 34.0595703125 626.559570312 c 0,17,18
 65.2109375 711.48046875 65.2109375 711.48046875 162.172851562 738.559570312 c 0,19,20
 251.62890625 763.541992188 251.62890625 763.541992188 337.669921875 737.65234375 c 0,21,22
 456.6484375 701.8515625 456.6484375 701.8515625 486.616210938 554.75 c 0,23,24
 493.668945312 520.169921875 493.668945312 520.169921875 493.729492188 500.013671875 c 0,25,26
 494.138671875 359.505859375 494.138671875 359.505859375 493.11328125 92.3447265625 c 0,0,1
306.66796875 515.440429688 m 0,27,28
 304.52734375 527.177734375 304.52734375 527.177734375 304.4140625 527.70703125 c 0,29,30
 293.7890625 577.567382812 293.7890625 577.567382812 252.90625 579.083984375 c 0,31,32
 206.166992188 580.817382812 206.166992188 580.817382812 194.063476562 530.576171875 c 0,33,34
 188.671875 508.194335938 188.671875 508.194335938 188.610351562 485.84765625 c 0,35,36
 187.930664062 239.727539062 187.930664062 239.727539062 189.173828125 113.541992188 c 0,37,38
 189.4609375 84.4111328125 189.4609375 84.4111328125 201.782226562 50.291015625 c 0,39,40
 212.625976562 20.263671875 212.625976562 20.263671875 251.649414062 21.2412109375 c 0,41,42
 285.579101562 22.0947265625 285.579101562 22.0947265625 297.458984375 52.83203125 c 0,43,44
 308.30078125 80.8779296875 308.30078125 80.8779296875 308.35546875 96.177734375 c 0,45,46
 309.038085938 291.250976562 309.038085938 291.250976562 306.66796875 515.440429688 c 0,27,28
601.723632812 -638.728515625 m 1026,47,-1
EndSplineSet
EndChar

StartChar: one
Encoding: 49 49 68
Width: 282
GlyphClass: 1
Flags: W
LayerCount: 2
Fore
SplineSet
99.7314453125 204.862304688 m 1,0,-1
 99.7314453125 520.834960938 l 1,1,2
 72.05078125 510.177734375 72.05078125 510.177734375 1.3125 482.94140625 c 1,3,4
 1.3125 612.314453125 1.3125 612.314453125 1.7783203125 644.469726562 c 0,5,6
 1.8291015625 647.98046875 1.8291015625 647.98046875 5.302734375 652.483398438 c 128,-1,7
 8.775390625 656.986328125 8.775390625 656.986328125 12.1474609375 658.012695312 c 0,8,9
 84.8173828125 680.1328125 84.8173828125 680.1328125 124.12890625 742.700195312 c 0,10,11
 128.8671875 750.241210938 128.8671875 750.241210938 137.990234375 750.353515625 c 0,12,13
 165.569335938 750.694335938 165.569335938 750.694335938 277.123046875 750.694335938 c 1,14,-1
 277.123046875 -150.739257812 l 1,15,-1
 99.7314453125 -150.739257812 l 1,16,-1
 99.7314453125 204.862304688 l 1,0,-1
EndSplineSet
EndChar

StartChar: two
Encoding: 50 50 69
Width: 501
GlyphClass: 1
Flags: W
LayerCount: 2
Fore
SplineSet
446.709960938 641.813476562 m 1,0,1
 460.912109375 606.927734375 460.912109375 606.927734375 466.07421875 563.465820312 c 0,2,3
 488.614257812 373.888671875 488.614257812 373.888671875 360.456054688 190.684570312 c 0,4,5
 353.936523438 181.365234375 353.936523438 181.365234375 240.509765625 22.2021484375 c 1,6,-1
 470.315429688 22.2021484375 l 1,7,-1
 470.315429688 -150.739257812 l 1,8,-1
 8.29296875 -150.739257812 l 1,9,10
 8.29296875 -21.37109375 8.29296875 -21.37109375 9.197265625 2.3740234375 c 0,11,12
 9.3662109375 6.7998046875 9.3662109375 6.7998046875 12.26171875 11.4404296875 c 128,-1,13
 15.158203125 16.0810546875 15.158203125 16.0810546875 20.865234375 22.4248046875 c 128,-1,14
 26.5712890625 28.767578125 26.5712890625 28.767578125 28.3515625 31.1328125 c 0,15,16
 47.353515625 56.3681640625 47.353515625 56.3681640625 86.29296875 107.393554688 c 128,-1,17
 125.233398438 158.418945312 125.233398438 158.418945312 155.373046875 198.599609375 c 128,-1,18
 185.512695312 238.780273438 185.512695312 238.780273438 212.106445312 275.8125 c 0,19,20
 279.532226562 369.70703125 279.532226562 369.70703125 287.287109375 457.73046875 c 0,21,22
 290.52734375 494.517578125 290.52734375 494.517578125 285.584960938 534.576171875 c 0,23,24
 280.685546875 574.286132812 280.685546875 574.286132812 243.15234375 576.334960938 c 0,25,26
 220.283203125 577.583007812 220.283203125 577.583007812 207.70703125 570.032226562 c 128,-1,27
 195.130859375 562.48046875 195.130859375 562.48046875 190.083984375 542.290039062 c 0,28,29
 186.786132812 529.096679688 186.786132812 529.096679688 184.56640625 514.282226562 c 128,-1,30
 182.345703125 499.467773438 182.345703125 499.467773438 180.104492188 479.254882812 c 128,-1,31
 177.862304688 459.041015625 177.862304688 459.041015625 176.487304688 449.072265625 c 1,32,-1
 11.2607421875 449.072265625 l 1,33,34
 2.5517578125 512.744140625 2.5517578125 512.744140625 12.990234375 568.268554688 c 128,-1,35
 23.4296875 623.79296875 23.4296875 623.79296875 52.041015625 666.447265625 c 128,-1,36
 80.6533203125 709.100585938 80.6533203125 709.100585938 133.2578125 731.795898438 c 128,-1,37
 185.861328125 754.491210938 185.861328125 754.491210938 256.358398438 750.012695312 c 0,38,39
 347.750976562 744.206054688 347.750976562 744.206054688 396.040039062 702.602539062 c 0,40,41
 425.69140625 677.0546875 425.69140625 677.0546875 446.709960938 641.813476562 c 1,0,1
EndSplineSet
EndChar

StartChar: three
Encoding: 51 51 70
Width: 1308
GlyphClass: 1
Flags: W
LayerCount: 2
Fore
SplineSet
1283 462 m 1,0,-1
 1283 269 l 1,1,-1
 29 269 l 1,2,-1
 29 462 l 1,3,-1
 515 462 l 1,4,5
 519 518 519 518 559.5 556 c 128,-1,6
 600 594 600 594 656 594 c 256,7,8
 712 594 712 594 752.5 556 c 128,-1,9
 793 518 793 518 797 462 c 1,10,-1
 1283 462 l 1,0,-1
741 547 m 1,11,12
 703 580 703 580 656 580 c 0,13,14
 607 580 607 580 571 547 c 1,15,-1
 741 547 l 1,11,12
754 371 m 1,16,17
 783 406 783 406 783 452 c 0,18,19
 783 500 783 500 751 537 c 1,20,-1
 585 371 l 1,21,-1
 754 371 l 1,16,17
557 533 m 1,22,23
 528 498 528 498 528 452 c 0,24,25
 528 403 528 403 561 367 c 1,26,-1
 728 533 l 1,27,-1
 557 533 l 1,22,23
920 321 m 128,-1,29
 939 339 939 339 939 367 c 0,30,31
 939 394 939 394 920 412 c 128,-1,32
 901 430 901 430 873 430 c 256,33,34
 845 430 845 430 826.5 412 c 128,-1,35
 808 394 808 394 808 367 c 0,36,37
 808 339 808 339 826.5 321 c 128,-1,38
 845 303 845 303 873 303 c 256,39,28
 901 303 901 303 920 321 c 128,-1,29
120 392 m 1,40,-1
 148 392 l 1,41,-1
 148 427 l 1,42,-1
 52 427 l 1,43,-1
 52 392 l 1,44,-1
 81 392 l 1,45,-1
 81 306 l 1,46,-1
 120 306 l 1,47,-1
 120 392 l 1,40,-1
217 306 m 1,48,-1
 258 306 l 1,49,-1
 237 352 l 1,50,51
 251 364 251 364 251 384 c 0,52,53
 251 402 251 402 237.5 414.5 c 128,-1,54
 224 427 224 427 205 427 c 2,55,-1
 155 427 l 1,56,-1
 155 306 l 1,57,-1
 194 306 l 1,58,-1
 194 341 l 1,59,-1
 202 341 l 1,60,-1
 217 306 l 1,48,-1
264 306 m 1,61,-1
 302 306 l 1,62,-1
 302 427 l 1,63,-1
 264 427 l 1,64,-1
 264 306 l 1,61,-1
389 325 m 1,65,-1
 394 306 l 1,66,-1
 436 306 l 1,67,-1
 395 427 l 1,68,-1
 350 427 l 1,69,-1
 309 306 l 1,70,-1
 350 306 l 1,71,-1
 355 325 l 1,72,-1
 389 325 l 1,65,-1
443 306 m 1,73,-1
 525 306 l 1,74,-1
 525 339 l 1,75,-1
 482 339 l 1,76,-1
 482 427 l 1,77,-1
 443 427 l 1,78,-1
 443 306 l 1,73,-1
1023 306 m 1,79,-1
 1063 306 l 1,80,-1
 1063 427 l 1,81,-1
 1024 427 l 1,82,-1
 1024 363 l 1,83,-1
 987 427 l 1,84,-1
 947 427 l 1,85,-1
 947 306 l 1,86,-1
 986 306 l 1,87,-1
 985 365 l 1,88,-1
 1023 306 l 1,79,-1
1075 306 m 1,89,-1
 1157 306 l 1,90,-1
 1157 339 l 1,91,-1
 1114 339 l 1,92,-1
 1114 427 l 1,93,-1
 1075 427 l 1,94,-1
 1075 306 l 1,89,-1
1218 306 m 1,95,-1
 1218 354 l 1,96,-1
 1259 427 l 1,97,-1
 1214 427 l 1,98,-1
 1198 391 l 1,99,-1
 1183 427 l 1,100,-1
 1137 427 l 1,101,-1
 1179 354 l 1,102,-1
 1179 306 l 1,103,-1
 1218 306 l 1,95,-1
892.5 387 m 128,-1,105
 900 379 900 379 900 367 c 0,106,107
 900 354 900 354 892.5 346 c 128,-1,108
 885 338 885 338 873 338 c 0,109,110
 862 338 862 338 854 346 c 128,-1,111
 846 354 846 354 846 367 c 0,112,113
 846 379 846 379 854 387 c 128,-1,114
 862 395 862 395 873 395 c 0,115,104
 885 395 885 395 892.5 387 c 128,-1,105
204 394 m 2,116,117
 207 394 207 394 209.5 391 c 128,-1,118
 212 388 212 388 212 384 c 256,119,120
 212 380 212 380 209.5 376.5 c 128,-1,121
 207 373 207 373 204 373 c 2,122,-1
 194 373 l 1,123,-1
 194 394 l 1,124,-1
 204 394 l 2,116,117
363 357 m 1,125,-1
 371 386 l 1,126,-1
 372 386 l 1,127,-1
 380 357 l 1,128,-1
 363 357 l 1,125,-1
571 357 m 1,129,130
 608 325 608 325 656 325 c 256,131,132
 704 325 704 325 741 357 c 1,133,-1
 571 357 l 1,129,130
512 176 m 1,134,135
 524 169 524 169 538 169 c 0,136,137
 549 169 549 169 556.5 175 c 128,-1,138
 564 181 564 181 564 192 c 0,139,140
 564 205 564 205 541 214 c 0,141,142
 532 217 532 217 528.5 219.5 c 128,-1,143
 525 222 525 222 525 227 c 256,144,145
 525 232 525 232 529 235 c 128,-1,146
 533 238 533 238 539 238 c 0,147,148
 550 238 550 238 559 231 c 1,149,-1
 559 244 l 1,150,151
 549 249 549 249 539 249 c 0,152,153
 527 249 527 249 520 243 c 128,-1,154
 513 237 513 237 513 227 c 0,155,156
 513 218 513 218 518 213.5 c 128,-1,157
 523 209 523 209 535 204 c 0,158,159
 552 199 552 199 552 192 c 0,160,161
 552 180 552 180 538 180 c 0,162,163
 525 180 525 180 512 189 c 1,164,-1
 512 176 l 1,134,135
612.5 180.5 m 128,-1,166
 624 169 624 169 641 169 c 256,167,168
 658 169 658 169 669.5 180.5 c 128,-1,169
 681 192 681 192 681 209 c 256,170,171
 681 226 681 226 669.5 237.5 c 128,-1,172
 658 249 658 249 641 249 c 256,173,174
 624 249 624 249 612.5 237.5 c 128,-1,175
 601 226 601 226 601 209 c 256,176,165
 601 192 601 192 612.5 180.5 c 128,-1,166
760 168 m 1,177,-1
 760 247 l 1,178,-1
 748 247 l 1,179,-1
 748 193 l 1,180,-1
 699 248 l 1,181,-1
 693 248 l 1,182,-1
 693 170 l 1,183,-1
 705 170 l 1,184,-1
 705 222 l 1,185,-1
 754 168 l 1,186,-1
 760 168 l 1,177,-1
78 247 m 1,187,-1
 28 247 l 1,188,-1
 28 170 l 1,189,-1
 40 170 l 1,190,-1
 40 199 l 1,191,-1
 73 199 l 1,192,-1
 73 210 l 1,193,-1
 40 210 l 1,194,-1
 40 236 l 1,195,-1
 78 236 l 1,196,-1
 78 247 l 1,187,-1
88 200 m 2,197,198
 88 187 88 187 97 178 c 128,-1,199
 106 169 106 169 119 169 c 0,200,201
 133 169 133 169 142 177.5 c 128,-1,202
 151 186 151 186 151 200 c 2,203,-1
 151 247 l 1,204,-1
 139 247 l 1,205,-1
 139 200 l 2,206,207
 139 192 139 192 133 186 c 128,-1,208
 127 180 127 180 119 180 c 256,209,210
 111 180 111 180 105.5 185.5 c 128,-1,211
 100 191 100 191 100 200 c 2,212,-1
 100 247 l 1,213,-1
 88 247 l 1,214,-1
 88 200 l 2,197,198
178 247 m 1,215,-1
 166 247 l 1,216,-1
 166 170 l 1,217,-1
 213 170 l 1,218,-1
 213 181 l 1,219,-1
 178 181 l 1,220,-1
 178 247 l 1,215,-1
236 247 m 1,221,-1
 224 247 l 1,222,-1
 224 170 l 1,223,-1
 272 170 l 1,224,-1
 272 181 l 1,225,-1
 236 181 l 1,226,-1
 236 247 l 1,221,-1
344 170 m 1,227,-1
 376 247 l 1,228,-1
 362 247 l 1,229,-1
 340 190 l 1,230,-1
 318 247 l 1,231,-1
 304 247 l 1,232,-1
 336 170 l 1,233,-1
 344 170 l 1,227,-1
436 247 m 1,234,-1
 386 247 l 1,235,-1
 386 170 l 1,236,-1
 436 170 l 1,237,-1
 436 181 l 1,238,-1
 398 181 l 1,239,-1
 398 204 l 1,240,-1
 431 204 l 1,241,-1
 431 214 l 1,242,-1
 398 214 l 1,243,-1
 398 236 l 1,244,-1
 436 236 l 1,245,-1
 436 247 l 1,234,-1
492 170 m 1,246,-1
 506 170 l 1,247,-1
 491 201 l 1,248,249
 503 208 503 208 503 222 c 0,250,251
 503 233 503 233 496 240 c 128,-1,252
 489 247 489 247 478 247 c 2,253,-1
 449 247 l 1,254,-1
 449 170 l 1,255,-1
 461 170 l 1,256,-1
 461 198 l 1,257,-1
 479 198 l 1,258,-1
 492 170 l 1,246,-1
588 247 m 1,259,-1
 576 247 l 1,260,-1
 576 170 l 1,261,-1
 588 170 l 1,262,-1
 588 247 l 1,259,-1
660 188 m 128,-1,264
 652 180 652 180 641 180 c 0,265,266
 629 180 629 180 621 188 c 128,-1,267
 613 196 613 196 613 209 c 0,268,269
 613 221 613 221 621 229 c 128,-1,270
 629 237 629 237 641 237 c 0,271,272
 652 237 652 237 660 229 c 128,-1,273
 668 221 668 221 668 209 c 0,274,263
 668 196 668 196 660 188 c 128,-1,264
487 212 m 128,-1,276
 483 208 483 208 478 208 c 2,277,-1
 461 208 l 1,278,-1
 461 236 l 1,279,-1
 478 236 l 2,280,281
 483 236 483 236 487 232 c 128,-1,282
 491 228 491 228 491 222 c 256,283,275
 491 216 491 216 487 212 c 128,-1,276
1247 183 m 1,284,-1
 1272 207 l 1,285,-1
 1247 231 l 1,286,-1
 1239 224 l 1,287,-1
 1252 213 l 1,288,-1
 794 213 l 1,289,-1
 794 201 l 1,290,-1
 1252 201 l 1,291,-1
 1239 190 l 1,292,-1
 1247 183 l 1,284,-1
508 53.5 m 128,-1,294
 525 37 525 37 550 37 c 256,295,296
 575 37 575 37 592 53.5 c 128,-1,297
 609 70 609 70 609 95 c 0,298,299
 609 119 609 119 592 135.5 c 128,-1,300
 575 152 575 152 550 152 c 256,301,302
 525 152 525 152 508 135.5 c 128,-1,303
 491 119 491 119 491 95 c 0,304,293
 491 70 491 70 508 53.5 c 128,-1,294
818 47 m 1,305,306
 834 37 834 37 856 37 c 0,307,308
 875 37 875 37 887.5 47 c 128,-1,309
 900 57 900 57 900 74 c 0,310,311
 900 101 900 101 864 109 c 0,312,313
 861 110 861 110 857 111 c 128,-1,314
 853 112 853 112 851.5 113.5 c 128,-1,315
 850 115 850 115 850 117 c 0,316,317
 850 121 850 121 861 121 c 0,318,319
 868 121 868 121 877.5 118 c 128,-1,320
 887 115 887 115 893 110 c 1,321,-1
 893 144 l 1,322,323
 875 152 875 152 861 152 c 0,324,325
 840 152 840 152 828 143 c 128,-1,326
 816 134 816 134 816 118 c 0,327,328
 816 104 816 104 823.5 96.5 c 128,-1,329
 831 89 831 89 848 83 c 0,330,331
 851 82 851 82 858 80 c 128,-1,332
 865 78 865 78 865 74 c 0,333,334
 865 68 865 68 856 68 c 0,335,336
 843 68 843 68 818 84 c 1,337,-1
 818 47 l 1,305,306
963 53.5 m 128,-1,339
 980 37 980 37 1004 37 c 0,340,341
 1016 37 1016 37 1030 44 c 1,342,-1
 1031 79 l 1,343,344
 1021 69 1021 69 1006 69 c 0,345,346
 995 69 995 69 988 76.5 c 128,-1,347
 981 84 981 84 981 95 c 256,348,349
 981 106 981 106 988.5 113 c 128,-1,350
 996 120 996 120 1006 120 c 256,351,352
 1016 120 1016 120 1028 113 c 1,353,-1
 1028 146 l 1,354,355
 1018 152 1018 152 1005 152 c 0,356,357
 980 152 980 152 963 135.5 c 128,-1,358
 946 119 946 119 946 95 c 0,359,338
 946 70 946 70 963 53.5 c 128,-1,339
1051 53.5 m 128,-1,361
 1068 37 1068 37 1094 37 c 0,362,363
 1119 37 1119 37 1136 53.5 c 128,-1,364
 1153 70 1153 70 1153 95 c 0,365,366
 1153 119 1153 119 1136 135.5 c 128,-1,367
 1119 152 1119 152 1094 152 c 256,368,369
 1069 152 1069 152 1051.5 135.5 c 128,-1,370
 1034 119 1034 119 1034 95 c 0,371,360
 1034 70 1034 70 1051 53.5 c 128,-1,361
29 118 m 1,372,-1
 65 118 l 1,373,-1
 24 40 l 1,374,-1
 119 40 l 1,375,-1
 119 71 l 1,376,-1
 81 71 l 1,377,-1
 122 149 l 1,378,-1
 29 149 l 1,379,-1
 29 118 l 1,372,-1
208 149 m 1,380,-1
 129 149 l 1,381,-1
 129 40 l 1,382,-1
 209 40 l 1,383,-1
 209 70 l 1,384,-1
 164 70 l 1,385,-1
 164 80 l 1,386,-1
 202 80 l 1,387,-1
 202 110 l 1,388,-1
 164 110 l 1,389,-1
 164 119 l 1,390,-1
 208 119 l 1,391,-1
 208 149 l 1,380,-1
213 118 m 1,392,-1
 239 118 l 1,393,-1
 239 40 l 1,394,-1
 274 40 l 1,395,-1
 274 118 l 1,396,-1
 300 118 l 1,397,-1
 300 149 l 1,398,-1
 213 149 l 1,399,-1
 213 118 l 1,392,-1
329 57 m 1,400,-1
 360 57 l 1,401,-1
 364 40 l 1,402,-1
 402 40 l 1,403,-1
 365 149 l 1,404,-1
 325 149 l 1,405,-1
 288 40 l 1,406,-1
 324 40 l 1,407,-1
 329 57 l 1,400,-1
487 149 m 1,408,-1
 408 149 l 1,409,-1
 408 40 l 1,410,-1
 443 40 l 1,411,-1
 443 74 l 1,412,-1
 480 74 l 1,413,-1
 480 103 l 1,414,-1
 443 103 l 1,415,-1
 443 119 l 1,416,-1
 487 119 l 1,417,-1
 487 149 l 1,408,-1
721 40 m 1,418,-1
 721 149 l 1,419,-1
 686 149 l 1,420,-1
 686 91 l 1,421,-1
 653 149 l 1,422,-1
 617 149 l 1,423,-1
 617 40 l 1,424,-1
 652 40 l 1,425,-1
 651 93 l 1,426,-1
 685 40 l 1,427,-1
 721 40 l 1,418,-1
727 118 m 1,428,-1
 753 118 l 1,429,-1
 753 40 l 1,430,-1
 788 40 l 1,431,-1
 788 118 l 1,432,-1
 813 118 l 1,433,-1
 813 149 l 1,434,-1
 727 149 l 1,435,-1
 727 118 l 1,428,-1
1195 149 m 1,436,-1
 1160 149 l 1,437,-1
 1160 40 l 1,438,-1
 1195 40 l 1,439,-1
 1195 83 l 1,440,-1
 1209 56 l 1,441,-1
 1234 56 l 1,442,-1
 1248 83 l 1,443,-1
 1248 40 l 1,444,-1
 1282 40 l 1,445,-1
 1282 149 l 1,446,-1
 1247 149 l 1,447,-1
 1221 99 l 1,448,-1
 1195 149 l 1,436,-1
567 76.5 m 128,-1,450
 560 69 560 69 550 69 c 256,451,452
 540 69 540 69 533 76.5 c 128,-1,453
 526 84 526 84 526 95 c 256,454,455
 526 106 526 106 533 113 c 128,-1,456
 540 120 540 120 550 120 c 256,457,458
 560 120 560 120 567 113 c 128,-1,459
 574 106 574 106 574 95 c 256,460,449
 574 84 574 84 567 76.5 c 128,-1,450
1111 76.5 m 128,-1,462
 1104 69 1104 69 1094 69 c 0,463,464
 1083 69 1083 69 1076 76.5 c 128,-1,465
 1069 84 1069 84 1069 95 c 256,466,467
 1069 106 1069 106 1076.5 113 c 128,-1,468
 1084 120 1084 120 1094 120 c 256,469,470
 1104 120 1104 120 1111 112.5 c 128,-1,471
 1118 105 1118 105 1118 95 c 0,472,461
 1118 84 1118 84 1111 76.5 c 128,-1,462
345 112 m 1,473,-1
 352 86 l 1,474,-1
 337 86 l 1,475,-1
 344 112 l 1,476,-1
 345 112 l 1,473,-1
910 42 m 128,-1,478
 915 37 915 37 923 37 c 0,479,480
 930 37 930 37 935 42 c 128,-1,481
 940 47 940 47 940 54 c 256,482,483
 940 61 940 61 935 65.5 c 128,-1,484
 930 70 930 70 923 70 c 0,485,486
 915 70 915 70 910 65.5 c 128,-1,487
 905 61 905 61 905 54 c 256,488,477
 905 47 905 47 910 42 c 128,-1,478
EndSplineSet
EndChar

StartChar: four
Encoding: 52 52 71
Width: 1308
GlyphClass: 1
Flags: W
LayerCount: 2
Fore
SplineSet
1283 462 m 1,0,-1
 1283 269 l 1,1,-1
 29 269 l 1,2,-1
 29 462 l 1,3,-1
 515 462 l 1,4,5
 519 518 519 518 559.5 556 c 128,-1,6
 600 594 600 594 656 594 c 256,7,8
 712 594 712 594 752.5 556 c 128,-1,9
 793 518 793 518 797 462 c 1,10,-1
 1283 462 l 1,0,-1
741 547 m 1,11,12
 703 580 703 580 656 580 c 0,13,14
 607 580 607 580 571 547 c 1,15,-1
 741 547 l 1,11,12
754 371 m 1,16,17
 783 406 783 406 783 452 c 0,18,19
 783 500 783 500 751 537 c 1,20,-1
 585 371 l 1,21,-1
 754 371 l 1,16,17
557 533 m 1,22,23
 528 498 528 498 528 452 c 0,24,25
 528 403 528 403 561 367 c 1,26,-1
 728 533 l 1,27,-1
 557 533 l 1,22,23
920 321 m 128,-1,29
 939 339 939 339 939 367 c 0,30,31
 939 394 939 394 920 412 c 128,-1,32
 901 430 901 430 873 430 c 256,33,34
 845 430 845 430 826.5 412 c 128,-1,35
 808 394 808 394 808 367 c 0,36,37
 808 339 808 339 826.5 321 c 128,-1,38
 845 303 845 303 873 303 c 256,39,28
 901 303 901 303 920 321 c 128,-1,29
120 392 m 1,40,-1
 148 392 l 1,41,-1
 148 427 l 1,42,-1
 52 427 l 1,43,-1
 52 392 l 1,44,-1
 81 392 l 1,45,-1
 81 306 l 1,46,-1
 120 306 l 1,47,-1
 120 392 l 1,40,-1
217 306 m 1,48,-1
 258 306 l 1,49,-1
 237 352 l 1,50,51
 251 364 251 364 251 384 c 0,52,53
 251 402 251 402 237.5 414.5 c 128,-1,54
 224 427 224 427 205 427 c 2,55,-1
 155 427 l 1,56,-1
 155 306 l 1,57,-1
 194 306 l 1,58,-1
 194 341 l 1,59,-1
 202 341 l 1,60,-1
 217 306 l 1,48,-1
264 306 m 1,61,-1
 302 306 l 1,62,-1
 302 427 l 1,63,-1
 264 427 l 1,64,-1
 264 306 l 1,61,-1
389 325 m 1,65,-1
 394 306 l 1,66,-1
 436 306 l 1,67,-1
 395 427 l 1,68,-1
 350 427 l 1,69,-1
 309 306 l 1,70,-1
 350 306 l 1,71,-1
 355 325 l 1,72,-1
 389 325 l 1,65,-1
443 306 m 1,73,-1
 525 306 l 1,74,-1
 525 339 l 1,75,-1
 482 339 l 1,76,-1
 482 427 l 1,77,-1
 443 427 l 1,78,-1
 443 306 l 1,73,-1
1023 306 m 1,79,-1
 1063 306 l 1,80,-1
 1063 427 l 1,81,-1
 1024 427 l 1,82,-1
 1024 363 l 1,83,-1
 987 427 l 1,84,-1
 947 427 l 1,85,-1
 947 306 l 1,86,-1
 986 306 l 1,87,-1
 985 365 l 1,88,-1
 1023 306 l 1,79,-1
1075 306 m 1,89,-1
 1157 306 l 1,90,-1
 1157 339 l 1,91,-1
 1114 339 l 1,92,-1
 1114 427 l 1,93,-1
 1075 427 l 1,94,-1
 1075 306 l 1,89,-1
1218 306 m 1,95,-1
 1218 354 l 1,96,-1
 1259 427 l 1,97,-1
 1214 427 l 1,98,-1
 1198 391 l 1,99,-1
 1183 427 l 1,100,-1
 1137 427 l 1,101,-1
 1179 354 l 1,102,-1
 1179 306 l 1,103,-1
 1218 306 l 1,95,-1
892.5 387 m 128,-1,105
 900 379 900 379 900 367 c 0,106,107
 900 354 900 354 892.5 346 c 128,-1,108
 885 338 885 338 873 338 c 0,109,110
 862 338 862 338 854 346 c 128,-1,111
 846 354 846 354 846 367 c 0,112,113
 846 379 846 379 854 387 c 128,-1,114
 862 395 862 395 873 395 c 0,115,104
 885 395 885 395 892.5 387 c 128,-1,105
204 394 m 2,116,117
 207 394 207 394 209.5 391 c 128,-1,118
 212 388 212 388 212 384 c 256,119,120
 212 380 212 380 209.5 376.5 c 128,-1,121
 207 373 207 373 204 373 c 2,122,-1
 194 373 l 1,123,-1
 194 394 l 1,124,-1
 204 394 l 2,116,117
363 357 m 1,125,-1
 371 386 l 1,126,-1
 372 386 l 1,127,-1
 380 357 l 1,128,-1
 363 357 l 1,125,-1
571 357 m 1,129,130
 608 325 608 325 656 325 c 256,131,132
 704 325 704 325 741 357 c 1,133,-1
 571 357 l 1,129,130
512 176 m 1,134,135
 524 169 524 169 538 169 c 0,136,137
 549 169 549 169 556.5 175 c 128,-1,138
 564 181 564 181 564 192 c 0,139,140
 564 205 564 205 541 214 c 0,141,142
 532 217 532 217 528.5 219.5 c 128,-1,143
 525 222 525 222 525 227 c 256,144,145
 525 232 525 232 529 235 c 128,-1,146
 533 238 533 238 539 238 c 0,147,148
 550 238 550 238 559 231 c 1,149,-1
 559 244 l 1,150,151
 549 249 549 249 539 249 c 0,152,153
 527 249 527 249 520 243 c 128,-1,154
 513 237 513 237 513 227 c 0,155,156
 513 218 513 218 518 213.5 c 128,-1,157
 523 209 523 209 535 204 c 0,158,159
 552 199 552 199 552 192 c 0,160,161
 552 180 552 180 538 180 c 0,162,163
 525 180 525 180 512 189 c 1,164,-1
 512 176 l 1,134,135
612.5 180.5 m 128,-1,166
 624 169 624 169 641 169 c 256,167,168
 658 169 658 169 669.5 180.5 c 128,-1,169
 681 192 681 192 681 209 c 256,170,171
 681 226 681 226 669.5 237.5 c 128,-1,172
 658 249 658 249 641 249 c 256,173,174
 624 249 624 249 612.5 237.5 c 128,-1,175
 601 226 601 226 601 209 c 256,176,165
 601 192 601 192 612.5 180.5 c 128,-1,166
760 168 m 1,177,-1
 760 247 l 1,178,-1
 748 247 l 1,179,-1
 748 193 l 1,180,-1
 699 248 l 1,181,-1
 693 248 l 1,182,-1
 693 170 l 1,183,-1
 705 170 l 1,184,-1
 705 222 l 1,185,-1
 754 168 l 1,186,-1
 760 168 l 1,177,-1
78 247 m 1,187,-1
 28 247 l 1,188,-1
 28 170 l 1,189,-1
 40 170 l 1,190,-1
 40 199 l 1,191,-1
 73 199 l 1,192,-1
 73 210 l 1,193,-1
 40 210 l 1,194,-1
 40 236 l 1,195,-1
 78 236 l 1,196,-1
 78 247 l 1,187,-1
88 200 m 2,197,198
 88 187 88 187 97 178 c 128,-1,199
 106 169 106 169 119 169 c 0,200,201
 133 169 133 169 142 177.5 c 128,-1,202
 151 186 151 186 151 200 c 2,203,-1
 151 247 l 1,204,-1
 139 247 l 1,205,-1
 139 200 l 2,206,207
 139 192 139 192 133 186 c 128,-1,208
 127 180 127 180 119 180 c 256,209,210
 111 180 111 180 105.5 185.5 c 128,-1,211
 100 191 100 191 100 200 c 2,212,-1
 100 247 l 1,213,-1
 88 247 l 1,214,-1
 88 200 l 2,197,198
178 247 m 1,215,-1
 166 247 l 1,216,-1
 166 170 l 1,217,-1
 213 170 l 1,218,-1
 213 181 l 1,219,-1
 178 181 l 1,220,-1
 178 247 l 1,215,-1
236 247 m 1,221,-1
 224 247 l 1,222,-1
 224 170 l 1,223,-1
 272 170 l 1,224,-1
 272 181 l 1,225,-1
 236 181 l 1,226,-1
 236 247 l 1,221,-1
344 170 m 1,227,-1
 376 247 l 1,228,-1
 362 247 l 1,229,-1
 340 190 l 1,230,-1
 318 247 l 1,231,-1
 304 247 l 1,232,-1
 336 170 l 1,233,-1
 344 170 l 1,227,-1
436 247 m 1,234,-1
 386 247 l 1,235,-1
 386 170 l 1,236,-1
 436 170 l 1,237,-1
 436 181 l 1,238,-1
 398 181 l 1,239,-1
 398 204 l 1,240,-1
 431 204 l 1,241,-1
 431 214 l 1,242,-1
 398 214 l 1,243,-1
 398 236 l 1,244,-1
 436 236 l 1,245,-1
 436 247 l 1,234,-1
492 170 m 1,246,-1
 506 170 l 1,247,-1
 491 201 l 1,248,249
 503 208 503 208 503 222 c 0,250,251
 503 233 503 233 496 240 c 128,-1,252
 489 247 489 247 478 247 c 2,253,-1
 449 247 l 1,254,-1
 449 170 l 1,255,-1
 461 170 l 1,256,-1
 461 198 l 1,257,-1
 479 198 l 1,258,-1
 492 170 l 1,246,-1
588 247 m 1,259,-1
 576 247 l 1,260,-1
 576 170 l 1,261,-1
 588 170 l 1,262,-1
 588 247 l 1,259,-1
660 188 m 128,-1,264
 652 180 652 180 641 180 c 0,265,266
 629 180 629 180 621 188 c 128,-1,267
 613 196 613 196 613 209 c 0,268,269
 613 221 613 221 621 229 c 128,-1,270
 629 237 629 237 641 237 c 0,271,272
 652 237 652 237 660 229 c 128,-1,273
 668 221 668 221 668 209 c 0,274,263
 668 196 668 196 660 188 c 128,-1,264
487 212 m 128,-1,276
 483 208 483 208 478 208 c 2,277,-1
 461 208 l 1,278,-1
 461 236 l 1,279,-1
 478 236 l 2,280,281
 483 236 483 236 487 232 c 128,-1,282
 491 228 491 228 491 222 c 256,283,275
 491 216 491 216 487 212 c 128,-1,276
1247 183 m 1,284,-1
 1272 207 l 1,285,-1
 1247 231 l 1,286,-1
 1239 224 l 1,287,-1
 1252 213 l 1,288,-1
 794 213 l 1,289,-1
 794 201 l 1,290,-1
 1252 201 l 1,291,-1
 1239 190 l 1,292,-1
 1247 183 l 1,284,-1
508 53.5 m 128,-1,294
 525 37 525 37 550 37 c 256,295,296
 575 37 575 37 592 53.5 c 128,-1,297
 609 70 609 70 609 95 c 0,298,299
 609 119 609 119 592 135.5 c 128,-1,300
 575 152 575 152 550 152 c 256,301,302
 525 152 525 152 508 135.5 c 128,-1,303
 491 119 491 119 491 95 c 0,304,293
 491 70 491 70 508 53.5 c 128,-1,294
818 47 m 1,305,306
 834 37 834 37 856 37 c 0,307,308
 875 37 875 37 887.5 47 c 128,-1,309
 900 57 900 57 900 74 c 0,310,311
 900 101 900 101 864 109 c 0,312,313
 861 110 861 110 857 111 c 128,-1,314
 853 112 853 112 851.5 113.5 c 128,-1,315
 850 115 850 115 850 117 c 0,316,317
 850 121 850 121 861 121 c 0,318,319
 868 121 868 121 877.5 118 c 128,-1,320
 887 115 887 115 893 110 c 1,321,-1
 893 144 l 1,322,323
 875 152 875 152 861 152 c 0,324,325
 840 152 840 152 828 143 c 128,-1,326
 816 134 816 134 816 118 c 0,327,328
 816 104 816 104 823.5 96.5 c 128,-1,329
 831 89 831 89 848 83 c 0,330,331
 851 82 851 82 858 80 c 128,-1,332
 865 78 865 78 865 74 c 0,333,334
 865 68 865 68 856 68 c 0,335,336
 843 68 843 68 818 84 c 1,337,-1
 818 47 l 1,305,306
963 53.5 m 128,-1,339
 980 37 980 37 1004 37 c 0,340,341
 1016 37 1016 37 1030 44 c 1,342,-1
 1031 79 l 1,343,344
 1021 69 1021 69 1006 69 c 0,345,346
 995 69 995 69 988 76.5 c 128,-1,347
 981 84 981 84 981 95 c 256,348,349
 981 106 981 106 988.5 113 c 128,-1,350
 996 120 996 120 1006 120 c 256,351,352
 1016 120 1016 120 1028 113 c 1,353,-1
 1028 146 l 1,354,355
 1018 152 1018 152 1005 152 c 0,356,357
 980 152 980 152 963 135.5 c 128,-1,358
 946 119 946 119 946 95 c 0,359,338
 946 70 946 70 963 53.5 c 128,-1,339
1051 53.5 m 128,-1,361
 1068 37 1068 37 1094 37 c 0,362,363
 1119 37 1119 37 1136 53.5 c 128,-1,364
 1153 70 1153 70 1153 95 c 0,365,366
 1153 119 1153 119 1136 135.5 c 128,-1,367
 1119 152 1119 152 1094 152 c 256,368,369
 1069 152 1069 152 1051.5 135.5 c 128,-1,370
 1034 119 1034 119 1034 95 c 0,371,360
 1034 70 1034 70 1051 53.5 c 128,-1,361
29 118 m 1,372,-1
 65 118 l 1,373,-1
 24 40 l 1,374,-1
 119 40 l 1,375,-1
 119 71 l 1,376,-1
 81 71 l 1,377,-1
 122 149 l 1,378,-1
 29 149 l 1,379,-1
 29 118 l 1,372,-1
208 149 m 1,380,-1
 129 149 l 1,381,-1
 129 40 l 1,382,-1
 209 40 l 1,383,-1
 209 70 l 1,384,-1
 164 70 l 1,385,-1
 164 80 l 1,386,-1
 202 80 l 1,387,-1
 202 110 l 1,388,-1
 164 110 l 1,389,-1
 164 119 l 1,390,-1
 208 119 l 1,391,-1
 208 149 l 1,380,-1
213 118 m 1,392,-1
 239 118 l 1,393,-1
 239 40 l 1,394,-1
 274 40 l 1,395,-1
 274 118 l 1,396,-1
 300 118 l 1,397,-1
 300 149 l 1,398,-1
 213 149 l 1,399,-1
 213 118 l 1,392,-1
329 57 m 1,400,-1
 360 57 l 1,401,-1
 364 40 l 1,402,-1
 402 40 l 1,403,-1
 365 149 l 1,404,-1
 325 149 l 1,405,-1
 288 40 l 1,406,-1
 324 40 l 1,407,-1
 329 57 l 1,400,-1
487 149 m 1,408,-1
 408 149 l 1,409,-1
 408 40 l 1,410,-1
 443 40 l 1,411,-1
 443 74 l 1,412,-1
 480 74 l 1,413,-1
 480 103 l 1,414,-1
 443 103 l 1,415,-1
 443 119 l 1,416,-1
 487 119 l 1,417,-1
 487 149 l 1,408,-1
721 40 m 1,418,-1
 721 149 l 1,419,-1
 686 149 l 1,420,-1
 686 91 l 1,421,-1
 653 149 l 1,422,-1
 617 149 l 1,423,-1
 617 40 l 1,424,-1
 652 40 l 1,425,-1
 651 93 l 1,426,-1
 685 40 l 1,427,-1
 721 40 l 1,418,-1
727 118 m 1,428,-1
 753 118 l 1,429,-1
 753 40 l 1,430,-1
 788 40 l 1,431,-1
 788 118 l 1,432,-1
 813 118 l 1,433,-1
 813 149 l 1,434,-1
 727 149 l 1,435,-1
 727 118 l 1,428,-1
1195 149 m 1,436,-1
 1160 149 l 1,437,-1
 1160 40 l 1,438,-1
 1195 40 l 1,439,-1
 1195 83 l 1,440,-1
 1209 56 l 1,441,-1
 1234 56 l 1,442,-1
 1248 83 l 1,443,-1
 1248 40 l 1,444,-1
 1282 40 l 1,445,-1
 1282 149 l 1,446,-1
 1247 149 l 1,447,-1
 1221 99 l 1,448,-1
 1195 149 l 1,436,-1
567 76.5 m 128,-1,450
 560 69 560 69 550 69 c 256,451,452
 540 69 540 69 533 76.5 c 128,-1,453
 526 84 526 84 526 95 c 256,454,455
 526 106 526 106 533 113 c 128,-1,456
 540 120 540 120 550 120 c 256,457,458
 560 120 560 120 567 113 c 128,-1,459
 574 106 574 106 574 95 c 256,460,449
 574 84 574 84 567 76.5 c 128,-1,450
1111 76.5 m 128,-1,462
 1104 69 1104 69 1094 69 c 0,463,464
 1083 69 1083 69 1076 76.5 c 128,-1,465
 1069 84 1069 84 1069 95 c 256,466,467
 1069 106 1069 106 1076.5 113 c 128,-1,468
 1084 120 1084 120 1094 120 c 256,469,470
 1104 120 1104 120 1111 112.5 c 128,-1,471
 1118 105 1118 105 1118 95 c 0,472,461
 1118 84 1118 84 1111 76.5 c 128,-1,462
345 112 m 1,473,-1
 352 86 l 1,474,-1
 337 86 l 1,475,-1
 344 112 l 1,476,-1
 345 112 l 1,473,-1
910 42 m 128,-1,478
 915 37 915 37 923 37 c 0,479,480
 930 37 930 37 935 42 c 128,-1,481
 940 47 940 47 940 54 c 256,482,483
 940 61 940 61 935 65.5 c 128,-1,484
 930 70 930 70 923 70 c 0,485,486
 915 70 915 70 910 65.5 c 128,-1,487
 905 61 905 61 905 54 c 256,488,477
 905 47 905 47 910 42 c 128,-1,478
EndSplineSet
EndChar

StartChar: five
Encoding: 53 53 72
Width: 486
GlyphClass: 1
Flags: W
LayerCount: 2
Fore
SplineSet
96.9638671875 750.739257812 m 1,0,-1
 435.5703125 750.739257812 l 1,1,-1
 435.5703125 585.536132812 l 1,2,-1
 192.55078125 585.536132812 l 1,3,4
 186.764648438 460.725585938 186.764648438 460.725585938 184.831054688 418.999023438 c 1,5,6
 240.388671875 458.344726562 240.388671875 458.344726562 317.206054688 451.385742188 c 0,7,8
 383.383789062 445.392578125 383.383789062 445.392578125 425.8515625 400.93359375 c 128,-1,9
 468.318359375 356.475585938 468.318359375 356.475585938 474.522460938 286.694335938 c 0,10,11
 484.493164062 174.473632812 484.493164062 174.473632812 476.930664062 63.951171875 c 0,12,13
 469.1796875 -49.3017578125 469.1796875 -49.3017578125 402.150390625 -102.05859375 c 128,-1,14
 335.12109375 -154.815429688 335.12109375 -154.815429688 226.8984375 -150.39453125 c 0,15,16
 146.848632812 -147.12890625 146.848632812 -147.12890625 93.7939453125 -112.807617188 c 0,17,18
 21.033203125 -65.7373046875 21.033203125 -65.7373046875 9.6318359375 30.8173828125 c 0,19,20
 7.5107421875 48.7783203125 7.5107421875 48.7783203125 7.294921875 68.7939453125 c 128,-1,21
 7.0791015625 88.8095703125 7.0791015625 88.8095703125 7.904296875 115.140625 c 128,-1,22
 8.7294921875 141.470703125 8.7294921875 141.470703125 8.7294921875 154.47265625 c 1,23,-1
 186.115234375 154.47265625 l 1,24,25
 186.115234375 99.083984375 186.115234375 99.083984375 186.469726562 95.2412109375 c 0,26,27
 188.032226562 78.3017578125 188.032226562 78.3017578125 188.88671875 72.56640625 c 128,-1,28
 189.7421875 66.8310546875 189.7421875 66.8310546875 193.290039062 54.30859375 c 128,-1,29
 196.838867188 41.7861328125 196.838867188 41.7861328125 204.31640625 35.03515625 c 128,-1,30
 211.793945312 28.283203125 211.793945312 28.283203125 223.7578125 24.2119140625 c 0,31,32
 250.276367188 15.18359375 250.276367188 15.18359375 270.352539062 26.14453125 c 128,-1,33
 290.427734375 37.10546875 290.427734375 37.10546875 294.921875 64.7490234375 c 0,34,35
 300.163085938 96.9853515625 300.163085938 96.9853515625 300.764648438 172.043945312 c 0,36,37
 301.133789062 218.279296875 301.133789062 218.279296875 296.03125 258.956054688 c 0,38,39
 290.56640625 302.547851562 290.56640625 302.547851562 253.091796875 308.291992188 c 0,40,41
 209.407226562 314.982421875 209.407226562 314.982421875 189.374023438 279.778320312 c 0,42,43
 177.39453125 258.724609375 177.39453125 258.724609375 151.388671875 261.231445312 c 0,44,45
 135.46484375 262.762695312 135.46484375 262.762695312 7.8369140625 271.995117188 c 1,46,47
 11.6650390625 364.701171875 11.6650390625 364.701171875 18.767578125 536.696289062 c 128,-1,48
 25.8701171875 708.69140625 25.8701171875 708.69140625 27.6064453125 750.739257812 c 1,49,-1
 96.9638671875 750.739257812 l 1,0,-1
EndSplineSet
EndChar

StartChar: six
Encoding: 54 54 73
Width: 1308
GlyphClass: 1
Flags: W
LayerCount: 2
Fore
SplineSet
1283 462 m 1,0,-1
 1283 269 l 1,1,-1
 29 269 l 1,2,-1
 29 462 l 1,3,-1
 515 462 l 1,4,5
 519 518 519 518 559.5 556 c 128,-1,6
 600 594 600 594 656 594 c 256,7,8
 712 594 712 594 752.5 556 c 128,-1,9
 793 518 793 518 797 462 c 1,10,-1
 1283 462 l 1,0,-1
741 547 m 1,11,12
 703 580 703 580 656 580 c 0,13,14
 607 580 607 580 571 547 c 1,15,-1
 741 547 l 1,11,12
754 371 m 1,16,17
 783 406 783 406 783 452 c 0,18,19
 783 500 783 500 751 537 c 1,20,-1
 585 371 l 1,21,-1
 754 371 l 1,16,17
557 533 m 1,22,23
 528 498 528 498 528 452 c 0,24,25
 528 403 528 403 561 367 c 1,26,-1
 728 533 l 1,27,-1
 557 533 l 1,22,23
920 321 m 128,-1,29
 939 339 939 339 939 367 c 0,30,31
 939 394 939 394 920 412 c 128,-1,32
 901 430 901 430 873 430 c 256,33,34
 845 430 845 430 826.5 412 c 128,-1,35
 808 394 808 394 808 367 c 0,36,37
 808 339 808 339 826.5 321 c 128,-1,38
 845 303 845 303 873 303 c 256,39,28
 901 303 901 303 920 321 c 128,-1,29
120 392 m 1,40,-1
 148 392 l 1,41,-1
 148 427 l 1,42,-1
 52 427 l 1,43,-1
 52 392 l 1,44,-1
 81 392 l 1,45,-1
 81 306 l 1,46,-1
 120 306 l 1,47,-1
 120 392 l 1,40,-1
217 306 m 1,48,-1
 258 306 l 1,49,-1
 237 352 l 1,50,51
 251 364 251 364 251 384 c 0,52,53
 251 402 251 402 237.5 414.5 c 128,-1,54
 224 427 224 427 205 427 c 2,55,-1
 155 427 l 1,56,-1
 155 306 l 1,57,-1
 194 306 l 1,58,-1
 194 341 l 1,59,-1
 202 341 l 1,60,-1
 217 306 l 1,48,-1
264 306 m 1,61,-1
 302 306 l 1,62,-1
 302 427 l 1,63,-1
 264 427 l 1,64,-1
 264 306 l 1,61,-1
389 325 m 1,65,-1
 394 306 l 1,66,-1
 436 306 l 1,67,-1
 395 427 l 1,68,-1
 350 427 l 1,69,-1
 309 306 l 1,70,-1
 350 306 l 1,71,-1
 355 325 l 1,72,-1
 389 325 l 1,65,-1
443 306 m 1,73,-1
 525 306 l 1,74,-1
 525 339 l 1,75,-1
 482 339 l 1,76,-1
 482 427 l 1,77,-1
 443 427 l 1,78,-1
 443 306 l 1,73,-1
1023 306 m 1,79,-1
 1063 306 l 1,80,-1
 1063 427 l 1,81,-1
 1024 427 l 1,82,-1
 1024 363 l 1,83,-1
 987 427 l 1,84,-1
 947 427 l 1,85,-1
 947 306 l 1,86,-1
 986 306 l 1,87,-1
 985 365 l 1,88,-1
 1023 306 l 1,79,-1
1075 306 m 1,89,-1
 1157 306 l 1,90,-1
 1157 339 l 1,91,-1
 1114 339 l 1,92,-1
 1114 427 l 1,93,-1
 1075 427 l 1,94,-1
 1075 306 l 1,89,-1
1218 306 m 1,95,-1
 1218 354 l 1,96,-1
 1259 427 l 1,97,-1
 1214 427 l 1,98,-1
 1198 391 l 1,99,-1
 1183 427 l 1,100,-1
 1137 427 l 1,101,-1
 1179 354 l 1,102,-1
 1179 306 l 1,103,-1
 1218 306 l 1,95,-1
892.5 387 m 128,-1,105
 900 379 900 379 900 367 c 0,106,107
 900 354 900 354 892.5 346 c 128,-1,108
 885 338 885 338 873 338 c 0,109,110
 862 338 862 338 854 346 c 128,-1,111
 846 354 846 354 846 367 c 0,112,113
 846 379 846 379 854 387 c 128,-1,114
 862 395 862 395 873 395 c 0,115,104
 885 395 885 395 892.5 387 c 128,-1,105
204 394 m 2,116,117
 207 394 207 394 209.5 391 c 128,-1,118
 212 388 212 388 212 384 c 256,119,120
 212 380 212 380 209.5 376.5 c 128,-1,121
 207 373 207 373 204 373 c 2,122,-1
 194 373 l 1,123,-1
 194 394 l 1,124,-1
 204 394 l 2,116,117
363 357 m 1,125,-1
 371 386 l 1,126,-1
 372 386 l 1,127,-1
 380 357 l 1,128,-1
 363 357 l 1,125,-1
571 357 m 1,129,130
 608 325 608 325 656 325 c 256,131,132
 704 325 704 325 741 357 c 1,133,-1
 571 357 l 1,129,130
512 176 m 1,134,135
 524 169 524 169 538 169 c 0,136,137
 549 169 549 169 556.5 175 c 128,-1,138
 564 181 564 181 564 192 c 0,139,140
 564 205 564 205 541 214 c 0,141,142
 532 217 532 217 528.5 219.5 c 128,-1,143
 525 222 525 222 525 227 c 256,144,145
 525 232 525 232 529 235 c 128,-1,146
 533 238 533 238 539 238 c 0,147,148
 550 238 550 238 559 231 c 1,149,-1
 559 244 l 1,150,151
 549 249 549 249 539 249 c 0,152,153
 527 249 527 249 520 243 c 128,-1,154
 513 237 513 237 513 227 c 0,155,156
 513 218 513 218 518 213.5 c 128,-1,157
 523 209 523 209 535 204 c 0,158,159
 552 199 552 199 552 192 c 0,160,161
 552 180 552 180 538 180 c 0,162,163
 525 180 525 180 512 189 c 1,164,-1
 512 176 l 1,134,135
612.5 180.5 m 128,-1,166
 624 169 624 169 641 169 c 256,167,168
 658 169 658 169 669.5 180.5 c 128,-1,169
 681 192 681 192 681 209 c 256,170,171
 681 226 681 226 669.5 237.5 c 128,-1,172
 658 249 658 249 641 249 c 256,173,174
 624 249 624 249 612.5 237.5 c 128,-1,175
 601 226 601 226 601 209 c 256,176,165
 601 192 601 192 612.5 180.5 c 128,-1,166
760 168 m 1,177,-1
 760 247 l 1,178,-1
 748 247 l 1,179,-1
 748 193 l 1,180,-1
 699 248 l 1,181,-1
 693 248 l 1,182,-1
 693 170 l 1,183,-1
 705 170 l 1,184,-1
 705 222 l 1,185,-1
 754 168 l 1,186,-1
 760 168 l 1,177,-1
78 247 m 1,187,-1
 28 247 l 1,188,-1
 28 170 l 1,189,-1
 40 170 l 1,190,-1
 40 199 l 1,191,-1
 73 199 l 1,192,-1
 73 210 l 1,193,-1
 40 210 l 1,194,-1
 40 236 l 1,195,-1
 78 236 l 1,196,-1
 78 247 l 1,187,-1
88 200 m 2,197,198
 88 187 88 187 97 178 c 128,-1,199
 106 169 106 169 119 169 c 0,200,201
 133 169 133 169 142 177.5 c 128,-1,202
 151 186 151 186 151 200 c 2,203,-1
 151 247 l 1,204,-1
 139 247 l 1,205,-1
 139 200 l 2,206,207
 139 192 139 192 133 186 c 128,-1,208
 127 180 127 180 119 180 c 256,209,210
 111 180 111 180 105.5 185.5 c 128,-1,211
 100 191 100 191 100 200 c 2,212,-1
 100 247 l 1,213,-1
 88 247 l 1,214,-1
 88 200 l 2,197,198
178 247 m 1,215,-1
 166 247 l 1,216,-1
 166 170 l 1,217,-1
 213 170 l 1,218,-1
 213 181 l 1,219,-1
 178 181 l 1,220,-1
 178 247 l 1,215,-1
236 247 m 1,221,-1
 224 247 l 1,222,-1
 224 170 l 1,223,-1
 272 170 l 1,224,-1
 272 181 l 1,225,-1
 236 181 l 1,226,-1
 236 247 l 1,221,-1
344 170 m 1,227,-1
 376 247 l 1,228,-1
 362 247 l 1,229,-1
 340 190 l 1,230,-1
 318 247 l 1,231,-1
 304 247 l 1,232,-1
 336 170 l 1,233,-1
 344 170 l 1,227,-1
436 247 m 1,234,-1
 386 247 l 1,235,-1
 386 170 l 1,236,-1
 436 170 l 1,237,-1
 436 181 l 1,238,-1
 398 181 l 1,239,-1
 398 204 l 1,240,-1
 431 204 l 1,241,-1
 431 214 l 1,242,-1
 398 214 l 1,243,-1
 398 236 l 1,244,-1
 436 236 l 1,245,-1
 436 247 l 1,234,-1
492 170 m 1,246,-1
 506 170 l 1,247,-1
 491 201 l 1,248,249
 503 208 503 208 503 222 c 0,250,251
 503 233 503 233 496 240 c 128,-1,252
 489 247 489 247 478 247 c 2,253,-1
 449 247 l 1,254,-1
 449 170 l 1,255,-1
 461 170 l 1,256,-1
 461 198 l 1,257,-1
 479 198 l 1,258,-1
 492 170 l 1,246,-1
588 247 m 1,259,-1
 576 247 l 1,260,-1
 576 170 l 1,261,-1
 588 170 l 1,262,-1
 588 247 l 1,259,-1
660 188 m 128,-1,264
 652 180 652 180 641 180 c 0,265,266
 629 180 629 180 621 188 c 128,-1,267
 613 196 613 196 613 209 c 0,268,269
 613 221 613 221 621 229 c 128,-1,270
 629 237 629 237 641 237 c 0,271,272
 652 237 652 237 660 229 c 128,-1,273
 668 221 668 221 668 209 c 0,274,263
 668 196 668 196 660 188 c 128,-1,264
487 212 m 128,-1,276
 483 208 483 208 478 208 c 2,277,-1
 461 208 l 1,278,-1
 461 236 l 1,279,-1
 478 236 l 2,280,281
 483 236 483 236 487 232 c 128,-1,282
 491 228 491 228 491 222 c 256,283,275
 491 216 491 216 487 212 c 128,-1,276
1247 183 m 1,284,-1
 1272 207 l 1,285,-1
 1247 231 l 1,286,-1
 1239 224 l 1,287,-1
 1252 213 l 1,288,-1
 794 213 l 1,289,-1
 794 201 l 1,290,-1
 1252 201 l 1,291,-1
 1239 190 l 1,292,-1
 1247 183 l 1,284,-1
508 53.5 m 128,-1,294
 525 37 525 37 550 37 c 256,295,296
 575 37 575 37 592 53.5 c 128,-1,297
 609 70 609 70 609 95 c 0,298,299
 609 119 609 119 592 135.5 c 128,-1,300
 575 152 575 152 550 152 c 256,301,302
 525 152 525 152 508 135.5 c 128,-1,303
 491 119 491 119 491 95 c 0,304,293
 491 70 491 70 508 53.5 c 128,-1,294
818 47 m 1,305,306
 834 37 834 37 856 37 c 0,307,308
 875 37 875 37 887.5 47 c 128,-1,309
 900 57 900 57 900 74 c 0,310,311
 900 101 900 101 864 109 c 0,312,313
 861 110 861 110 857 111 c 128,-1,314
 853 112 853 112 851.5 113.5 c 128,-1,315
 850 115 850 115 850 117 c 0,316,317
 850 121 850 121 861 121 c 0,318,319
 868 121 868 121 877.5 118 c 128,-1,320
 887 115 887 115 893 110 c 1,321,-1
 893 144 l 1,322,323
 875 152 875 152 861 152 c 0,324,325
 840 152 840 152 828 143 c 128,-1,326
 816 134 816 134 816 118 c 0,327,328
 816 104 816 104 823.5 96.5 c 128,-1,329
 831 89 831 89 848 83 c 0,330,331
 851 82 851 82 858 80 c 128,-1,332
 865 78 865 78 865 74 c 0,333,334
 865 68 865 68 856 68 c 0,335,336
 843 68 843 68 818 84 c 1,337,-1
 818 47 l 1,305,306
963 53.5 m 128,-1,339
 980 37 980 37 1004 37 c 0,340,341
 1016 37 1016 37 1030 44 c 1,342,-1
 1031 79 l 1,343,344
 1021 69 1021 69 1006 69 c 0,345,346
 995 69 995 69 988 76.5 c 128,-1,347
 981 84 981 84 981 95 c 256,348,349
 981 106 981 106 988.5 113 c 128,-1,350
 996 120 996 120 1006 120 c 256,351,352
 1016 120 1016 120 1028 113 c 1,353,-1
 1028 146 l 1,354,355
 1018 152 1018 152 1005 152 c 0,356,357
 980 152 980 152 963 135.5 c 128,-1,358
 946 119 946 119 946 95 c 0,359,338
 946 70 946 70 963 53.5 c 128,-1,339
1051 53.5 m 128,-1,361
 1068 37 1068 37 1094 37 c 0,362,363
 1119 37 1119 37 1136 53.5 c 128,-1,364
 1153 70 1153 70 1153 95 c 0,365,366
 1153 119 1153 119 1136 135.5 c 128,-1,367
 1119 152 1119 152 1094 152 c 256,368,369
 1069 152 1069 152 1051.5 135.5 c 128,-1,370
 1034 119 1034 119 1034 95 c 0,371,360
 1034 70 1034 70 1051 53.5 c 128,-1,361
29 118 m 1,372,-1
 65 118 l 1,373,-1
 24 40 l 1,374,-1
 119 40 l 1,375,-1
 119 71 l 1,376,-1
 81 71 l 1,377,-1
 122 149 l 1,378,-1
 29 149 l 1,379,-1
 29 118 l 1,372,-1
208 149 m 1,380,-1
 129 149 l 1,381,-1
 129 40 l 1,382,-1
 209 40 l 1,383,-1
 209 70 l 1,384,-1
 164 70 l 1,385,-1
 164 80 l 1,386,-1
 202 80 l 1,387,-1
 202 110 l 1,388,-1
 164 110 l 1,389,-1
 164 119 l 1,390,-1
 208 119 l 1,391,-1
 208 149 l 1,380,-1
213 118 m 1,392,-1
 239 118 l 1,393,-1
 239 40 l 1,394,-1
 274 40 l 1,395,-1
 274 118 l 1,396,-1
 300 118 l 1,397,-1
 300 149 l 1,398,-1
 213 149 l 1,399,-1
 213 118 l 1,392,-1
329 57 m 1,400,-1
 360 57 l 1,401,-1
 364 40 l 1,402,-1
 402 40 l 1,403,-1
 365 149 l 1,404,-1
 325 149 l 1,405,-1
 288 40 l 1,406,-1
 324 40 l 1,407,-1
 329 57 l 1,400,-1
487 149 m 1,408,-1
 408 149 l 1,409,-1
 408 40 l 1,410,-1
 443 40 l 1,411,-1
 443 74 l 1,412,-1
 480 74 l 1,413,-1
 480 103 l 1,414,-1
 443 103 l 1,415,-1
 443 119 l 1,416,-1
 487 119 l 1,417,-1
 487 149 l 1,408,-1
721 40 m 1,418,-1
 721 149 l 1,419,-1
 686 149 l 1,420,-1
 686 91 l 1,421,-1
 653 149 l 1,422,-1
 617 149 l 1,423,-1
 617 40 l 1,424,-1
 652 40 l 1,425,-1
 651 93 l 1,426,-1
 685 40 l 1,427,-1
 721 40 l 1,418,-1
727 118 m 1,428,-1
 753 118 l 1,429,-1
 753 40 l 1,430,-1
 788 40 l 1,431,-1
 788 118 l 1,432,-1
 813 118 l 1,433,-1
 813 149 l 1,434,-1
 727 149 l 1,435,-1
 727 118 l 1,428,-1
1195 149 m 1,436,-1
 1160 149 l 1,437,-1
 1160 40 l 1,438,-1
 1195 40 l 1,439,-1
 1195 83 l 1,440,-1
 1209 56 l 1,441,-1
 1234 56 l 1,442,-1
 1248 83 l 1,443,-1
 1248 40 l 1,444,-1
 1282 40 l 1,445,-1
 1282 149 l 1,446,-1
 1247 149 l 1,447,-1
 1221 99 l 1,448,-1
 1195 149 l 1,436,-1
567 76.5 m 128,-1,450
 560 69 560 69 550 69 c 256,451,452
 540 69 540 69 533 76.5 c 128,-1,453
 526 84 526 84 526 95 c 256,454,455
 526 106 526 106 533 113 c 128,-1,456
 540 120 540 120 550 120 c 256,457,458
 560 120 560 120 567 113 c 128,-1,459
 574 106 574 106 574 95 c 256,460,449
 574 84 574 84 567 76.5 c 128,-1,450
1111 76.5 m 128,-1,462
 1104 69 1104 69 1094 69 c 0,463,464
 1083 69 1083 69 1076 76.5 c 128,-1,465
 1069 84 1069 84 1069 95 c 256,466,467
 1069 106 1069 106 1076.5 113 c 128,-1,468
 1084 120 1084 120 1094 120 c 256,469,470
 1104 120 1104 120 1111 112.5 c 128,-1,471
 1118 105 1118 105 1118 95 c 0,472,461
 1118 84 1118 84 1111 76.5 c 128,-1,462
345 112 m 1,473,-1
 352 86 l 1,474,-1
 337 86 l 1,475,-1
 344 112 l 1,476,-1
 345 112 l 1,473,-1
910 42 m 128,-1,478
 915 37 915 37 923 37 c 0,479,480
 930 37 930 37 935 42 c 128,-1,481
 940 47 940 47 940 54 c 256,482,483
 940 61 940 61 935 65.5 c 128,-1,484
 930 70 930 70 923 70 c 0,485,486
 915 70 915 70 910 65.5 c 128,-1,487
 905 61 905 61 905 54 c 256,488,477
 905 47 905 47 910 42 c 128,-1,478
EndSplineSet
EndChar

StartChar: seven
Encoding: 55 55 74
Width: 1308
GlyphClass: 1
Flags: W
LayerCount: 2
Fore
SplineSet
1283 462 m 1,0,-1
 1283 269 l 1,1,-1
 29 269 l 1,2,-1
 29 462 l 1,3,-1
 515 462 l 1,4,5
 519 518 519 518 559.5 556 c 128,-1,6
 600 594 600 594 656 594 c 256,7,8
 712 594 712 594 752.5 556 c 128,-1,9
 793 518 793 518 797 462 c 1,10,-1
 1283 462 l 1,0,-1
741 547 m 1,11,12
 703 580 703 580 656 580 c 0,13,14
 607 580 607 580 571 547 c 1,15,-1
 741 547 l 1,11,12
754 371 m 1,16,17
 783 406 783 406 783 452 c 0,18,19
 783 500 783 500 751 537 c 1,20,-1
 585 371 l 1,21,-1
 754 371 l 1,16,17
557 533 m 1,22,23
 528 498 528 498 528 452 c 0,24,25
 528 403 528 403 561 367 c 1,26,-1
 728 533 l 1,27,-1
 557 533 l 1,22,23
920 321 m 128,-1,29
 939 339 939 339 939 367 c 0,30,31
 939 394 939 394 920 412 c 128,-1,32
 901 430 901 430 873 430 c 256,33,34
 845 430 845 430 826.5 412 c 128,-1,35
 808 394 808 394 808 367 c 0,36,37
 808 339 808 339 826.5 321 c 128,-1,38
 845 303 845 303 873 303 c 256,39,28
 901 303 901 303 920 321 c 128,-1,29
120 392 m 1,40,-1
 148 392 l 1,41,-1
 148 427 l 1,42,-1
 52 427 l 1,43,-1
 52 392 l 1,44,-1
 81 392 l 1,45,-1
 81 306 l 1,46,-1
 120 306 l 1,47,-1
 120 392 l 1,40,-1
217 306 m 1,48,-1
 258 306 l 1,49,-1
 237 352 l 1,50,51
 251 364 251 364 251 384 c 0,52,53
 251 402 251 402 237.5 414.5 c 128,-1,54
 224 427 224 427 205 427 c 2,55,-1
 155 427 l 1,56,-1
 155 306 l 1,57,-1
 194 306 l 1,58,-1
 194 341 l 1,59,-1
 202 341 l 1,60,-1
 217 306 l 1,48,-1
264 306 m 1,61,-1
 302 306 l 1,62,-1
 302 427 l 1,63,-1
 264 427 l 1,64,-1
 264 306 l 1,61,-1
389 325 m 1,65,-1
 394 306 l 1,66,-1
 436 306 l 1,67,-1
 395 427 l 1,68,-1
 350 427 l 1,69,-1
 309 306 l 1,70,-1
 350 306 l 1,71,-1
 355 325 l 1,72,-1
 389 325 l 1,65,-1
443 306 m 1,73,-1
 525 306 l 1,74,-1
 525 339 l 1,75,-1
 482 339 l 1,76,-1
 482 427 l 1,77,-1
 443 427 l 1,78,-1
 443 306 l 1,73,-1
1023 306 m 1,79,-1
 1063 306 l 1,80,-1
 1063 427 l 1,81,-1
 1024 427 l 1,82,-1
 1024 363 l 1,83,-1
 987 427 l 1,84,-1
 947 427 l 1,85,-1
 947 306 l 1,86,-1
 986 306 l 1,87,-1
 985 365 l 1,88,-1
 1023 306 l 1,79,-1
1075 306 m 1,89,-1
 1157 306 l 1,90,-1
 1157 339 l 1,91,-1
 1114 339 l 1,92,-1
 1114 427 l 1,93,-1
 1075 427 l 1,94,-1
 1075 306 l 1,89,-1
1218 306 m 1,95,-1
 1218 354 l 1,96,-1
 1259 427 l 1,97,-1
 1214 427 l 1,98,-1
 1198 391 l 1,99,-1
 1183 427 l 1,100,-1
 1137 427 l 1,101,-1
 1179 354 l 1,102,-1
 1179 306 l 1,103,-1
 1218 306 l 1,95,-1
892.5 387 m 128,-1,105
 900 379 900 379 900 367 c 0,106,107
 900 354 900 354 892.5 346 c 128,-1,108
 885 338 885 338 873 338 c 0,109,110
 862 338 862 338 854 346 c 128,-1,111
 846 354 846 354 846 367 c 0,112,113
 846 379 846 379 854 387 c 128,-1,114
 862 395 862 395 873 395 c 0,115,104
 885 395 885 395 892.5 387 c 128,-1,105
204 394 m 2,116,117
 207 394 207 394 209.5 391 c 128,-1,118
 212 388 212 388 212 384 c 256,119,120
 212 380 212 380 209.5 376.5 c 128,-1,121
 207 373 207 373 204 373 c 2,122,-1
 194 373 l 1,123,-1
 194 394 l 1,124,-1
 204 394 l 2,116,117
363 357 m 1,125,-1
 371 386 l 1,126,-1
 372 386 l 1,127,-1
 380 357 l 1,128,-1
 363 357 l 1,125,-1
571 357 m 1,129,130
 608 325 608 325 656 325 c 256,131,132
 704 325 704 325 741 357 c 1,133,-1
 571 357 l 1,129,130
512 176 m 1,134,135
 524 169 524 169 538 169 c 0,136,137
 549 169 549 169 556.5 175 c 128,-1,138
 564 181 564 181 564 192 c 0,139,140
 564 205 564 205 541 214 c 0,141,142
 532 217 532 217 528.5 219.5 c 128,-1,143
 525 222 525 222 525 227 c 256,144,145
 525 232 525 232 529 235 c 128,-1,146
 533 238 533 238 539 238 c 0,147,148
 550 238 550 238 559 231 c 1,149,-1
 559 244 l 1,150,151
 549 249 549 249 539 249 c 0,152,153
 527 249 527 249 520 243 c 128,-1,154
 513 237 513 237 513 227 c 0,155,156
 513 218 513 218 518 213.5 c 128,-1,157
 523 209 523 209 535 204 c 0,158,159
 552 199 552 199 552 192 c 0,160,161
 552 180 552 180 538 180 c 0,162,163
 525 180 525 180 512 189 c 1,164,-1
 512 176 l 1,134,135
612.5 180.5 m 128,-1,166
 624 169 624 169 641 169 c 256,167,168
 658 169 658 169 669.5 180.5 c 128,-1,169
 681 192 681 192 681 209 c 256,170,171
 681 226 681 226 669.5 237.5 c 128,-1,172
 658 249 658 249 641 249 c 256,173,174
 624 249 624 249 612.5 237.5 c 128,-1,175
 601 226 601 226 601 209 c 256,176,165
 601 192 601 192 612.5 180.5 c 128,-1,166
760 168 m 1,177,-1
 760 247 l 1,178,-1
 748 247 l 1,179,-1
 748 193 l 1,180,-1
 699 248 l 1,181,-1
 693 248 l 1,182,-1
 693 170 l 1,183,-1
 705 170 l 1,184,-1
 705 222 l 1,185,-1
 754 168 l 1,186,-1
 760 168 l 1,177,-1
78 247 m 1,187,-1
 28 247 l 1,188,-1
 28 170 l 1,189,-1
 40 170 l 1,190,-1
 40 199 l 1,191,-1
 73 199 l 1,192,-1
 73 210 l 1,193,-1
 40 210 l 1,194,-1
 40 236 l 1,195,-1
 78 236 l 1,196,-1
 78 247 l 1,187,-1
88 200 m 2,197,198
 88 187 88 187 97 178 c 128,-1,199
 106 169 106 169 119 169 c 0,200,201
 133 169 133 169 142 177.5 c 128,-1,202
 151 186 151 186 151 200 c 2,203,-1
 151 247 l 1,204,-1
 139 247 l 1,205,-1
 139 200 l 2,206,207
 139 192 139 192 133 186 c 128,-1,208
 127 180 127 180 119 180 c 256,209,210
 111 180 111 180 105.5 185.5 c 128,-1,211
 100 191 100 191 100 200 c 2,212,-1
 100 247 l 1,213,-1
 88 247 l 1,214,-1
 88 200 l 2,197,198
178 247 m 1,215,-1
 166 247 l 1,216,-1
 166 170 l 1,217,-1
 213 170 l 1,218,-1
 213 181 l 1,219,-1
 178 181 l 1,220,-1
 178 247 l 1,215,-1
236 247 m 1,221,-1
 224 247 l 1,222,-1
 224 170 l 1,223,-1
 272 170 l 1,224,-1
 272 181 l 1,225,-1
 236 181 l 1,226,-1
 236 247 l 1,221,-1
344 170 m 1,227,-1
 376 247 l 1,228,-1
 362 247 l 1,229,-1
 340 190 l 1,230,-1
 318 247 l 1,231,-1
 304 247 l 1,232,-1
 336 170 l 1,233,-1
 344 170 l 1,227,-1
436 247 m 1,234,-1
 386 247 l 1,235,-1
 386 170 l 1,236,-1
 436 170 l 1,237,-1
 436 181 l 1,238,-1
 398 181 l 1,239,-1
 398 204 l 1,240,-1
 431 204 l 1,241,-1
 431 214 l 1,242,-1
 398 214 l 1,243,-1
 398 236 l 1,244,-1
 436 236 l 1,245,-1
 436 247 l 1,234,-1
492 170 m 1,246,-1
 506 170 l 1,247,-1
 491 201 l 1,248,249
 503 208 503 208 503 222 c 0,250,251
 503 233 503 233 496 240 c 128,-1,252
 489 247 489 247 478 247 c 2,253,-1
 449 247 l 1,254,-1
 449 170 l 1,255,-1
 461 170 l 1,256,-1
 461 198 l 1,257,-1
 479 198 l 1,258,-1
 492 170 l 1,246,-1
588 247 m 1,259,-1
 576 247 l 1,260,-1
 576 170 l 1,261,-1
 588 170 l 1,262,-1
 588 247 l 1,259,-1
660 188 m 128,-1,264
 652 180 652 180 641 180 c 0,265,266
 629 180 629 180 621 188 c 128,-1,267
 613 196 613 196 613 209 c 0,268,269
 613 221 613 221 621 229 c 128,-1,270
 629 237 629 237 641 237 c 0,271,272
 652 237 652 237 660 229 c 128,-1,273
 668 221 668 221 668 209 c 0,274,263
 668 196 668 196 660 188 c 128,-1,264
487 212 m 128,-1,276
 483 208 483 208 478 208 c 2,277,-1
 461 208 l 1,278,-1
 461 236 l 1,279,-1
 478 236 l 2,280,281
 483 236 483 236 487 232 c 128,-1,282
 491 228 491 228 491 222 c 256,283,275
 491 216 491 216 487 212 c 128,-1,276
1247 183 m 1,284,-1
 1272 207 l 1,285,-1
 1247 231 l 1,286,-1
 1239 224 l 1,287,-1
 1252 213 l 1,288,-1
 794 213 l 1,289,-1
 794 201 l 1,290,-1
 1252 201 l 1,291,-1
 1239 190 l 1,292,-1
 1247 183 l 1,284,-1
508 53.5 m 128,-1,294
 525 37 525 37 550 37 c 256,295,296
 575 37 575 37 592 53.5 c 128,-1,297
 609 70 609 70 609 95 c 0,298,299
 609 119 609 119 592 135.5 c 128,-1,300
 575 152 575 152 550 152 c 256,301,302
 525 152 525 152 508 135.5 c 128,-1,303
 491 119 491 119 491 95 c 0,304,293
 491 70 491 70 508 53.5 c 128,-1,294
818 47 m 1,305,306
 834 37 834 37 856 37 c 0,307,308
 875 37 875 37 887.5 47 c 128,-1,309
 900 57 900 57 900 74 c 0,310,311
 900 101 900 101 864 109 c 0,312,313
 861 110 861 110 857 111 c 128,-1,314
 853 112 853 112 851.5 113.5 c 128,-1,315
 850 115 850 115 850 117 c 0,316,317
 850 121 850 121 861 121 c 0,318,319
 868 121 868 121 877.5 118 c 128,-1,320
 887 115 887 115 893 110 c 1,321,-1
 893 144 l 1,322,323
 875 152 875 152 861 152 c 0,324,325
 840 152 840 152 828 143 c 128,-1,326
 816 134 816 134 816 118 c 0,327,328
 816 104 816 104 823.5 96.5 c 128,-1,329
 831 89 831 89 848 83 c 0,330,331
 851 82 851 82 858 80 c 128,-1,332
 865 78 865 78 865 74 c 0,333,334
 865 68 865 68 856 68 c 0,335,336
 843 68 843 68 818 84 c 1,337,-1
 818 47 l 1,305,306
963 53.5 m 128,-1,339
 980 37 980 37 1004 37 c 0,340,341
 1016 37 1016 37 1030 44 c 1,342,-1
 1031 79 l 1,343,344
 1021 69 1021 69 1006 69 c 0,345,346
 995 69 995 69 988 76.5 c 128,-1,347
 981 84 981 84 981 95 c 256,348,349
 981 106 981 106 988.5 113 c 128,-1,350
 996 120 996 120 1006 120 c 256,351,352
 1016 120 1016 120 1028 113 c 1,353,-1
 1028 146 l 1,354,355
 1018 152 1018 152 1005 152 c 0,356,357
 980 152 980 152 963 135.5 c 128,-1,358
 946 119 946 119 946 95 c 0,359,338
 946 70 946 70 963 53.5 c 128,-1,339
1051 53.5 m 128,-1,361
 1068 37 1068 37 1094 37 c 0,362,363
 1119 37 1119 37 1136 53.5 c 128,-1,364
 1153 70 1153 70 1153 95 c 0,365,366
 1153 119 1153 119 1136 135.5 c 128,-1,367
 1119 152 1119 152 1094 152 c 256,368,369
 1069 152 1069 152 1051.5 135.5 c 128,-1,370
 1034 119 1034 119 1034 95 c 0,371,360
 1034 70 1034 70 1051 53.5 c 128,-1,361
29 118 m 1,372,-1
 65 118 l 1,373,-1
 24 40 l 1,374,-1
 119 40 l 1,375,-1
 119 71 l 1,376,-1
 81 71 l 1,377,-1
 122 149 l 1,378,-1
 29 149 l 1,379,-1
 29 118 l 1,372,-1
208 149 m 1,380,-1
 129 149 l 1,381,-1
 129 40 l 1,382,-1
 209 40 l 1,383,-1
 209 70 l 1,384,-1
 164 70 l 1,385,-1
 164 80 l 1,386,-1
 202 80 l 1,387,-1
 202 110 l 1,388,-1
 164 110 l 1,389,-1
 164 119 l 1,390,-1
 208 119 l 1,391,-1
 208 149 l 1,380,-1
213 118 m 1,392,-1
 239 118 l 1,393,-1
 239 40 l 1,394,-1
 274 40 l 1,395,-1
 274 118 l 1,396,-1
 300 118 l 1,397,-1
 300 149 l 1,398,-1
 213 149 l 1,399,-1
 213 118 l 1,392,-1
329 57 m 1,400,-1
 360 57 l 1,401,-1
 364 40 l 1,402,-1
 402 40 l 1,403,-1
 365 149 l 1,404,-1
 325 149 l 1,405,-1
 288 40 l 1,406,-1
 324 40 l 1,407,-1
 329 57 l 1,400,-1
487 149 m 1,408,-1
 408 149 l 1,409,-1
 408 40 l 1,410,-1
 443 40 l 1,411,-1
 443 74 l 1,412,-1
 480 74 l 1,413,-1
 480 103 l 1,414,-1
 443 103 l 1,415,-1
 443 119 l 1,416,-1
 487 119 l 1,417,-1
 487 149 l 1,408,-1
721 40 m 1,418,-1
 721 149 l 1,419,-1
 686 149 l 1,420,-1
 686 91 l 1,421,-1
 653 149 l 1,422,-1
 617 149 l 1,423,-1
 617 40 l 1,424,-1
 652 40 l 1,425,-1
 651 93 l 1,426,-1
 685 40 l 1,427,-1
 721 40 l 1,418,-1
727 118 m 1,428,-1
 753 118 l 1,429,-1
 753 40 l 1,430,-1
 788 40 l 1,431,-1
 788 118 l 1,432,-1
 813 118 l 1,433,-1
 813 149 l 1,434,-1
 727 149 l 1,435,-1
 727 118 l 1,428,-1
1195 149 m 1,436,-1
 1160 149 l 1,437,-1
 1160 40 l 1,438,-1
 1195 40 l 1,439,-1
 1195 83 l 1,440,-1
 1209 56 l 1,441,-1
 1234 56 l 1,442,-1
 1248 83 l 1,443,-1
 1248 40 l 1,444,-1
 1282 40 l 1,445,-1
 1282 149 l 1,446,-1
 1247 149 l 1,447,-1
 1221 99 l 1,448,-1
 1195 149 l 1,436,-1
567 76.5 m 128,-1,450
 560 69 560 69 550 69 c 256,451,452
 540 69 540 69 533 76.5 c 128,-1,453
 526 84 526 84 526 95 c 256,454,455
 526 106 526 106 533 113 c 128,-1,456
 540 120 540 120 550 120 c 256,457,458
 560 120 560 120 567 113 c 128,-1,459
 574 106 574 106 574 95 c 256,460,449
 574 84 574 84 567 76.5 c 128,-1,450
1111 76.5 m 128,-1,462
 1104 69 1104 69 1094 69 c 0,463,464
 1083 69 1083 69 1076 76.5 c 128,-1,465
 1069 84 1069 84 1069 95 c 256,466,467
 1069 106 1069 106 1076.5 113 c 128,-1,468
 1084 120 1084 120 1094 120 c 256,469,470
 1104 120 1104 120 1111 112.5 c 128,-1,471
 1118 105 1118 105 1118 95 c 0,472,461
 1118 84 1118 84 1111 76.5 c 128,-1,462
345 112 m 1,473,-1
 352 86 l 1,474,-1
 337 86 l 1,475,-1
 344 112 l 1,476,-1
 345 112 l 1,473,-1
910 42 m 128,-1,478
 915 37 915 37 923 37 c 0,479,480
 930 37 930 37 935 42 c 128,-1,481
 940 47 940 47 940 54 c 256,482,483
 940 61 940 61 935 65.5 c 128,-1,484
 930 70 930 70 923 70 c 0,485,486
 915 70 915 70 910 65.5 c 128,-1,487
 905 61 905 61 905 54 c 256,488,477
 905 47 905 47 910 42 c 128,-1,478
EndSplineSet
EndChar

StartChar: eight
Encoding: 56 56 75
Width: 1308
GlyphClass: 1
Flags: W
LayerCount: 2
Fore
SplineSet
1283 462 m 1,0,-1
 1283 269 l 1,1,-1
 29 269 l 1,2,-1
 29 462 l 1,3,-1
 515 462 l 1,4,5
 519 518 519 518 559.5 556 c 128,-1,6
 600 594 600 594 656 594 c 256,7,8
 712 594 712 594 752.5 556 c 128,-1,9
 793 518 793 518 797 462 c 1,10,-1
 1283 462 l 1,0,-1
741 547 m 1,11,12
 703 580 703 580 656 580 c 0,13,14
 607 580 607 580 571 547 c 1,15,-1
 741 547 l 1,11,12
754 371 m 1,16,17
 783 406 783 406 783 452 c 0,18,19
 783 500 783 500 751 537 c 1,20,-1
 585 371 l 1,21,-1
 754 371 l 1,16,17
557 533 m 1,22,23
 528 498 528 498 528 452 c 0,24,25
 528 403 528 403 561 367 c 1,26,-1
 728 533 l 1,27,-1
 557 533 l 1,22,23
920 321 m 128,-1,29
 939 339 939 339 939 367 c 0,30,31
 939 394 939 394 920 412 c 128,-1,32
 901 430 901 430 873 430 c 256,33,34
 845 430 845 430 826.5 412 c 128,-1,35
 808 394 808 394 808 367 c 0,36,37
 808 339 808 339 826.5 321 c 128,-1,38
 845 303 845 303 873 303 c 256,39,28
 901 303 901 303 920 321 c 128,-1,29
120 392 m 1,40,-1
 148 392 l 1,41,-1
 148 427 l 1,42,-1
 52 427 l 1,43,-1
 52 392 l 1,44,-1
 81 392 l 1,45,-1
 81 306 l 1,46,-1
 120 306 l 1,47,-1
 120 392 l 1,40,-1
217 306 m 1,48,-1
 258 306 l 1,49,-1
 237 352 l 1,50,51
 251 364 251 364 251 384 c 0,52,53
 251 402 251 402 237.5 414.5 c 128,-1,54
 224 427 224 427 205 427 c 2,55,-1
 155 427 l 1,56,-1
 155 306 l 1,57,-1
 194 306 l 1,58,-1
 194 341 l 1,59,-1
 202 341 l 1,60,-1
 217 306 l 1,48,-1
264 306 m 1,61,-1
 302 306 l 1,62,-1
 302 427 l 1,63,-1
 264 427 l 1,64,-1
 264 306 l 1,61,-1
389 325 m 1,65,-1
 394 306 l 1,66,-1
 436 306 l 1,67,-1
 395 427 l 1,68,-1
 350 427 l 1,69,-1
 309 306 l 1,70,-1
 350 306 l 1,71,-1
 355 325 l 1,72,-1
 389 325 l 1,65,-1
443 306 m 1,73,-1
 525 306 l 1,74,-1
 525 339 l 1,75,-1
 482 339 l 1,76,-1
 482 427 l 1,77,-1
 443 427 l 1,78,-1
 443 306 l 1,73,-1
1023 306 m 1,79,-1
 1063 306 l 1,80,-1
 1063 427 l 1,81,-1
 1024 427 l 1,82,-1
 1024 363 l 1,83,-1
 987 427 l 1,84,-1
 947 427 l 1,85,-1
 947 306 l 1,86,-1
 986 306 l 1,87,-1
 985 365 l 1,88,-1
 1023 306 l 1,79,-1
1075 306 m 1,89,-1
 1157 306 l 1,90,-1
 1157 339 l 1,91,-1
 1114 339 l 1,92,-1
 1114 427 l 1,93,-1
 1075 427 l 1,94,-1
 1075 306 l 1,89,-1
1218 306 m 1,95,-1
 1218 354 l 1,96,-1
 1259 427 l 1,97,-1
 1214 427 l 1,98,-1
 1198 391 l 1,99,-1
 1183 427 l 1,100,-1
 1137 427 l 1,101,-1
 1179 354 l 1,102,-1
 1179 306 l 1,103,-1
 1218 306 l 1,95,-1
892.5 387 m 128,-1,105
 900 379 900 379 900 367 c 0,106,107
 900 354 900 354 892.5 346 c 128,-1,108
 885 338 885 338 873 338 c 0,109,110
 862 338 862 338 854 346 c 128,-1,111
 846 354 846 354 846 367 c 0,112,113
 846 379 846 379 854 387 c 128,-1,114
 862 395 862 395 873 395 c 0,115,104
 885 395 885 395 892.5 387 c 128,-1,105
204 394 m 2,116,117
 207 394 207 394 209.5 391 c 128,-1,118
 212 388 212 388 212 384 c 256,119,120
 212 380 212 380 209.5 376.5 c 128,-1,121
 207 373 207 373 204 373 c 2,122,-1
 194 373 l 1,123,-1
 194 394 l 1,124,-1
 204 394 l 2,116,117
363 357 m 1,125,-1
 371 386 l 1,126,-1
 372 386 l 1,127,-1
 380 357 l 1,128,-1
 363 357 l 1,125,-1
571 357 m 1,129,130
 608 325 608 325 656 325 c 256,131,132
 704 325 704 325 741 357 c 1,133,-1
 571 357 l 1,129,130
512 176 m 1,134,135
 524 169 524 169 538 169 c 0,136,137
 549 169 549 169 556.5 175 c 128,-1,138
 564 181 564 181 564 192 c 0,139,140
 564 205 564 205 541 214 c 0,141,142
 532 217 532 217 528.5 219.5 c 128,-1,143
 525 222 525 222 525 227 c 256,144,145
 525 232 525 232 529 235 c 128,-1,146
 533 238 533 238 539 238 c 0,147,148
 550 238 550 238 559 231 c 1,149,-1
 559 244 l 1,150,151
 549 249 549 249 539 249 c 0,152,153
 527 249 527 249 520 243 c 128,-1,154
 513 237 513 237 513 227 c 0,155,156
 513 218 513 218 518 213.5 c 128,-1,157
 523 209 523 209 535 204 c 0,158,159
 552 199 552 199 552 192 c 0,160,161
 552 180 552 180 538 180 c 0,162,163
 525 180 525 180 512 189 c 1,164,-1
 512 176 l 1,134,135
612.5 180.5 m 128,-1,166
 624 169 624 169 641 169 c 256,167,168
 658 169 658 169 669.5 180.5 c 128,-1,169
 681 192 681 192 681 209 c 256,170,171
 681 226 681 226 669.5 237.5 c 128,-1,172
 658 249 658 249 641 249 c 256,173,174
 624 249 624 249 612.5 237.5 c 128,-1,175
 601 226 601 226 601 209 c 256,176,165
 601 192 601 192 612.5 180.5 c 128,-1,166
760 168 m 1,177,-1
 760 247 l 1,178,-1
 748 247 l 1,179,-1
 748 193 l 1,180,-1
 699 248 l 1,181,-1
 693 248 l 1,182,-1
 693 170 l 1,183,-1
 705 170 l 1,184,-1
 705 222 l 1,185,-1
 754 168 l 1,186,-1
 760 168 l 1,177,-1
78 247 m 1,187,-1
 28 247 l 1,188,-1
 28 170 l 1,189,-1
 40 170 l 1,190,-1
 40 199 l 1,191,-1
 73 199 l 1,192,-1
 73 210 l 1,193,-1
 40 210 l 1,194,-1
 40 236 l 1,195,-1
 78 236 l 1,196,-1
 78 247 l 1,187,-1
88 200 m 2,197,198
 88 187 88 187 97 178 c 128,-1,199
 106 169 106 169 119 169 c 0,200,201
 133 169 133 169 142 177.5 c 128,-1,202
 151 186 151 186 151 200 c 2,203,-1
 151 247 l 1,204,-1
 139 247 l 1,205,-1
 139 200 l 2,206,207
 139 192 139 192 133 186 c 128,-1,208
 127 180 127 180 119 180 c 256,209,210
 111 180 111 180 105.5 185.5 c 128,-1,211
 100 191 100 191 100 200 c 2,212,-1
 100 247 l 1,213,-1
 88 247 l 1,214,-1
 88 200 l 2,197,198
178 247 m 1,215,-1
 166 247 l 1,216,-1
 166 170 l 1,217,-1
 213 170 l 1,218,-1
 213 181 l 1,219,-1
 178 181 l 1,220,-1
 178 247 l 1,215,-1
236 247 m 1,221,-1
 224 247 l 1,222,-1
 224 170 l 1,223,-1
 272 170 l 1,224,-1
 272 181 l 1,225,-1
 236 181 l 1,226,-1
 236 247 l 1,221,-1
344 170 m 1,227,-1
 376 247 l 1,228,-1
 362 247 l 1,229,-1
 340 190 l 1,230,-1
 318 247 l 1,231,-1
 304 247 l 1,232,-1
 336 170 l 1,233,-1
 344 170 l 1,227,-1
436 247 m 1,234,-1
 386 247 l 1,235,-1
 386 170 l 1,236,-1
 436 170 l 1,237,-1
 436 181 l 1,238,-1
 398 181 l 1,239,-1
 398 204 l 1,240,-1
 431 204 l 1,241,-1
 431 214 l 1,242,-1
 398 214 l 1,243,-1
 398 236 l 1,244,-1
 436 236 l 1,245,-1
 436 247 l 1,234,-1
492 170 m 1,246,-1
 506 170 l 1,247,-1
 491 201 l 1,248,249
 503 208 503 208 503 222 c 0,250,251
 503 233 503 233 496 240 c 128,-1,252
 489 247 489 247 478 247 c 2,253,-1
 449 247 l 1,254,-1
 449 170 l 1,255,-1
 461 170 l 1,256,-1
 461 198 l 1,257,-1
 479 198 l 1,258,-1
 492 170 l 1,246,-1
588 247 m 1,259,-1
 576 247 l 1,260,-1
 576 170 l 1,261,-1
 588 170 l 1,262,-1
 588 247 l 1,259,-1
660 188 m 128,-1,264
 652 180 652 180 641 180 c 0,265,266
 629 180 629 180 621 188 c 128,-1,267
 613 196 613 196 613 209 c 0,268,269
 613 221 613 221 621 229 c 128,-1,270
 629 237 629 237 641 237 c 0,271,272
 652 237 652 237 660 229 c 128,-1,273
 668 221 668 221 668 209 c 0,274,263
 668 196 668 196 660 188 c 128,-1,264
487 212 m 128,-1,276
 483 208 483 208 478 208 c 2,277,-1
 461 208 l 1,278,-1
 461 236 l 1,279,-1
 478 236 l 2,280,281
 483 236 483 236 487 232 c 128,-1,282
 491 228 491 228 491 222 c 256,283,275
 491 216 491 216 487 212 c 128,-1,276
1247 183 m 1,284,-1
 1272 207 l 1,285,-1
 1247 231 l 1,286,-1
 1239 224 l 1,287,-1
 1252 213 l 1,288,-1
 794 213 l 1,289,-1
 794 201 l 1,290,-1
 1252 201 l 1,291,-1
 1239 190 l 1,292,-1
 1247 183 l 1,284,-1
508 53.5 m 128,-1,294
 525 37 525 37 550 37 c 256,295,296
 575 37 575 37 592 53.5 c 128,-1,297
 609 70 609 70 609 95 c 0,298,299
 609 119 609 119 592 135.5 c 128,-1,300
 575 152 575 152 550 152 c 256,301,302
 525 152 525 152 508 135.5 c 128,-1,303
 491 119 491 119 491 95 c 0,304,293
 491 70 491 70 508 53.5 c 128,-1,294
818 47 m 1,305,306
 834 37 834 37 856 37 c 0,307,308
 875 37 875 37 887.5 47 c 128,-1,309
 900 57 900 57 900 74 c 0,310,311
 900 101 900 101 864 109 c 0,312,313
 861 110 861 110 857 111 c 128,-1,314
 853 112 853 112 851.5 113.5 c 128,-1,315
 850 115 850 115 850 117 c 0,316,317
 850 121 850 121 861 121 c 0,318,319
 868 121 868 121 877.5 118 c 128,-1,320
 887 115 887 115 893 110 c 1,321,-1
 893 144 l 1,322,323
 875 152 875 152 861 152 c 0,324,325
 840 152 840 152 828 143 c 128,-1,326
 816 134 816 134 816 118 c 0,327,328
 816 104 816 104 823.5 96.5 c 128,-1,329
 831 89 831 89 848 83 c 0,330,331
 851 82 851 82 858 80 c 128,-1,332
 865 78 865 78 865 74 c 0,333,334
 865 68 865 68 856 68 c 0,335,336
 843 68 843 68 818 84 c 1,337,-1
 818 47 l 1,305,306
963 53.5 m 128,-1,339
 980 37 980 37 1004 37 c 0,340,341
 1016 37 1016 37 1030 44 c 1,342,-1
 1031 79 l 1,343,344
 1021 69 1021 69 1006 69 c 0,345,346
 995 69 995 69 988 76.5 c 128,-1,347
 981 84 981 84 981 95 c 256,348,349
 981 106 981 106 988.5 113 c 128,-1,350
 996 120 996 120 1006 120 c 256,351,352
 1016 120 1016 120 1028 113 c 1,353,-1
 1028 146 l 1,354,355
 1018 152 1018 152 1005 152 c 0,356,357
 980 152 980 152 963 135.5 c 128,-1,358
 946 119 946 119 946 95 c 0,359,338
 946 70 946 70 963 53.5 c 128,-1,339
1051 53.5 m 128,-1,361
 1068 37 1068 37 1094 37 c 0,362,363
 1119 37 1119 37 1136 53.5 c 128,-1,364
 1153 70 1153 70 1153 95 c 0,365,366
 1153 119 1153 119 1136 135.5 c 128,-1,367
 1119 152 1119 152 1094 152 c 256,368,369
 1069 152 1069 152 1051.5 135.5 c 128,-1,370
 1034 119 1034 119 1034 95 c 0,371,360
 1034 70 1034 70 1051 53.5 c 128,-1,361
29 118 m 1,372,-1
 65 118 l 1,373,-1
 24 40 l 1,374,-1
 119 40 l 1,375,-1
 119 71 l 1,376,-1
 81 71 l 1,377,-1
 122 149 l 1,378,-1
 29 149 l 1,379,-1
 29 118 l 1,372,-1
208 149 m 1,380,-1
 129 149 l 1,381,-1
 129 40 l 1,382,-1
 209 40 l 1,383,-1
 209 70 l 1,384,-1
 164 70 l 1,385,-1
 164 80 l 1,386,-1
 202 80 l 1,387,-1
 202 110 l 1,388,-1
 164 110 l 1,389,-1
 164 119 l 1,390,-1
 208 119 l 1,391,-1
 208 149 l 1,380,-1
213 118 m 1,392,-1
 239 118 l 1,393,-1
 239 40 l 1,394,-1
 274 40 l 1,395,-1
 274 118 l 1,396,-1
 300 118 l 1,397,-1
 300 149 l 1,398,-1
 213 149 l 1,399,-1
 213 118 l 1,392,-1
329 57 m 1,400,-1
 360 57 l 1,401,-1
 364 40 l 1,402,-1
 402 40 l 1,403,-1
 365 149 l 1,404,-1
 325 149 l 1,405,-1
 288 40 l 1,406,-1
 324 40 l 1,407,-1
 329 57 l 1,400,-1
487 149 m 1,408,-1
 408 149 l 1,409,-1
 408 40 l 1,410,-1
 443 40 l 1,411,-1
 443 74 l 1,412,-1
 480 74 l 1,413,-1
 480 103 l 1,414,-1
 443 103 l 1,415,-1
 443 119 l 1,416,-1
 487 119 l 1,417,-1
 487 149 l 1,408,-1
721 40 m 1,418,-1
 721 149 l 1,419,-1
 686 149 l 1,420,-1
 686 91 l 1,421,-1
 653 149 l 1,422,-1
 617 149 l 1,423,-1
 617 40 l 1,424,-1
 652 40 l 1,425,-1
 651 93 l 1,426,-1
 685 40 l 1,427,-1
 721 40 l 1,418,-1
727 118 m 1,428,-1
 753 118 l 1,429,-1
 753 40 l 1,430,-1
 788 40 l 1,431,-1
 788 118 l 1,432,-1
 813 118 l 1,433,-1
 813 149 l 1,434,-1
 727 149 l 1,435,-1
 727 118 l 1,428,-1
1195 149 m 1,436,-1
 1160 149 l 1,437,-1
 1160 40 l 1,438,-1
 1195 40 l 1,439,-1
 1195 83 l 1,440,-1
 1209 56 l 1,441,-1
 1234 56 l 1,442,-1
 1248 83 l 1,443,-1
 1248 40 l 1,444,-1
 1282 40 l 1,445,-1
 1282 149 l 1,446,-1
 1247 149 l 1,447,-1
 1221 99 l 1,448,-1
 1195 149 l 1,436,-1
567 76.5 m 128,-1,450
 560 69 560 69 550 69 c 256,451,452
 540 69 540 69 533 76.5 c 128,-1,453
 526 84 526 84 526 95 c 256,454,455
 526 106 526 106 533 113 c 128,-1,456
 540 120 540 120 550 120 c 256,457,458
 560 120 560 120 567 113 c 128,-1,459
 574 106 574 106 574 95 c 256,460,449
 574 84 574 84 567 76.5 c 128,-1,450
1111 76.5 m 128,-1,462
 1104 69 1104 69 1094 69 c 0,463,464
 1083 69 1083 69 1076 76.5 c 128,-1,465
 1069 84 1069 84 1069 95 c 256,466,467
 1069 106 1069 106 1076.5 113 c 128,-1,468
 1084 120 1084 120 1094 120 c 256,469,470
 1104 120 1104 120 1111 112.5 c 128,-1,471
 1118 105 1118 105 1118 95 c 0,472,461
 1118 84 1118 84 1111 76.5 c 128,-1,462
345 112 m 1,473,-1
 352 86 l 1,474,-1
 337 86 l 1,475,-1
 344 112 l 1,476,-1
 345 112 l 1,473,-1
910 42 m 128,-1,478
 915 37 915 37 923 37 c 0,479,480
 930 37 930 37 935 42 c 128,-1,481
 940 47 940 47 940 54 c 256,482,483
 940 61 940 61 935 65.5 c 128,-1,484
 930 70 930 70 923 70 c 0,485,486
 915 70 915 70 910 65.5 c 128,-1,487
 905 61 905 61 905 54 c 256,488,477
 905 47 905 47 910 42 c 128,-1,478
EndSplineSet
EndChar

StartChar: nine
Encoding: 57 57 76
Width: 1308
GlyphClass: 1
Flags: W
LayerCount: 2
Fore
SplineSet
1283 462 m 1,0,-1
 1283 269 l 1,1,-1
 29 269 l 1,2,-1
 29 462 l 1,3,-1
 515 462 l 1,4,5
 519 518 519 518 559.5 556 c 128,-1,6
 600 594 600 594 656 594 c 256,7,8
 712 594 712 594 752.5 556 c 128,-1,9
 793 518 793 518 797 462 c 1,10,-1
 1283 462 l 1,0,-1
741 547 m 1,11,12
 703 580 703 580 656 580 c 0,13,14
 607 580 607 580 571 547 c 1,15,-1
 741 547 l 1,11,12
754 371 m 1,16,17
 783 406 783 406 783 452 c 0,18,19
 783 500 783 500 751 537 c 1,20,-1
 585 371 l 1,21,-1
 754 371 l 1,16,17
557 533 m 1,22,23
 528 498 528 498 528 452 c 0,24,25
 528 403 528 403 561 367 c 1,26,-1
 728 533 l 1,27,-1
 557 533 l 1,22,23
920 321 m 128,-1,29
 939 339 939 339 939 367 c 0,30,31
 939 394 939 394 920 412 c 128,-1,32
 901 430 901 430 873 430 c 256,33,34
 845 430 845 430 826.5 412 c 128,-1,35
 808 394 808 394 808 367 c 0,36,37
 808 339 808 339 826.5 321 c 128,-1,38
 845 303 845 303 873 303 c 256,39,28
 901 303 901 303 920 321 c 128,-1,29
120 392 m 1,40,-1
 148 392 l 1,41,-1
 148 427 l 1,42,-1
 52 427 l 1,43,-1
 52 392 l 1,44,-1
 81 392 l 1,45,-1
 81 306 l 1,46,-1
 120 306 l 1,47,-1
 120 392 l 1,40,-1
217 306 m 1,48,-1
 258 306 l 1,49,-1
 237 352 l 1,50,51
 251 364 251 364 251 384 c 0,52,53
 251 402 251 402 237.5 414.5 c 128,-1,54
 224 427 224 427 205 427 c 2,55,-1
 155 427 l 1,56,-1
 155 306 l 1,57,-1
 194 306 l 1,58,-1
 194 341 l 1,59,-1
 202 341 l 1,60,-1
 217 306 l 1,48,-1
264 306 m 1,61,-1
 302 306 l 1,62,-1
 302 427 l 1,63,-1
 264 427 l 1,64,-1
 264 306 l 1,61,-1
389 325 m 1,65,-1
 394 306 l 1,66,-1
 436 306 l 1,67,-1
 395 427 l 1,68,-1
 350 427 l 1,69,-1
 309 306 l 1,70,-1
 350 306 l 1,71,-1
 355 325 l 1,72,-1
 389 325 l 1,65,-1
443 306 m 1,73,-1
 525 306 l 1,74,-1
 525 339 l 1,75,-1
 482 339 l 1,76,-1
 482 427 l 1,77,-1
 443 427 l 1,78,-1
 443 306 l 1,73,-1
1023 306 m 1,79,-1
 1063 306 l 1,80,-1
 1063 427 l 1,81,-1
 1024 427 l 1,82,-1
 1024 363 l 1,83,-1
 987 427 l 1,84,-1
 947 427 l 1,85,-1
 947 306 l 1,86,-1
 986 306 l 1,87,-1
 985 365 l 1,88,-1
 1023 306 l 1,79,-1
1075 306 m 1,89,-1
 1157 306 l 1,90,-1
 1157 339 l 1,91,-1
 1114 339 l 1,92,-1
 1114 427 l 1,93,-1
 1075 427 l 1,94,-1
 1075 306 l 1,89,-1
1218 306 m 1,95,-1
 1218 354 l 1,96,-1
 1259 427 l 1,97,-1
 1214 427 l 1,98,-1
 1198 391 l 1,99,-1
 1183 427 l 1,100,-1
 1137 427 l 1,101,-1
 1179 354 l 1,102,-1
 1179 306 l 1,103,-1
 1218 306 l 1,95,-1
892.5 387 m 128,-1,105
 900 379 900 379 900 367 c 0,106,107
 900 354 900 354 892.5 346 c 128,-1,108
 885 338 885 338 873 338 c 0,109,110
 862 338 862 338 854 346 c 128,-1,111
 846 354 846 354 846 367 c 0,112,113
 846 379 846 379 854 387 c 128,-1,114
 862 395 862 395 873 395 c 0,115,104
 885 395 885 395 892.5 387 c 128,-1,105
204 394 m 2,116,117
 207 394 207 394 209.5 391 c 128,-1,118
 212 388 212 388 212 384 c 256,119,120
 212 380 212 380 209.5 376.5 c 128,-1,121
 207 373 207 373 204 373 c 2,122,-1
 194 373 l 1,123,-1
 194 394 l 1,124,-1
 204 394 l 2,116,117
363 357 m 1,125,-1
 371 386 l 1,126,-1
 372 386 l 1,127,-1
 380 357 l 1,128,-1
 363 357 l 1,125,-1
571 357 m 1,129,130
 608 325 608 325 656 325 c 256,131,132
 704 325 704 325 741 357 c 1,133,-1
 571 357 l 1,129,130
512 176 m 1,134,135
 524 169 524 169 538 169 c 0,136,137
 549 169 549 169 556.5 175 c 128,-1,138
 564 181 564 181 564 192 c 0,139,140
 564 205 564 205 541 214 c 0,141,142
 532 217 532 217 528.5 219.5 c 128,-1,143
 525 222 525 222 525 227 c 256,144,145
 525 232 525 232 529 235 c 128,-1,146
 533 238 533 238 539 238 c 0,147,148
 550 238 550 238 559 231 c 1,149,-1
 559 244 l 1,150,151
 549 249 549 249 539 249 c 0,152,153
 527 249 527 249 520 243 c 128,-1,154
 513 237 513 237 513 227 c 0,155,156
 513 218 513 218 518 213.5 c 128,-1,157
 523 209 523 209 535 204 c 0,158,159
 552 199 552 199 552 192 c 0,160,161
 552 180 552 180 538 180 c 0,162,163
 525 180 525 180 512 189 c 1,164,-1
 512 176 l 1,134,135
612.5 180.5 m 128,-1,166
 624 169 624 169 641 169 c 256,167,168
 658 169 658 169 669.5 180.5 c 128,-1,169
 681 192 681 192 681 209 c 256,170,171
 681 226 681 226 669.5 237.5 c 128,-1,172
 658 249 658 249 641 249 c 256,173,174
 624 249 624 249 612.5 237.5 c 128,-1,175
 601 226 601 226 601 209 c 256,176,165
 601 192 601 192 612.5 180.5 c 128,-1,166
760 168 m 1,177,-1
 760 247 l 1,178,-1
 748 247 l 1,179,-1
 748 193 l 1,180,-1
 699 248 l 1,181,-1
 693 248 l 1,182,-1
 693 170 l 1,183,-1
 705 170 l 1,184,-1
 705 222 l 1,185,-1
 754 168 l 1,186,-1
 760 168 l 1,177,-1
78 247 m 1,187,-1
 28 247 l 1,188,-1
 28 170 l 1,189,-1
 40 170 l 1,190,-1
 40 199 l 1,191,-1
 73 199 l 1,192,-1
 73 210 l 1,193,-1
 40 210 l 1,194,-1
 40 236 l 1,195,-1
 78 236 l 1,196,-1
 78 247 l 1,187,-1
88 200 m 2,197,198
 88 187 88 187 97 178 c 128,-1,199
 106 169 106 169 119 169 c 0,200,201
 133 169 133 169 142 177.5 c 128,-1,202
 151 186 151 186 151 200 c 2,203,-1
 151 247 l 1,204,-1
 139 247 l 1,205,-1
 139 200 l 2,206,207
 139 192 139 192 133 186 c 128,-1,208
 127 180 127 180 119 180 c 256,209,210
 111 180 111 180 105.5 185.5 c 128,-1,211
 100 191 100 191 100 200 c 2,212,-1
 100 247 l 1,213,-1
 88 247 l 1,214,-1
 88 200 l 2,197,198
178 247 m 1,215,-1
 166 247 l 1,216,-1
 166 170 l 1,217,-1
 213 170 l 1,218,-1
 213 181 l 1,219,-1
 178 181 l 1,220,-1
 178 247 l 1,215,-1
236 247 m 1,221,-1
 224 247 l 1,222,-1
 224 170 l 1,223,-1
 272 170 l 1,224,-1
 272 181 l 1,225,-1
 236 181 l 1,226,-1
 236 247 l 1,221,-1
344 170 m 1,227,-1
 376 247 l 1,228,-1
 362 247 l 1,229,-1
 340 190 l 1,230,-1
 318 247 l 1,231,-1
 304 247 l 1,232,-1
 336 170 l 1,233,-1
 344 170 l 1,227,-1
436 247 m 1,234,-1
 386 247 l 1,235,-1
 386 170 l 1,236,-1
 436 170 l 1,237,-1
 436 181 l 1,238,-1
 398 181 l 1,239,-1
 398 204 l 1,240,-1
 431 204 l 1,241,-1
 431 214 l 1,242,-1
 398 214 l 1,243,-1
 398 236 l 1,244,-1
 436 236 l 1,245,-1
 436 247 l 1,234,-1
492 170 m 1,246,-1
 506 170 l 1,247,-1
 491 201 l 1,248,249
 503 208 503 208 503 222 c 0,250,251
 503 233 503 233 496 240 c 128,-1,252
 489 247 489 247 478 247 c 2,253,-1
 449 247 l 1,254,-1
 449 170 l 1,255,-1
 461 170 l 1,256,-1
 461 198 l 1,257,-1
 479 198 l 1,258,-1
 492 170 l 1,246,-1
588 247 m 1,259,-1
 576 247 l 1,260,-1
 576 170 l 1,261,-1
 588 170 l 1,262,-1
 588 247 l 1,259,-1
660 188 m 128,-1,264
 652 180 652 180 641 180 c 0,265,266
 629 180 629 180 621 188 c 128,-1,267
 613 196 613 196 613 209 c 0,268,269
 613 221 613 221 621 229 c 128,-1,270
 629 237 629 237 641 237 c 0,271,272
 652 237 652 237 660 229 c 128,-1,273
 668 221 668 221 668 209 c 0,274,263
 668 196 668 196 660 188 c 128,-1,264
487 212 m 128,-1,276
 483 208 483 208 478 208 c 2,277,-1
 461 208 l 1,278,-1
 461 236 l 1,279,-1
 478 236 l 2,280,281
 483 236 483 236 487 232 c 128,-1,282
 491 228 491 228 491 222 c 256,283,275
 491 216 491 216 487 212 c 128,-1,276
1247 183 m 1,284,-1
 1272 207 l 1,285,-1
 1247 231 l 1,286,-1
 1239 224 l 1,287,-1
 1252 213 l 1,288,-1
 794 213 l 1,289,-1
 794 201 l 1,290,-1
 1252 201 l 1,291,-1
 1239 190 l 1,292,-1
 1247 183 l 1,284,-1
508 53.5 m 128,-1,294
 525 37 525 37 550 37 c 256,295,296
 575 37 575 37 592 53.5 c 128,-1,297
 609 70 609 70 609 95 c 0,298,299
 609 119 609 119 592 135.5 c 128,-1,300
 575 152 575 152 550 152 c 256,301,302
 525 152 525 152 508 135.5 c 128,-1,303
 491 119 491 119 491 95 c 0,304,293
 491 70 491 70 508 53.5 c 128,-1,294
818 47 m 1,305,306
 834 37 834 37 856 37 c 0,307,308
 875 37 875 37 887.5 47 c 128,-1,309
 900 57 900 57 900 74 c 0,310,311
 900 101 900 101 864 109 c 0,312,313
 861 110 861 110 857 111 c 128,-1,314
 853 112 853 112 851.5 113.5 c 128,-1,315
 850 115 850 115 850 117 c 0,316,317
 850 121 850 121 861 121 c 0,318,319
 868 121 868 121 877.5 118 c 128,-1,320
 887 115 887 115 893 110 c 1,321,-1
 893 144 l 1,322,323
 875 152 875 152 861 152 c 0,324,325
 840 152 840 152 828 143 c 128,-1,326
 816 134 816 134 816 118 c 0,327,328
 816 104 816 104 823.5 96.5 c 128,-1,329
 831 89 831 89 848 83 c 0,330,331
 851 82 851 82 858 80 c 128,-1,332
 865 78 865 78 865 74 c 0,333,334
 865 68 865 68 856 68 c 0,335,336
 843 68 843 68 818 84 c 1,337,-1
 818 47 l 1,305,306
963 53.5 m 128,-1,339
 980 37 980 37 1004 37 c 0,340,341
 1016 37 1016 37 1030 44 c 1,342,-1
 1031 79 l 1,343,344
 1021 69 1021 69 1006 69 c 0,345,346
 995 69 995 69 988 76.5 c 128,-1,347
 981 84 981 84 981 95 c 256,348,349
 981 106 981 106 988.5 113 c 128,-1,350
 996 120 996 120 1006 120 c 256,351,352
 1016 120 1016 120 1028 113 c 1,353,-1
 1028 146 l 1,354,355
 1018 152 1018 152 1005 152 c 0,356,357
 980 152 980 152 963 135.5 c 128,-1,358
 946 119 946 119 946 95 c 0,359,338
 946 70 946 70 963 53.5 c 128,-1,339
1051 53.5 m 128,-1,361
 1068 37 1068 37 1094 37 c 0,362,363
 1119 37 1119 37 1136 53.5 c 128,-1,364
 1153 70 1153 70 1153 95 c 0,365,366
 1153 119 1153 119 1136 135.5 c 128,-1,367
 1119 152 1119 152 1094 152 c 256,368,369
 1069 152 1069 152 1051.5 135.5 c 128,-1,370
 1034 119 1034 119 1034 95 c 0,371,360
 1034 70 1034 70 1051 53.5 c 128,-1,361
29 118 m 1,372,-1
 65 118 l 1,373,-1
 24 40 l 1,374,-1
 119 40 l 1,375,-1
 119 71 l 1,376,-1
 81 71 l 1,377,-1
 122 149 l 1,378,-1
 29 149 l 1,379,-1
 29 118 l 1,372,-1
208 149 m 1,380,-1
 129 149 l 1,381,-1
 129 40 l 1,382,-1
 209 40 l 1,383,-1
 209 70 l 1,384,-1
 164 70 l 1,385,-1
 164 80 l 1,386,-1
 202 80 l 1,387,-1
 202 110 l 1,388,-1
 164 110 l 1,389,-1
 164 119 l 1,390,-1
 208 119 l 1,391,-1
 208 149 l 1,380,-1
213 118 m 1,392,-1
 239 118 l 1,393,-1
 239 40 l 1,394,-1
 274 40 l 1,395,-1
 274 118 l 1,396,-1
 300 118 l 1,397,-1
 300 149 l 1,398,-1
 213 149 l 1,399,-1
 213 118 l 1,392,-1
329 57 m 1,400,-1
 360 57 l 1,401,-1
 364 40 l 1,402,-1
 402 40 l 1,403,-1
 365 149 l 1,404,-1
 325 149 l 1,405,-1
 288 40 l 1,406,-1
 324 40 l 1,407,-1
 329 57 l 1,400,-1
487 149 m 1,408,-1
 408 149 l 1,409,-1
 408 40 l 1,410,-1
 443 40 l 1,411,-1
 443 74 l 1,412,-1
 480 74 l 1,413,-1
 480 103 l 1,414,-1
 443 103 l 1,415,-1
 443 119 l 1,416,-1
 487 119 l 1,417,-1
 487 149 l 1,408,-1
721 40 m 1,418,-1
 721 149 l 1,419,-1
 686 149 l 1,420,-1
 686 91 l 1,421,-1
 653 149 l 1,422,-1
 617 149 l 1,423,-1
 617 40 l 1,424,-1
 652 40 l 1,425,-1
 651 93 l 1,426,-1
 685 40 l 1,427,-1
 721 40 l 1,418,-1
727 118 m 1,428,-1
 753 118 l 1,429,-1
 753 40 l 1,430,-1
 788 40 l 1,431,-1
 788 118 l 1,432,-1
 813 118 l 1,433,-1
 813 149 l 1,434,-1
 727 149 l 1,435,-1
 727 118 l 1,428,-1
1195 149 m 1,436,-1
 1160 149 l 1,437,-1
 1160 40 l 1,438,-1
 1195 40 l 1,439,-1
 1195 83 l 1,440,-1
 1209 56 l 1,441,-1
 1234 56 l 1,442,-1
 1248 83 l 1,443,-1
 1248 40 l 1,444,-1
 1282 40 l 1,445,-1
 1282 149 l 1,446,-1
 1247 149 l 1,447,-1
 1221 99 l 1,448,-1
 1195 149 l 1,436,-1
567 76.5 m 128,-1,450
 560 69 560 69 550 69 c 256,451,452
 540 69 540 69 533 76.5 c 128,-1,453
 526 84 526 84 526 95 c 256,454,455
 526 106 526 106 533 113 c 128,-1,456
 540 120 540 120 550 120 c 256,457,458
 560 120 560 120 567 113 c 128,-1,459
 574 106 574 106 574 95 c 256,460,449
 574 84 574 84 567 76.5 c 128,-1,450
1111 76.5 m 128,-1,462
 1104 69 1104 69 1094 69 c 0,463,464
 1083 69 1083 69 1076 76.5 c 128,-1,465
 1069 84 1069 84 1069 95 c 256,466,467
 1069 106 1069 106 1076.5 113 c 128,-1,468
 1084 120 1084 120 1094 120 c 256,469,470
 1104 120 1104 120 1111 112.5 c 128,-1,471
 1118 105 1118 105 1118 95 c 0,472,461
 1118 84 1118 84 1111 76.5 c 128,-1,462
345 112 m 1,473,-1
 352 86 l 1,474,-1
 337 86 l 1,475,-1
 344 112 l 1,476,-1
 345 112 l 1,473,-1
910 42 m 128,-1,478
 915 37 915 37 923 37 c 0,479,480
 930 37 930 37 935 42 c 128,-1,481
 940 47 940 47 940 54 c 256,482,483
 940 61 940 61 935 65.5 c 128,-1,484
 930 70 930 70 923 70 c 0,485,486
 915 70 915 70 910 65.5 c 128,-1,487
 905 61 905 61 905 54 c 256,488,477
 905 47 905 47 910 42 c 128,-1,478
EndSplineSet
EndChar

StartChar: Aogonek
Encoding: 260 260 96
Width: 516
GlyphClass: 2
Flags: W
AnchorPoint: "Anchor-18" 247 744 basechar 0
AnchorPoint: "Anchor-17" 509 0 basechar 0
AnchorPoint: "Anchor-16" 258 195 basechar 0
AnchorPoint: "Anchor-15" 247 0 basechar 0
LayerCount: 2
Fore
SplineSet
546 -73 m 1,0,1
 547 -129 547 -129 521.5 -156.5 c 128,-1,2
 496 -184 496 -184 433 -184 c 0,3,4
 387 -184 387 -184 360.5 -164.5 c 128,-1,5
 334 -145 334 -145 334 -108 c 0,6,7
 334 -75 334 -75 360.5 -45.5 c 128,-1,8
 387 -16 387 -16 433 0 c 1,9,-1
 346 0 l 1,10,-1
 327 125 l 1,11,-1
 189 125 l 1,12,-1
 169 0 l 1,13,-1
 5 0 l 1,14,-1
 150 744 l 1,15,-1
 365 744 l 1,16,-1
 511 0 l 1,17,-1
 510 0 l 1,18,19
 469 -21 469 -21 448 -45.5 c 128,-1,20
 427 -70 427 -70 427 -94 c 0,21,22
 427 -102 427 -102 431.5 -107 c 128,-1,23
 436 -112 436 -112 444 -112 c 0,24,25
 456 -112 456 -112 461 -104 c 128,-1,26
 466 -96 466 -96 466 -73 c 1,27,-1
 546 -73 l 1,0,1
250 513 m 1,28,-1
 210 259 l 1,29,-1
 306 259 l 1,30,-1
 266 513 l 1,31,-1
 259 570 l 1,32,-1
 257 570 l 1,33,-1
 250 513 l 1,28,-1
EndSplineSet
Substitution2: "'c2sc' Capitals to Small Capitals in Latin lookup 16 subtable" aogonek.sc
Substitution2: "'aalt' Access All Alternates in Latin lookup 0 subtable" aogonek.sc
EndChar

StartChar: Ccedilla
Encoding: 199 199 103
Width: 491
GlyphClass: 2
Flags: W
AnchorPoint: "Anchor-18" 248 744 basechar 0
AnchorPoint: "Anchor-15" 245 -181 basechar 0
LayerCount: 2
Fore
SplineSet
467 452 m 1,0,-1
 306 452 l 1,1,-1
 306 527 l 2,2,3
 306 571 306 571 293.5 593 c 128,-1,4
 281 615 281 615 249 615 c 0,5,6
 191 615 191 615 191 527 c 2,7,-1
 191 217 l 2,8,9
 191 128 191 128 248 128 c 0,10,11
 278 128 278 128 292 149 c 128,-1,12
 306 170 306 170 306 215 c 2,13,-1
 306 301 l 1,14,-1
 467 301 l 1,15,-1
 467 232 l 2,16,17
 467 117 467 117 421.5 55.5 c 128,-1,18
 376 -6 376 -6 273 -13 c 1,19,-1
 265 -36 l 1,20,21
 277 -34 277 -34 282 -34 c 0,22,23
 308 -34 308 -34 325.5 -51 c 128,-1,24
 343 -68 343 -68 343 -98 c 0,25,26
 343 -135 343 -135 317.5 -158.5 c 128,-1,27
 292 -182 292 -182 244 -182 c 0,28,29
 143 -182 143 -182 143 -94 c 1,30,-1
 214 -94 l 1,31,32
 215 -111 215 -111 221.5 -117.5 c 128,-1,33
 228 -124 228 -124 240 -124 c 0,34,35
 250 -124 250 -124 256 -117 c 128,-1,36
 262 -110 262 -110 262 -96 c 0,37,38
 262 -83 262 -83 256 -76 c 128,-1,39
 250 -69 250 -69 240 -69 c 0,40,41
 236 -69 236 -69 230 -71 c 1,42,-1
 195 -50 l 1,43,-1
 207 -12 l 1,44,45
 30 12 30 12 30 240 c 2,46,-1
 30 502 l 2,47,48
 30 630 30 630 84 693.5 c 128,-1,49
 138 757 138 757 248 757 c 0,50,51
 467 757 467 757 467 510 c 2,52,-1
 467 452 l 1,0,-1
EndSplineSet
Substitution2: "'c2sc' Capitals to Small Capitals in Latin lookup 16 subtable" ccedilla.sc
Substitution2: "'aalt' Access All Alternates in Latin lookup 0 subtable" ccedilla.sc
EndChar

StartChar: Eogonek
Encoding: 280 280 125
Width: 418
GlyphClass: 2
Flags: W
AnchorPoint: "Anchor-18" 213 744 basechar 0
AnchorPoint: "Anchor-17" 398 0 basechar 0
AnchorPoint: "Anchor-15" 224 0 basechar 0
LayerCount: 2
Fore
SplineSet
435 -73 m 1,0,1
 436 -129 436 -129 410.5 -156.5 c 128,-1,2
 385 -184 385 -184 322 -184 c 0,3,4
 276 -184 276 -184 249.5 -164.5 c 128,-1,5
 223 -145 223 -145 223 -108 c 0,6,7
 223 -75 223 -75 249.5 -45.5 c 128,-1,8
 276 -16 276 -16 322 0 c 1,9,-1
 41 0 l 1,10,-1
 41 744 l 1,11,-1
 392 744 l 1,12,-1
 392 602 l 1,13,-1
 202 602 l 1,14,-1
 202 446 l 1,15,-1
 370 446 l 1,16,-1
 370 310 l 1,17,-1
 202 310 l 1,18,-1
 202 144 l 1,19,-1
 398 144 l 1,20,-1
 398 0 l 1,21,-1
 399 0 l 1,22,23
 358 -21 358 -21 337 -45.5 c 128,-1,24
 316 -70 316 -70 316 -94 c 0,25,26
 316 -102 316 -102 320.5 -107 c 128,-1,27
 325 -112 325 -112 333 -112 c 0,28,29
 345 -112 345 -112 350 -104 c 128,-1,30
 355 -96 355 -96 355 -73 c 1,31,-1
 435 -73 l 1,0,1
EndSplineSet
Substitution2: "'c2sc' Capitals to Small Capitals in Latin lookup 16 subtable" eogonek.sc
Substitution2: "'aalt' Access All Alternates in Latin lookup 0 subtable" eogonek.sc
EndChar

StartChar: Hbar
Encoding: 294 294 133
Width: 517
GlyphClass: 2
Flags: W
AnchorPoint: "Anchor-18" 258 744 basechar 0
AnchorPoint: "Anchor-16" 258 591 basechar 0
AnchorPoint: "Anchor-15" 258 0 basechar 0
LayerCount: 2
Fore
SplineSet
476 625 m 1,0,-1
 510 625 l 1,1,-1
 510 558 l 1,2,-1
 476 558 l 1,3,-1
 476 0 l 1,4,-1
 315 0 l 1,5,-1
 315 305 l 1,6,-1
 202 305 l 1,7,-1
 202 0 l 1,8,-1
 41 0 l 1,9,-1
 41 558 l 1,10,-1
 19 558 l 1,11,-1
 19 625 l 1,12,-1
 41 625 l 1,13,-1
 41 744 l 1,14,-1
 202 744 l 1,15,-1
 202 625 l 1,16,-1
 315 625 l 1,17,-1
 315 744 l 1,18,-1
 476 744 l 1,19,-1
 476 625 l 1,0,-1
202 447 m 1,20,-1
 315 447 l 1,21,-1
 315 558 l 1,22,-1
 202 558 l 1,23,-1
 202 447 l 1,20,-1
EndSplineSet
Substitution2: "'c2sc' Capitals to Small Capitals in Latin lookup 16 subtable" hbar.sc
Substitution2: "'aalt' Access All Alternates in Latin lookup 0 subtable" hbar.sc
EndChar

StartChar: Iogonek
Encoding: 302 302 148
Width: 243
GlyphClass: 2
Flags: W
AnchorPoint: "Anchor-18" 121 744 basechar 0
AnchorPoint: "Anchor-17" 172 0 basechar 0
AnchorPoint: "Anchor-15" 121 0 basechar 0
LayerCount: 2
Fore
SplineSet
209 -73 m 1,0,1
 210 -129 210 -129 184.5 -156.5 c 128,-1,2
 159 -184 159 -184 96 -184 c 0,3,4
 50 -184 50 -184 23.5 -164.5 c 128,-1,5
 -3 -145 -3 -145 -3 -108 c 0,6,7
 -3 -75 -3 -75 23.5 -45.5 c 128,-1,8
 50 -16 50 -16 96 0 c 1,9,-1
 41 0 l 1,10,-1
 41 744 l 1,11,-1
 202 744 l 1,12,-1
 202 0 l 1,13,-1
 173 0 l 1,14,15
 132 -21 132 -21 111 -45.5 c 128,-1,16
 90 -70 90 -70 90 -94 c 0,17,18
 90 -102 90 -102 94.5 -107 c 128,-1,19
 99 -112 99 -112 107 -112 c 0,20,21
 119 -112 119 -112 124 -104 c 128,-1,22
 129 -96 129 -96 129 -73 c 1,23,-1
 209 -73 l 1,0,1
EndSplineSet
Substitution2: "'ss03' Style Set 3 in Latin lookup 23 subtable" Iogonek.ss03
Substitution2: "'c2sc' Capitals to Small Capitals in Latin lookup 16 subtable" iogonek.sc
AlternateSubs2: "'aalt' Access All Alternates in Latin lookup 1 subtable" iogonek.sc Iogonek.ss03
EndChar

StartChar: Ldot
Encoding: 319 319 155
Width: 411
GlyphClass: 2
Flags: W
AnchorPoint: "Anchor-19" 273 744 basechar 0
AnchorPoint: "Anchor-18" 127 744 basechar 0
AnchorPoint: "Anchor-16" 133 383 basechar 0
AnchorPoint: "Anchor-15" 199 0 basechar 0
LayerCount: 2
Fore
SplineSet
379 0 m 1,0,-1
 41 0 l 1,1,-1
 41 744 l 1,2,-1
 202 744 l 1,3,-1
 202 147 l 1,4,-1
 379 147 l 1,5,-1
 379 0 l 1,0,-1
274 394 m 128,-1,7
 257 409 257 409 257 442 c 0,8,9
 257 474 257 474 274.5 489.5 c 128,-1,10
 292 505 292 505 328 505 c 256,11,12
 364 505 364 505 381.5 489.5 c 128,-1,13
 399 474 399 474 399 442 c 256,14,15
 399 410 399 410 382 394.5 c 128,-1,16
 365 379 365 379 328 379 c 256,17,6
 291 379 291 379 274 394 c 128,-1,7
EndSplineSet
Ligature2: "Ligature Substitution lookup 26 subtable" L periodcentered
Substitution2: "'c2sc' Capitals to Small Capitals in Latin lookup 16 subtable" ldot.sc
Substitution2: "'aalt' Access All Alternates in Latin lookup 0 subtable" ldot.sc
EndChar

StartChar: Lslash
Encoding: 321 321 159
Width: 400
GlyphClass: 2
Flags: W
AnchorPoint: "Anchor-19" 282 744 basechar 0
AnchorPoint: "Anchor-18" 137 744 basechar 0
AnchorPoint: "Anchor-16" 143 383 basechar 0
AnchorPoint: "Anchor-15" 208 0 basechar 0
LayerCount: 2
Fore
SplineSet
212 372 m 1,0,-1
 212 147 l 1,1,-1
 388 147 l 1,2,-1
 388 0 l 1,3,-1
 51 0 l 1,4,-1
 51 295 l 1,5,-1
 40 290 l 1,6,-1
 7 351 l 1,7,-1
 51 372 l 1,8,-1
 51 744 l 1,9,-1
 212 744 l 1,10,-1
 212 449 l 1,11,-1
 266 475 l 1,12,-1
 299 413 l 1,13,-1
 212 372 l 1,0,-1
EndSplineSet
Substitution2: "'c2sc' Capitals to Small Capitals in Latin lookup 16 subtable" lslash.sc
Substitution2: "'aalt' Access All Alternates in Latin lookup 0 subtable" lslash.sc
EndChar

StartChar: Eng
Encoding: 330 330 166
Width: 534
GlyphClass: 2
Flags: W
AnchorPoint: "Anchor-18" 267 744 basechar 0
AnchorPoint: "Anchor-15" 267 0 basechar 0
LayerCount: 2
Fore
SplineSet
493 0 m 1,0,-1
 494 0 l 1,1,2
 494 -94 494 -94 433.5 -134.5 c 128,-1,3
 373 -175 373 -175 259 -175 c 1,4,-1
 259 -79 l 1,5,6
 307 -79 307 -79 332 -59 c 128,-1,7
 357 -39 357 -39 357 0 c 1,8,-1
 334 0 l 1,9,-1
 216 341 l 1,10,-1
 199 406 l 1,11,-1
 196 406 l 1,12,-1
 199 332 l 1,13,-1
 199 0 l 1,14,-1
 41 0 l 1,15,-1
 41 744 l 1,16,-1
 201 744 l 1,17,-1
 318 399 l 1,18,-1
 336 333 l 1,19,-1
 338 333 l 1,20,-1
 335 408 l 1,21,-1
 335 744 l 1,22,-1
 493 744 l 1,23,-1
 493 0 l 1,0,-1
EndSplineSet
EndChar

StartChar: uni019D
Encoding: 413 413 167
Width: 534
GlyphClass: 2
Flags: W
AnchorPoint: "Anchor-18" 267 744 basechar 0
AnchorPoint: "Anchor-15" 267 0 basechar 0
LayerCount: 2
Fore
SplineSet
335 744 m 1,0,-1
 493 744 l 1,1,-1
 493 0 l 1,2,-1
 334 0 l 1,3,-1
 216 341 l 1,4,-1
 199 406 l 1,5,-1
 196 406 l 1,6,-1
 199 332 l 1,7,-1
 199 0 l 2,8,9
 199 -175 199 -175 -8 -175 c 1,10,-1
 -8 -79 l 1,11,12
 19 -79 19 -79 30 -60.5 c 128,-1,13
 41 -42 41 -42 41 0 c 2,14,-1
 41 744 l 1,15,-1
 201 744 l 1,16,-1
 318 399 l 1,17,-1
 336 333 l 1,18,-1
 338 333 l 1,19,-1
 335 408 l 1,20,-1
 335 744 l 1,0,-1
EndSplineSet
EndChar

StartChar: Ohorn
Encoding: 416 416 183
Width: 498
GlyphClass: 2
Flags: W
AnchorPoint: "Anchor-19" 485 762 basechar 0
AnchorPoint: "Anchor-18" 241 744 basechar 0
AnchorPoint: "Anchor-17" 363 10 basechar 0
AnchorPoint: "Anchor-16" 255 372 basechar 0
AnchorPoint: "Anchor-15" 241 0 basechar 0
LayerCount: 2
Fore
SplineSet
468 503 m 2,1,-1
 468 240 l 2,2,3
 468 -14 468 -14 249 -14 c 256,4,5
 30 -14 30 -14 30 240 c 2,6,-1
 30 503 l 2,7,8
 30 757 30 757 249 757 c 0,9,10
 276 757 276 757 306 752 c 1,11,12
 362 752 362 752 362 813 c 0,13,14
 362 828 362 828 357 853 c 1,15,-1
 449 858 l 1,16,17
 454 837 454 837 454 811 c 0,18,19
 454 740 454 740 397 710 c 1,20,0
 468 647 468 647 468 503 c 2,1,-1
307 526 m 2,21,22
 307 572 307 572 292.5 593.5 c 128,-1,23
 278 615 278 615 249 615 c 0,24,25
 191 615 191 615 191 526 c 2,26,-1
 191 217 l 2,27,28
 191 128 191 128 249 128 c 0,29,30
 278 128 278 128 292.5 149.5 c 128,-1,31
 307 171 307 171 307 217 c 2,32,-1
 307 526 l 2,21,22
EndSplineSet
EndChar

StartChar: uni1EE0
Encoding: 7904 7904 188
Width: 498
GlyphClass: 2
Flags: W
AnchorPoint: "Anchor-19" 485 762 basechar 0
AnchorPoint: "Anchor-18" 241 903 basechar 0
AnchorPoint: "Anchor-17" 363 10 basechar 0
AnchorPoint: "Anchor-16" 255 372 basechar 0
AnchorPoint: "Anchor-15" 241 0 basechar 0
LayerCount: 2
Fore
SplineSet
468 503 m 2,1,-1
 468 240 l 2,2,3
 468 -14 468 -14 249 -14 c 256,4,5
 30 -14 30 -14 30 240 c 2,6,-1
 30 503 l 2,7,8
 30 757 30 757 249 757 c 0,9,10
 276 757 276 757 306 752 c 1,11,12
 331 752 331 752 346.5 766 c 128,-1,13
 362 780 362 780 362 812 c 1,14,15
 342 786 342 786 301 786 c 0,16,17
 279 786 279 786 262.5 791 c 128,-1,18
 246 796 246 796 226 805 c 0,19,20
 204 814 204 814 197 814 c 0,21,22
 179 814 179 814 179 785 c 1,23,-1
 102 796 l 1,24,25
 99 907 99 907 182 907 c 0,26,27
 204 907 204 907 220.5 902 c 128,-1,28
 237 897 237 897 257 888 c 0,29,30
 279 879 279 879 286 879 c 0,31,32
 304 879 304 879 304 909 c 1,33,-1
 381 897 l 1,34,35
 381 867 381 867 378 854 c 1,36,-1
 449 858 l 1,37,38
 454 837 454 837 454 811 c 0,39,40
 454 740 454 740 397 710 c 1,41,0
 468 647 468 647 468 503 c 2,1,-1
307 526 m 2,42,43
 307 572 307 572 292.5 593.5 c 128,-1,44
 278 615 278 615 249 615 c 0,45,46
 191 615 191 615 191 526 c 2,47,-1
 191 217 l 2,48,49
 191 128 191 128 249 128 c 0,50,51
 278 128 278 128 292.5 149.5 c 128,-1,52
 307 171 307 171 307 217 c 2,53,-1
 307 526 l 2,42,43
EndSplineSet
EndChar

StartChar: uni01EA
Encoding: 490 490 191
Width: 498
GlyphClass: 2
Flags: W
AnchorPoint: "Anchor-19" 306 752 basechar 0
AnchorPoint: "Anchor-18" 255 744 basechar 0
AnchorPoint: "Anchor-17" 363 10 basechar 0
AnchorPoint: "Anchor-16" 255 372 basechar 0
AnchorPoint: "Anchor-15" 255 0 basechar 0
LayerCount: 2
Fore
SplineSet
468 503 m 2,1,-1
 468 240 l 2,2,3
 468 64 468 64 363 10 c 1,4,-1
 364 10 l 1,5,6
 323 -11 323 -11 302 -35.5 c 128,-1,7
 281 -60 281 -60 281 -84 c 0,8,9
 281 -92 281 -92 285.5 -97 c 128,-1,10
 290 -102 290 -102 298 -102 c 0,11,12
 310 -102 310 -102 315 -94 c 128,-1,13
 320 -86 320 -86 320 -63 c 1,14,-1
 400 -63 l 1,15,16
 401 -119 401 -119 375.5 -146.5 c 128,-1,17
 350 -174 350 -174 287 -174 c 0,18,19
 241 -174 241 -174 214.5 -154.5 c 128,-1,20
 188 -135 188 -135 188 -98 c 0,21,22
 188 -75 188 -75 201.5 -52.5 c 128,-1,23
 215 -30 215 -30 239 -14 c 1,24,25
 135 -11 135 -11 82.5 53 c 128,-1,26
 30 117 30 117 30 240 c 2,27,-1
 30 503 l 2,28,29
 30 757 30 757 249 757 c 256,30,0
 468 757 468 757 468 503 c 2,1,-1
191 217 m 2,31,32
 191 128 191 128 249 128 c 0,33,34
 278 128 278 128 292.5 149.5 c 128,-1,35
 307 171 307 171 307 217 c 2,36,-1
 307 526 l 2,37,38
 307 572 307 572 292.5 593.5 c 128,-1,39
 278 615 278 615 249 615 c 0,40,41
 191 615 191 615 191 526 c 2,42,-1
 191 217 l 2,31,32
EndSplineSet
EndChar

StartChar: Oslash
Encoding: 216 216 192
Width: 498
GlyphClass: 2
Flags: W
AnchorPoint: "Anchor-19" 306 752 basechar 0
AnchorPoint: "Anchor-18" 255 744 basechar 0
AnchorPoint: "Anchor-17" 363 10 basechar 0
AnchorPoint: "Anchor-16" 255 372 basechar 0
AnchorPoint: "Anchor-15" 255 0 basechar 0
LayerCount: 2
Fore
SplineSet
417 689 m 1,0,1
 468 626 468 626 468 503 c 2,2,-1
 468 240 l 2,3,4
 468 -14 468 -14 249 -14 c 0,5,6
 190 -14 190 -14 147 4 c 1,7,-1
 119 -68 l 1,8,-1
 56 -42 l 1,9,-1
 90 44 l 1,10,11
 30 109 30 109 30 240 c 2,12,-1
 30 503 l 2,13,14
 30 757 30 757 249 757 c 0,15,16
 314 757 314 757 360 734 c 1,17,-1
 391 812 l 1,18,-1
 455 787 l 1,19,-1
 417 689 l 1,0,1
191 302 m 1,20,-1
 300 579 l 1,21,22
 287 615 287 615 249 615 c 0,23,24
 191 615 191 615 191 526 c 2,25,-1
 191 302 l 1,20,-1
292.5 149.5 m 128,-1,27
 307 171 307 171 307 217 c 2,28,-1
 307 410 l 1,29,-1
 205 151 l 1,30,31
 219 128 219 128 249 128 c 0,32,26
 278 128 278 128 292.5 149.5 c 128,-1,27
EndSplineSet
Substitution2: "'c2sc' Capitals to Small Capitals in Latin lookup 16 subtable" oslash.sc
Substitution2: "'aalt' Access All Alternates in Latin lookup 0 subtable" oslash.sc
EndChar

StartChar: Scedilla
Encoding: 350 350 202
Width: 472
GlyphClass: 2
Flags: W
AnchorPoint: "Anchor-18" 236 744 basechar 0
AnchorPoint: "Anchor-15" 234 -181 basechar 0
LayerCount: 2
Fore
SplineSet
375.5 391.5 m 128,-1,1
 416 361 416 361 434.5 321.5 c 128,-1,2
 453 282 453 282 453 224 c 2,3,-1
 453 176 l 2,4,5
 453 93 453 93 401 43 c 128,-1,6
 349 -7 349 -7 262 -13 c 1,7,-1
 254 -36 l 1,8,9
 266 -34 266 -34 271 -34 c 0,10,11
 297 -34 297 -34 314 -51 c 128,-1,12
 331 -68 331 -68 331 -98 c 0,13,14
 331 -135 331 -135 306 -158.5 c 128,-1,15
 281 -182 281 -182 233 -182 c 0,16,17
 131 -182 131 -182 131 -94 c 1,18,-1
 203 -94 l 1,19,20
 203 -111 203 -111 210 -117.5 c 128,-1,21
 217 -124 217 -124 229 -124 c 0,22,23
 250 -124 250 -124 250 -96 c 0,24,25
 250 -83 250 -83 244 -76 c 128,-1,26
 238 -69 238 -69 229 -69 c 0,27,28
 225 -69 225 -69 219 -71 c 1,29,-1
 184 -50 l 1,30,-1
 196 -12 l 1,31,32
 19 8 19 8 19 199 c 2,33,-1
 19 243 l 1,34,-1
 177 243 l 1,35,-1
 177 199 l 2,36,37
 177 124 177 124 238 124 c 0,38,39
 264 124 264 124 277 138.5 c 128,-1,40
 290 153 290 153 290 178 c 2,41,-1
 290 226 l 2,42,43
 290 252 290 252 280 267.5 c 128,-1,44
 270 283 270 283 250.5 293.5 c 128,-1,45
 231 304 231 304 177 329 c 0,46,47
 121 356 121 356 88.5 381.5 c 128,-1,48
 56 407 56 407 41 442 c 128,-1,49
 26 477 26 477 26 529 c 2,50,-1
 26 572 l 2,51,52
 26 660 26 660 83.5 708.5 c 128,-1,53
 141 757 141 757 236 757 c 0,54,55
 338 757 338 757 392.5 701.5 c 128,-1,56
 447 646 447 646 446 546 c 2,57,-1
 446 506 l 1,58,-1
 294 506 l 1,59,-1
 294 546 l 2,60,61
 294 619 294 619 236 619 c 0,62,63
 212 619 212 619 199.5 606 c 128,-1,64
 187 593 187 593 187 572 c 2,65,-1
 187 529 l 2,66,67
 188 500 188 500 206 484.5 c 128,-1,68
 224 469 224 469 265 451 c 0,69,0
 335 422 335 422 375.5 391.5 c 128,-1,1
EndSplineSet
Substitution2: "'c2sc' Capitals to Small Capitals in Latin lookup 16 subtable" scedilla.sc
Substitution2: "'locl' Localized Forms in Latin lookup 7 subtable" uni0218
AlternateSubs2: "'aalt' Access All Alternates in Latin lookup 1 subtable" uni0218 scedilla.sc
EndChar

StartChar: uni018F
Encoding: 399 399 207
Width: 480
GlyphClass: 1
Flags: W
LayerCount: 2
Fore
SplineSet
71 53 m 128,-1,1
 21 120 21 120 21 261 c 2,2,-1
 21 417 l 1,3,-1
 297 417 l 1,4,-1
 297 508 l 2,5,6
 297 560 297 560 284.5 587 c 128,-1,7
 272 614 272 614 238 614 c 0,8,9
 205 614 205 614 192 591 c 128,-1,10
 179 568 179 568 179 517 c 2,11,-1
 179 478 l 1,12,-1
 23 478 l 1,13,-1
 23 516 l 2,14,15
 23 628 23 628 75 692.5 c 128,-1,16
 127 757 127 757 239 757 c 0,17,18
 352 757 352 757 405 693.5 c 128,-1,19
 458 630 458 630 458 503 c 2,20,-1
 458 241 l 2,21,22
 458 112 458 112 405 49 c 128,-1,23
 352 -14 352 -14 239 -14 c 0,24,0
 121 -14 121 -14 71 53 c 128,-1,1
284.5 153.5 m 128,-1,26
 297 179 297 179 297 226 c 2,27,-1
 297 305 l 1,28,-1
 178 305 l 1,29,-1
 178 221 l 2,30,31
 178 171 178 171 192.5 149.5 c 128,-1,32
 207 128 207 128 238 128 c 0,33,25
 272 128 272 128 284.5 153.5 c 128,-1,26
EndSplineSet
EndChar

StartChar: Tbar
Encoding: 358 358 208
Width: 412
GlyphClass: 2
Flags: W
AnchorPoint: "Anchor-18" 207 744 basechar 0
AnchorPoint: "Anchor-16" 207 372 basechar 0
AnchorPoint: "Anchor-15" 205 -1 basechar 0
LayerCount: 2
Fore
SplineSet
405 744 m 1,0,-1
 405 597 l 1,1,-1
 286 597 l 1,2,-1
 286 414 l 1,3,-1
 370 414 l 1,4,-1
 370 329 l 1,5,-1
 286 329 l 1,6,-1
 286 0 l 1,7,-1
 125 0 l 1,8,-1
 125 329 l 1,9,-1
 45 329 l 1,10,-1
 45 414 l 1,11,-1
 125 414 l 1,12,-1
 125 597 l 1,13,-1
 7 597 l 1,14,-1
 7 744 l 1,15,-1
 405 744 l 1,0,-1
EndSplineSet
Substitution2: "'c2sc' Capitals to Small Capitals in Latin lookup 16 subtable" tbar.sc
Substitution2: "'aalt' Access All Alternates in Latin lookup 0 subtable" tbar.sc
EndChar

StartChar: uni0162
Encoding: 354 354 210
Width: 412
GlyphClass: 2
Flags: W
AnchorPoint: "Anchor-18" 207 744 basechar 0
AnchorPoint: "Anchor-16" 207 372 basechar 0
AnchorPoint: "Anchor-15" 202 -182 basechar 0
LayerCount: 2
Fore
SplineSet
286 0 m 1,0,-1
 235 0 l 1,1,-1
 222 -37 l 1,2,3
 234 -35 234 -35 239 -35 c 0,4,5
 265 -35 265 -35 282.5 -52 c 128,-1,6
 300 -69 300 -69 300 -99 c 0,7,8
 300 -136 300 -136 274.5 -159.5 c 128,-1,9
 249 -183 249 -183 201 -183 c 0,10,11
 100 -183 100 -183 100 -95 c 1,12,-1
 171 -95 l 1,13,14
 172 -112 172 -112 178.5 -118.5 c 128,-1,15
 185 -125 185 -125 197 -125 c 0,16,17
 207 -125 207 -125 213 -118 c 128,-1,18
 219 -111 219 -111 219 -97 c 0,19,20
 219 -84 219 -84 213 -77 c 128,-1,21
 207 -70 207 -70 197 -70 c 0,22,23
 193 -70 193 -70 187 -72 c 1,24,-1
 152 -51 l 1,25,-1
 168 0 l 1,26,-1
 125 0 l 1,27,-1
 125 597 l 1,28,-1
 7 597 l 1,29,-1
 7 744 l 1,30,-1
 405 744 l 1,31,-1
 405 597 l 1,32,-1
 286 597 l 1,33,-1
 286 0 l 1,0,-1
EndSplineSet
Substitution2: "'locl' Localized Forms in Latin lookup 7 subtable" uni021A
Substitution2: "'aalt' Access All Alternates in Latin lookup 0 subtable" uni021A
EndChar

StartChar: Uhorn
Encoding: 431 431 226
Width: 511
GlyphClass: 2
Flags: W
AnchorPoint: "Anchor-19" 573 753 basechar 0
AnchorPoint: "Anchor-18" 248 744 basechar 0
AnchorPoint: "Anchor-17" 364 10 basechar 0
AnchorPoint: "Anchor-15" 248 0 basechar 0
LayerCount: 2
Fore
SplineSet
537 849 m 1,0,1
 542 828 542 828 542 802 c 0,2,3
 542 720 542 720 468 693 c 1,4,-1
 468 234 l 2,5,6
 468 105 468 105 415.5 45.5 c 128,-1,7
 363 -14 363 -14 251 -14 c 0,8,9
 138 -14 138 -14 85.5 45 c 128,-1,10
 33 104 33 104 33 232 c 2,11,-1
 33 744 l 1,12,-1
 194 744 l 1,13,-1
 194 215 l 2,14,15
 194 128 194 128 251 128 c 0,16,17
 278 128 278 128 292.5 150 c 128,-1,18
 307 172 307 172 307 215 c 2,19,-1
 307 744 l 1,20,-1
 407 744 l 1,21,22
 450 751 450 751 450 804 c 0,23,24
 450 819 450 819 445 844 c 1,25,-1
 537 849 l 1,0,1
EndSplineSet
EndChar

StartChar: Uogonek
Encoding: 370 370 234
Width: 501
GlyphClass: 2
Flags: W
AnchorPoint: "Anchor-19" 393 744 basechar 0
AnchorPoint: "Anchor-18" 247 744 basechar 0
AnchorPoint: "Anchor-17" 364 10 basechar 0
AnchorPoint: "Anchor-15" 247 0 basechar 0
LayerCount: 2
Fore
SplineSet
307 744 m 1,0,-1
 468 744 l 1,1,-1
 468 234 l 2,2,3
 468 137 468 137 438.5 79.5 c 128,-1,4
 409 22 409 22 347 0 c 1,5,6
 315 -19 315 -19 298 -41 c 128,-1,7
 281 -63 281 -63 281 -84 c 0,8,9
 281 -92 281 -92 285.5 -97 c 128,-1,10
 290 -102 290 -102 298 -102 c 0,11,12
 310 -102 310 -102 315 -94 c 128,-1,13
 320 -86 320 -86 320 -63 c 1,14,-1
 400 -63 l 1,15,16
 401 -119 401 -119 375.5 -146.5 c 128,-1,17
 350 -174 350 -174 287 -174 c 0,18,19
 241 -174 241 -174 214.5 -154.5 c 128,-1,20
 188 -135 188 -135 188 -98 c 0,21,22
 188 -75 188 -75 201.5 -52.5 c 128,-1,23
 215 -30 215 -30 239 -14 c 1,24,25
 132 -11 132 -11 82.5 48.5 c 128,-1,26
 33 108 33 108 33 232 c 2,27,-1
 33 744 l 1,28,-1
 194 744 l 1,29,-1
 194 215 l 2,30,31
 194 128 194 128 251 128 c 0,32,33
 278 128 278 128 292.5 150 c 128,-1,34
 307 172 307 172 307 215 c 2,35,-1
 307 744 l 1,0,-1
EndSplineSet
Substitution2: "'c2sc' Capitals to Small Capitals in Latin lookup 16 subtable" uogonek.sc
Substitution2: "'aalt' Access All Alternates in Latin lookup 0 subtable" uogonek.sc
EndChar

StartChar: G.ss03
Encoding: 65537 -1 254
Width: 491
GlyphClass: 2
Flags: W
AnchorPoint: "Anchor-18" 248 744 basechar 0
AnchorPoint: "Anchor-15" 248 0 basechar 0
LayerCount: 2
Fore
SplineSet
30 234 m 2,1,-1
 30 506 l 2,2,3
 30 633 30 633 84 695 c 128,-1,4
 138 757 138 757 249 757 c 0,5,6
 366 757 366 757 415.5 697 c 128,-1,7
 465 637 465 637 465 511 c 2,8,-1
 465 469 l 1,9,-1
 306 469 l 1,10,-1
 306 533 l 2,11,12
 306 573 306 573 294 593.5 c 128,-1,13
 282 614 282 614 250 614 c 0,14,15
 221 614 221 614 206 592 c 128,-1,16
 191 570 191 570 191 528 c 2,17,-1
 191 223 l 2,18,19
 191 168 191 168 206 144.5 c 128,-1,20
 221 121 221 121 255 121 c 0,21,22
 316 121 316 121 316 204 c 2,23,-1
 316 266 l 1,24,-1
 256 266 l 1,25,-1
 256 388 l 1,26,-1
 466 388 l 1,27,-1
 466 -1 l 1,28,-1
 363 -1 l 1,29,-1
 363 40 l 1,30,-1
 372 99 l 1,31,-1
 369 99 l 1,32,33
 351 46 351 46 316 16 c 128,-1,34
 281 -14 281 -14 217 -14 c 0,35,0
 30 -14 30 -14 30 234 c 2,1,-1
EndSplineSet
EndChar

StartChar: I.ss03
Encoding: 65544 -1 261
Width: 263
GlyphClass: 2
Flags: W
AnchorPoint: "Anchor-18" 132 744 basechar 0
AnchorPoint: "Anchor-17" 246 0 basechar 0
AnchorPoint: "Anchor-15" 132 0 basechar 0
LayerCount: 2
Fore
SplineSet
256 744 m 1,0,-1
 256 600 l 1,1,-1
 206 600 l 1,2,-1
 206 143 l 1,3,-1
 256 143 l 1,4,-1
 256 0 l 1,5,-1
 7 0 l 1,6,-1
 7 143 l 1,7,-1
 57 143 l 1,8,-1
 57 600 l 1,9,-1
 7 600 l 1,10,-1
 7 744 l 1,11,-1
 256 744 l 1,0,-1
EndSplineSet
EndChar

StartChar: Iogonek.ss03
Encoding: 65555 -1 272
Width: 263
GlyphClass: 2
Flags: W
AnchorPoint: "Anchor-18" 132 744 basechar 0
AnchorPoint: "Anchor-17" 246 0 basechar 0
AnchorPoint: "Anchor-15" 132 0 basechar 0
LayerCount: 2
Fore
SplineSet
283 -73 m 1,0,1
 284 -129 284 -129 258.5 -156.5 c 128,-1,2
 233 -184 233 -184 170 -184 c 0,3,4
 124 -184 124 -184 97.5 -164.5 c 128,-1,5
 71 -145 71 -145 71 -108 c 0,6,7
 71 -75 71 -75 97.5 -45.5 c 128,-1,8
 124 -16 124 -16 170 0 c 1,9,-1
 7 0 l 1,10,-1
 7 143 l 1,11,-1
 57 143 l 1,12,-1
 57 600 l 1,13,-1
 7 600 l 1,14,-1
 7 744 l 1,15,-1
 256 744 l 1,16,-1
 256 600 l 1,17,-1
 206 600 l 1,18,-1
 206 143 l 1,19,-1
 256 143 l 1,20,-1
 256 0 l 1,21,-1
 247 0 l 1,22,23
 206 -21 206 -21 185 -45.5 c 128,-1,24
 164 -70 164 -70 164 -94 c 0,25,26
 164 -102 164 -102 168.5 -107 c 128,-1,27
 173 -112 173 -112 181 -112 c 0,28,29
 193 -112 193 -112 198 -104 c 128,-1,30
 203 -96 203 -96 203 -73 c 1,31,-1
 283 -73 l 1,0,1
EndSplineSet
EndChar

StartChar: J.ss03
Encoding: 65557 -1 274
Width: 490
GlyphClass: 2
Flags: W
AnchorPoint: "Anchor-18" 286 744 basechar 0
AnchorPoint: "Anchor-15" 239 0 basechar 0
LayerCount: 2
Fore
SplineSet
73 47.5 m 128,-1,1
 21 109 21 109 21 212 c 2,2,-1
 21 288 l 1,3,-1
 182 288 l 1,4,-1
 182 212 l 2,5,6
 182 166 182 166 195.5 147 c 128,-1,7
 209 128 209 128 239 128 c 0,8,9
 267 128 267 128 281.5 148.5 c 128,-1,10
 296 169 296 169 296 217 c 2,11,-1
 296 601 l 1,12,-1
 125 601 l 1,13,-1
 125 744 l 1,14,-1
 457 744 l 1,15,-1
 457 229 l 2,16,17
 457 104 457 104 403 45 c 128,-1,18
 349 -14 349 -14 238 -14 c 0,19,0
 125 -14 125 -14 73 47.5 c 128,-1,1
EndSplineSet
EndChar

StartChar: K.ss03
Encoding: 65559 -1 276
Width: 504
GlyphClass: 2
Flags: W
AnchorPoint: "Anchor-18" 253 744 basechar 0
AnchorPoint: "Anchor-15" 253 0 basechar 0
LayerCount: 2
Fore
SplineSet
202 0 m 1,0,-1
 41 0 l 1,1,-1
 41 744 l 1,2,-1
 202 744 l 1,3,-1
 202 445 l 1,4,-1
 204 445 l 1,5,-1
 218 490 l 1,6,-1
 313 744 l 1,7,-1
 485 744 l 1,8,-1
 350 424 l 1,9,-1
 498 0 l 1,10,-1
 328 0 l 1,11,-1
 256 231 l 1,12,-1
 245 279 l 1,13,-1
 243 279 l 1,14,-1
 202 196 l 1,15,-1
 202 0 l 1,0,-1
EndSplineSet
EndChar

StartChar: Q.ss03
Encoding: 65561 -1 278
Width: 498
GlyphClass: 2
Flags: W
AnchorPoint: "Anchor-18" 249 744 basechar 0
AnchorPoint: "Anchor-15" 249 0 basechar 0
LayerCount: 2
Fore
SplineSet
468 236 m 2,0,1
 468 174 468 174 454.5 133.5 c 128,-1,2
 441 93 441 93 404 72 c 1,3,-1
 404 67 l 1,4,5
 455 24 455 24 455 -75 c 2,6,-1
 455 -100 l 1,7,-1
 294 -100 l 1,8,-1
 294 -68 l 2,9,10
 294 -40 294 -40 283.5 -27 c 128,-1,11
 273 -14 273 -14 249 -14 c 0,12,13
 136 -14 136 -14 83 47 c 128,-1,14
 30 108 30 108 30 236 c 2,15,-1
 30 507 l 2,16,17
 30 635 30 635 82.5 696 c 128,-1,18
 135 757 135 757 249 757 c 0,19,20
 362 757 362 757 415 696 c 128,-1,21
 468 635 468 635 468 508 c 2,22,-1
 468 236 l 2,0,1
191 220 m 2,23,24
 191 173 191 173 205 151 c 128,-1,25
 219 129 219 129 249 129 c 0,26,27
 283 129 283 129 295 151.5 c 128,-1,28
 307 174 307 174 307 218 c 2,29,-1
 307 526 l 2,30,31
 307 572 307 572 293 593.5 c 128,-1,32
 279 615 279 615 249 615 c 256,33,34
 219 615 219 615 205 593.5 c 128,-1,35
 191 572 191 572 191 525 c 2,36,-1
 191 220 l 2,23,24
EndSplineSet
EndChar

StartChar: R.ss03
Encoding: 65562 -1 279
Width: 477
GlyphClass: 2
Flags: W
AnchorPoint: "Anchor-18" 251 744 basechar 0
AnchorPoint: "Anchor-15" 251 0 basechar 0
LayerCount: 2
Fore
SplineSet
41 0 m 1,0,-1
 41 744 l 1,1,-1
 267 744 l 2,2,3
 363 744 363 744 415.5 693.5 c 128,-1,4
 468 643 468 643 468 550 c 2,5,-1
 468 489 l 2,6,7
 468 431 468 431 445.5 392 c 128,-1,8
 423 353 423 353 377 338 c 1,9,-1
 377 335 l 1,10,11
 411 326 411 326 428.5 297 c 128,-1,12
 446 268 446 268 452 206 c 2,13,-1
 468 0 l 1,14,-1
 304 0 l 1,15,-1
 292 192 l 2,16,17
 289 234 289 234 275 250.5 c 128,-1,18
 261 267 261 267 226 267 c 2,19,-1
 202 267 l 1,20,-1
 202 0 l 1,21,-1
 41 0 l 1,0,-1
244 390 m 2,22,23
 274 390 274 390 290.5 408 c 128,-1,24
 307 426 307 426 307 471 c 2,25,-1
 307 533 l 2,26,27
 307 609 307 609 246 609 c 2,28,-1
 202 609 l 1,29,-1
 202 390 l 1,30,-1
 244 390 l 2,22,23
EndSplineSet
EndChar

StartChar: J.ss04
Encoding: 65569 -1 286
Width: 385
GlyphClass: 2
Flags: W
AnchorPoint: "Anchor-18" 271 744 basechar 0
AnchorPoint: "Anchor-15" 186 0 basechar 0
LayerCount: 2
Fore
SplineSet
191 744 m 1,0,-1
 352 744 l 1,1,-1
 352 202 l 2,2,3
 352 91 352 91 302 38.5 c 128,-1,4
 252 -14 252 -14 153 -14 c 0,5,6
 74 -14 74 -14 10 15 c 1,7,-1
 41 147 l 1,8,9
 97 129 97 129 126 129 c 0,10,11
 160 129 160 129 175.5 148 c 128,-1,12
 191 167 191 167 191 208 c 2,13,-1
 191 601 l 1,14,-1
 47 601 l 1,15,-1
 47 743 l 1,16,-1
 191 743 l 1,17,-1
 191 744 l 1,0,-1
EndSplineSet
EndChar

StartChar: aogonek
Encoding: 261 261 306
Width: 465
GlyphClass: 2
Flags: W
AnchorPoint: "Anchor-18" 231 594 basechar 0
AnchorPoint: "Anchor-17" 429 0 basechar 0
AnchorPoint: "Anchor-15" 231 0 basechar 0
LayerCount: 2
Fore
SplineSet
466 -73 m 1,0,1
 467 -129 467 -129 441.5 -156.5 c 128,-1,2
 416 -184 416 -184 353 -184 c 0,3,4
 307 -184 307 -184 280.5 -164.5 c 128,-1,5
 254 -145 254 -145 254 -108 c 0,6,7
 254 -75 254 -75 280.5 -45.5 c 128,-1,8
 307 -16 307 -16 353 0 c 1,9,-1
 275 0 l 1,10,-1
 275 29 l 1,11,-1
 279 63 l 1,12,-1
 276 63 l 1,13,14
 242 -14 242 -14 165 -14 c 0,15,16
 98 -14 98 -14 60 29 c 128,-1,17
 22 72 22 72 22 147 c 2,18,-1
 22 188 l 2,19,20
 22 264 22 264 64.5 306.5 c 128,-1,21
 107 349 107 349 194 349 c 0,22,23
 237 349 237 349 275 335 c 1,24,-1
 275 417 l 2,25,26
 275 480 275 480 227 480 c 0,27,28
 204 480 204 480 192.5 463 c 128,-1,29
 181 446 181 446 181 421 c 2,30,-1
 181 387 l 1,31,-1
 31 387 l 1,32,-1
 31 411 l 2,33,34
 31 499 31 499 79.5 553.5 c 128,-1,35
 128 608 128 608 227 608 c 0,36,37
 331 608 331 608 380 555.5 c 128,-1,38
 429 503 429 503 429 408 c 2,39,-1
 429 0 l 1,40,-1
 430 0 l 1,41,42
 389 -21 389 -21 368 -45.5 c 128,-1,43
 347 -70 347 -70 347 -94 c 0,44,45
 347 -102 347 -102 351.5 -107 c 128,-1,46
 356 -112 356 -112 364 -112 c 0,47,48
 376 -112 376 -112 381 -104 c 128,-1,49
 386 -96 386 -96 386 -73 c 1,50,-1
 466 -73 l 1,0,1
275 198 m 2,52,-1
 275 256 l 1,53,54
 246 269 246 269 224 269 c 0,55,56
 175 269 175 269 175 211 c 2,57,-1
 175 169 l 2,58,59
 175 141 175 141 186 127.5 c 128,-1,60
 197 114 197 114 221 114 c 0,61,51
 275 114 275 114 275 198 c 2,52,-1
EndSplineSet
Substitution2: "'ss01' Style Set 1 in Latin lookup 21 subtable" aogonek.ss01
Substitution2: "'salt' Stylistic Alternatives in Latin lookup 20 subtable" aogonek.ss01
Substitution2: "'smcp' Lowercase to Small Capitals in Latin lookup 17 subtable" aogonek.sc
AlternateSubs2: "'aalt' Access All Alternates in Latin lookup 1 subtable" aogonek.sc aogonek.ss01
EndChar

StartChar: ccedilla
Encoding: 231 231 313
Width: 440
GlyphClass: 2
Flags: W
AnchorPoint: "Anchor-18" 223 594 basechar 0
AnchorPoint: "Anchor-16" 225 297 basechar 0
AnchorPoint: "Anchor-15" 221 -181 basechar 0
LayerCount: 2
Fore
SplineSet
274 252 m 1,0,-1
 421 252 l 1,1,-1
 421 212 l 2,2,3
 421 102 421 102 376 47.5 c 128,-1,4
 331 -7 331 -7 249 -13 c 1,5,-1
 241 -36 l 1,6,7
 253 -34 253 -34 258 -34 c 0,8,9
 284 -34 284 -34 301.5 -51 c 128,-1,10
 319 -68 319 -68 319 -98 c 0,11,12
 319 -135 319 -135 293.5 -158.5 c 128,-1,13
 268 -182 268 -182 220 -182 c 0,14,15
 119 -182 119 -182 119 -94 c 1,16,-1
 190 -94 l 1,17,18
 191 -111 191 -111 197.5 -117.5 c 128,-1,19
 204 -124 204 -124 216 -124 c 0,20,21
 226 -124 226 -124 232 -117 c 128,-1,22
 238 -110 238 -110 238 -96 c 0,23,24
 238 -83 238 -83 232 -76 c 128,-1,25
 226 -69 226 -69 216 -69 c 0,26,27
 212 -69 212 -69 206 -71 c 1,28,-1
 171 -50 l 1,29,-1
 183 -11 l 1,30,31
 24 13 24 13 24 228 c 2,32,-1
 24 369 l 2,33,34
 24 608 24 608 227 608 c 0,35,36
 317 608 317 608 368.5 553.5 c 128,-1,37
 420 499 420 499 420 388 c 2,38,-1
 420 351 l 1,39,-1
 272 351 l 1,40,-1
 272 412 l 2,41,42
 272 448 272 448 261 464 c 128,-1,43
 250 480 250 480 227 480 c 0,44,45
 179 480 179 480 179 405 c 2,46,-1
 179 192 l 2,47,48
 179 114 179 114 227 114 c 0,49,50
 274 114 274 114 274 187 c 2,51,-1
 274 252 l 1,0,-1
EndSplineSet
Substitution2: "'smcp' Lowercase to Small Capitals in Latin lookup 17 subtable" ccedilla.sc
Substitution2: "'aalt' Access All Alternates in Latin lookup 0 subtable" ccedilla.sc
EndChar

StartChar: dcroat
Encoding: 273 273 317
Width: 471
GlyphClass: 2
Flags: W
AnchorPoint: "Anchor-19" 460 766 basechar 0
AnchorPoint: "Anchor-18" 232 766 basechar 0
AnchorPoint: "Anchor-16" 300 689 basechar 0
AnchorPoint: "Anchor-15" 232 0 basechar 0
LayerCount: 2
Fore
SplineSet
462 730 m 1,0,-1
 462 645 l 1,1,-1
 435 645 l 1,2,-1
 435 0 l 1,3,-1
 280 0 l 1,4,-1
 280 24 l 1,5,-1
 285 68 l 1,6,-1
 283 68 l 1,7,8
 267 29 267 29 235.5 7.5 c 128,-1,9
 204 -14 204 -14 164 -14 c 0,10,11
 88 -14 88 -14 56 45.5 c 128,-1,12
 24 105 24 105 24 235 c 2,13,-1
 24 364 l 2,14,15
 24 490 24 490 56 549 c 128,-1,16
 88 608 88 608 164 608 c 0,17,18
 204 608 204 608 234.5 587.5 c 128,-1,19
 265 567 265 567 282 526 c 1,20,-1
 284 526 l 1,21,-1
 280 576 l 1,22,-1
 280 645 l 1,23,-1
 137 645 l 1,24,-1
 137 730 l 1,25,-1
 280 730 l 1,26,-1
 280 766 l 1,27,-1
 435 766 l 1,28,-1
 435 730 l 1,29,-1
 462 730 l 1,0,-1
280 204 m 2,31,-1
 280 386 l 2,32,33
 280 429 280 429 269 454.5 c 128,-1,34
 258 480 258 480 228 480 c 256,35,36
 198 480 198 480 188.5 454 c 128,-1,37
 179 428 179 428 179 381 c 2,38,-1
 179 210 l 2,39,40
 179 160 179 160 188.5 137 c 128,-1,41
 198 114 198 114 228 114 c 0,42,30
 280 114 280 114 280 204 c 2,31,-1
EndSplineSet
Substitution2: "'smcp' Lowercase to Small Capitals in Latin lookup 17 subtable" dcroat.sc
Substitution2: "'aalt' Access All Alternates in Latin lookup 0 subtable" dcroat.sc
EndChar

StartChar: eogonek
Encoding: 281 281 335
Width: 443
GlyphClass: 2
Flags: W
AnchorPoint: "Anchor-18" 222 594 basechar 0
AnchorPoint: "Anchor-17" 322 7 basechar 0
AnchorPoint: "Anchor-15" 222 0 basechar 0
LayerCount: 2
Fore
SplineSet
370.5 551 m 128,-1,1
 420 494 420 494 420 381 c 2,2,-1
 420 254 l 1,3,-1
 179 254 l 1,4,-1
 179 193 l 2,5,6
 179 110 179 110 226 110 c 0,7,8
 251 110 251 110 261.5 126 c 128,-1,9
 272 142 272 142 274 177 c 2,10,-1
 274 208 l 1,11,-1
 419 208 l 1,12,-1
 419 178 l 2,13,14
 418 114 418 114 392 69.5 c 128,-1,15
 366 25 366 25 317 4 c 1,16,17
 279 -17 279 -17 259.5 -40.5 c 128,-1,18
 240 -64 240 -64 240 -87 c 0,19,20
 240 -95 240 -95 244.5 -100 c 128,-1,21
 249 -105 249 -105 257 -105 c 0,22,23
 269 -105 269 -105 274 -97 c 128,-1,24
 279 -89 279 -89 279 -66 c 1,25,-1
 359 -66 l 1,26,27
 360 -122 360 -122 334.5 -149.5 c 128,-1,28
 309 -177 309 -177 246 -177 c 0,29,30
 200 -177 200 -177 173.5 -157.5 c 128,-1,31
 147 -138 147 -138 147 -101 c 0,32,33
 147 -76 147 -76 161.5 -53 c 128,-1,34
 176 -30 176 -30 203 -13 c 1,35,36
 114 -7 114 -7 69 56 c 128,-1,37
 24 119 24 119 24 226 c 2,38,-1
 24 370 l 2,39,40
 24 482 24 482 75 545 c 128,-1,41
 126 608 126 608 226 608 c 0,42,0
 321 608 321 608 370.5 551 c 128,-1,1
179 351 m 1,43,-1
 273 351 l 1,44,-1
 273 402 l 2,45,46
 273 446 273 446 262.5 465.5 c 128,-1,47
 252 485 252 485 227 485 c 256,48,49
 202 485 202 485 190.5 465.5 c 128,-1,50
 179 446 179 446 179 404 c 2,51,-1
 179 351 l 1,43,-1
EndSplineSet
Substitution2: "'ss03' Style Set 3 in Latin lookup 23 subtable" eogonek.ss03
Substitution2: "'smcp' Lowercase to Small Capitals in Latin lookup 17 subtable" eogonek.sc
AlternateSubs2: "'aalt' Access All Alternates in Latin lookup 1 subtable" eogonek.sc eogonek.ss03
EndChar

StartChar: uni0259
Encoding: 601 601 337
Width: 444
GlyphClass: 2
Flags: W
AnchorPoint: "Anchor-18" 221 594 basechar 0
AnchorPoint: "Anchor-17" 121 587 basechar 0
AnchorPoint: "Anchor-15" 221 0 basechar 0
LayerCount: 2
Fore
SplineSet
369.5 544.5 m 128,-1,1
 419 481 419 481 419 368 c 2,2,-1
 419 225 l 2,3,4
 419 112 419 112 368.5 49 c 128,-1,5
 318 -14 318 -14 218 -14 c 0,6,7
 123 -14 123 -14 73 43.5 c 128,-1,8
 23 101 23 101 23 213 c 2,9,-1
 23 340 l 1,10,-1
 264 340 l 1,11,-1
 264 401 l 2,12,13
 264 484 264 484 218 484 c 0,14,15
 192 484 192 484 181.5 468 c 128,-1,16
 171 452 171 452 170 417 c 2,17,-1
 170 386 l 1,18,-1
 24 386 l 1,19,-1
 24 416 l 2,20,21
 26 507 26 507 77.5 557.5 c 128,-1,22
 129 608 129 608 221 608 c 0,23,0
 320 608 320 608 369.5 544.5 c 128,-1,1
253 129 m 128,-1,25
 264 149 264 149 264 191 c 2,26,-1
 264 243 l 1,27,-1
 171 243 l 1,28,-1
 171 192 l 2,29,30
 170 148 170 148 181 128.5 c 128,-1,31
 192 109 192 109 217 109 c 256,32,24
 242 109 242 109 253 129 c 128,-1,25
EndSplineSet
EndChar

StartChar: hbar
Encoding: 295 295 344
Width: 483
GlyphClass: 2
Flags: W
AnchorPoint: "Anchor-18" 115 740 basechar 0
AnchorPoint: "Anchor-16" 166 687 basechar 0
AnchorPoint: "Anchor-15" 239 0 basechar 0
LayerCount: 2
Fore
SplineSet
448 436 m 2,1,-1
 448 0 l 1,2,-1
 292 0 l 1,3,-1
 292 414 l 2,4,5
 292 444 292 444 280 460 c 128,-1,6
 268 476 268 476 247 476 c 0,7,8
 221 476 221 476 207.5 453 c 128,-1,9
 194 430 194 430 194 394 c 2,10,-1
 194 0 l 1,11,-1
 38 0 l 1,12,-1
 38 642 l 1,13,-1
 4 642 l 1,14,-1
 4 727 l 1,15,-1
 38 727 l 1,16,-1
 38 766 l 1,17,-1
 193 766 l 1,18,-1
 193 727 l 1,19,-1
 328 727 l 1,20,-1
 328 642 l 1,21,-1
 193 642 l 1,22,-1
 193 571 l 1,23,-1
 189 526 l 1,24,-1
 191 526 l 1,25,26
 209 567 209 567 240 587.5 c 128,-1,27
 271 608 271 608 310 608 c 0,28,0
 448 608 448 608 448 436 c 2,1,-1
EndSplineSet
Substitution2: "'smcp' Lowercase to Small Capitals in Latin lookup 17 subtable" hbar.sc
Substitution2: "'aalt' Access All Alternates in Latin lookup 0 subtable" hbar.sc
EndChar

StartChar: iogonek
Encoding: 303 303 359
Width: 227
GlyphClass: 2
Flags: W
AnchorPoint: "Anchor-18" 114 594 basechar 0
AnchorPoint: "Anchor-17" 161 0 basechar 0
AnchorPoint: "Anchor-15" 114 0 basechar 0
LayerCount: 2
Fore
SplineSet
47.5 663.5 m 128,-1,1
 27 682 27 682 27 724 c 256,2,3
 27 766 27 766 48 785 c 128,-1,4
 69 804 69 804 114 804 c 0,5,6
 160 804 160 804 181 785 c 128,-1,7
 202 766 202 766 202 724 c 256,8,9
 202 682 202 682 181 663.5 c 128,-1,10
 160 645 160 645 114 645 c 256,11,0
 68 645 68 645 47.5 663.5 c 128,-1,1
197 -72 m 1,12,13
 199 -129 199 -129 173 -156.5 c 128,-1,14
 147 -184 147 -184 84 -184 c 0,15,16
 39 -184 39 -184 12 -164.5 c 128,-1,17
 -15 -145 -15 -145 -15 -108 c 0,18,19
 -15 -75 -15 -75 11 -45.5 c 128,-1,20
 37 -16 37 -16 83 0 c 1,21,-1
 36 0 l 1,22,-1
 36 594 l 1,23,-1
 191 594 l 1,24,-1
 191 0 l 1,25,26
 129 -14 129 -14 103.5 -36.5 c 128,-1,27
 78 -59 78 -59 78 -94 c 0,28,29
 78 -102 78 -102 83 -107 c 128,-1,30
 88 -112 88 -112 96 -112 c 0,31,32
 108 -112 108 -112 113 -103.5 c 128,-1,33
 118 -95 118 -95 118 -72 c 1,34,-1
 197 -72 l 1,12,13
EndSplineSet
Substitution2: "'ss03' Style Set 3 in Latin lookup 23 subtable" iogonek.ss03
Substitution2: "'smcp' Lowercase to Small Capitals in Latin lookup 17 subtable" iogonek.sc
AlternateSubs2: "'aalt' Access All Alternates in Latin lookup 1 subtable" iogonek.sc iogonek.ss03
EndChar

StartChar: kgreenlandic
Encoding: 312 312 363
Width: 475
GlyphClass: 2
Flags: W
AnchorPoint: "Anchor-18" 240 766 basechar 0
AnchorPoint: "Anchor-15" 240 0 basechar 0
LayerCount: 2
Fore
SplineSet
192 0 m 1,0,-1
 36 0 l 1,1,-1
 36 594 l 1,2,-1
 192 594 l 1,3,-1
 192 368 l 1,4,-1
 226 368 l 1,5,-1
 290 594 l 1,6,-1
 459 594 l 1,7,-1
 360 301 l 1,8,-1
 475 0 l 1,9,-1
 302 0 l 1,10,-1
 226 240 l 1,11,-1
 192 240 l 1,12,-1
 192 0 l 1,0,-1
EndSplineSet
EndChar

StartChar: ldot
Encoding: 320 320 367
Width: 327
GlyphClass: 2
Flags: W
AnchorPoint: "Anchor-19" 214 766 basechar 0
AnchorPoint: "Anchor-18" 114 739 basechar 0
AnchorPoint: "Anchor-16" 114 383 basechar 0
AnchorPoint: "Anchor-15" 114 0 basechar 0
LayerCount: 2
Fore
SplineSet
191 0 m 1,0,-1
 36 0 l 1,1,-1
 36 766 l 1,2,-1
 191 766 l 1,3,-1
 191 0 l 1,0,-1
223 395 m 256,5,6
 223 443 223 443 277 443 c 0,7,8
 305 443 305 443 318 431 c 128,-1,9
 331 419 331 419 331 395 c 256,10,11
 331 371 331 371 318 359 c 128,-1,12
 305 347 305 347 277 347 c 0,13,4
 223 347 223 347 223 395 c 256,5,6
EndSplineSet
Ligature2: "Ligature Substitution lookup 26 subtable" l periodcentered
Substitution2: "'ss03' Style Set 3 in Latin lookup 23 subtable" ldot.ss03
Substitution2: "'smcp' Lowercase to Small Capitals in Latin lookup 17 subtable" ldot.sc
AlternateSubs2: "'aalt' Access All Alternates in Latin lookup 1 subtable" ldot.sc ldot.ss03
EndChar

StartChar: lslash
Encoding: 322 322 371
Width: 293
GlyphClass: 2
Flags: W
AnchorPoint: "Anchor-19" 246 766 basechar 0
AnchorPoint: "Anchor-18" 146 739 basechar 0
AnchorPoint: "Anchor-16" 146 383 basechar 0
AnchorPoint: "Anchor-15" 146 0 basechar 0
LayerCount: 2
Fore
SplineSet
259 477 m 1,0,-1
 293 415 l 1,1,-1
 223 382 l 1,2,-1
 223 0 l 1,3,-1
 68 0 l 1,4,-1
 68 309 l 1,5,-1
 33 292 l 1,6,-1
 1 353 l 1,7,-1
 68 385 l 1,8,-1
 68 766 l 1,9,-1
 223 766 l 1,10,-1
 223 460 l 1,11,-1
 259 477 l 1,0,-1
EndSplineSet
Substitution2: "'ss03' Style Set 3 in Latin lookup 23 subtable" lslash.ss03
Substitution2: "'smcp' Lowercase to Small Capitals in Latin lookup 17 subtable" lslash.sc
AlternateSubs2: "'aalt' Access All Alternates in Latin lookup 1 subtable" lslash.sc lslash.ss03
EndChar

StartChar: eng
Encoding: 331 331 378
Width: 480
GlyphClass: 2
Flags: W
AnchorPoint: "Anchor-18" 237 594 basechar 0
AnchorPoint: "Anchor-15" 237 0 basechar 0
LayerCount: 2
Fore
SplineSet
445 436 m 2,1,-1
 445 0 l 2,2,3
 445 -93 445 -93 376.5 -134 c 128,-1,4
 308 -175 308 -175 192 -175 c 1,5,-1
 192 -79 l 1,6,7
 240 -79 240 -79 265 -59 c 128,-1,8
 290 -39 290 -39 290 0 c 2,9,-1
 290 414 l 2,10,11
 290 444 290 444 278 460 c 128,-1,12
 266 476 266 476 244 476 c 0,13,14
 218 476 218 476 204.5 453 c 128,-1,15
 191 430 191 430 191 394 c 2,16,-1
 191 0 l 1,17,-1
 36 0 l 1,18,-1
 36 594 l 1,19,-1
 191 594 l 1,20,-1
 191 572 l 1,21,-1
 187 525 l 1,22,-1
 189 525 l 1,23,24
 206 567 206 567 236.5 587.5 c 128,-1,25
 267 608 267 608 308 608 c 0,26,0
 445 608 445 608 445 436 c 2,1,-1
EndSplineSet
EndChar

StartChar: uni0272
Encoding: 626 626 379
Width: 480
GlyphClass: 2
Flags: W
AnchorPoint: "Anchor-18" 237 594 basechar 0
AnchorPoint: "Anchor-15" 237 0 basechar 0
LayerCount: 2
Fore
SplineSet
445 436 m 2,1,-1
 445 0 l 1,2,-1
 290 0 l 1,3,-1
 290 414 l 2,4,5
 290 444 290 444 278 460 c 128,-1,6
 266 476 266 476 244 476 c 0,7,8
 218 476 218 476 204.5 453 c 128,-1,9
 191 430 191 430 191 394 c 2,10,-1
 191 0 l 1,11,-1
 192 0 l 1,12,13
 192 -93 192 -93 123 -134 c 128,-1,14
 54 -175 54 -175 -62 -175 c 1,15,-1
 -62 -79 l 1,16,17
 -14 -79 -14 -79 11 -59 c 128,-1,18
 36 -39 36 -39 36 0 c 2,19,-1
 36 594 l 1,20,-1
 191 594 l 1,21,-1
 191 572 l 1,22,-1
 187 525 l 1,23,-1
 189 525 l 1,24,25
 206 567 206 567 236.5 587.5 c 128,-1,26
 267 608 267 608 308 608 c 0,27,0
 445 608 445 608 445 436 c 2,1,-1
EndSplineSet
EndChar

StartChar: ohorn
Encoding: 417 417 395
Width: 459
GlyphClass: 2
Flags: W
AnchorPoint: "Anchor-19" 409 618 basechar 0
AnchorPoint: "Anchor-18" 225 594 basechar 0
AnchorPoint: "Anchor-17" 342 12 basechar 0
AnchorPoint: "Anchor-16" 229 298 basechar 0
AnchorPoint: "Anchor-15" 225 0 basechar 0
LayerCount: 2
Fore
SplineSet
435 369 m 2,1,-1
 435 226 l 2,2,3
 435 106 435 106 383 46 c 128,-1,4
 331 -14 331 -14 229 -14 c 256,5,6
 127 -14 127 -14 75.5 47 c 128,-1,7
 24 108 24 108 24 226 c 2,8,-1
 24 369 l 2,9,10
 24 488 24 488 76 548 c 128,-1,11
 128 608 128 608 229 608 c 2,12,-1
 230 608 l 1,13,-1
 230 608 l 1,14,15
 286 608 286 608 286 669 c 0,16,17
 286 684 286 684 281 709 c 1,18,-1
 373 714 l 1,19,20
 378 693 378 693 378 668 c 0,21,22
 378 612 378 612 344 581 c 1,23,0
 435 526 435 526 435 369 c 2,1,-1
280 403 m 2,24,25
 280 480 280 480 229 480 c 0,26,27
 179 480 179 480 179 403 c 2,28,-1
 179 192 l 2,29,30
 179 114 179 114 229 114 c 0,31,32
 280 114 280 114 280 191 c 2,33,-1
 280 403 l 2,24,25
EndSplineSet
EndChar

StartChar: uni1EDB
Encoding: 7899 7899 396
Width: 459
GlyphClass: 2
Flags: W
AnchorPoint: "Anchor-19" 409 618 basechar 0
AnchorPoint: "Anchor-18" 225 823 basechar 0
AnchorPoint: "Anchor-17" 342 12 basechar 0
AnchorPoint: "Anchor-16" 229 298 basechar 0
AnchorPoint: "Anchor-15" 225 0 basechar 0
LayerCount: 2
Fore
SplineSet
435 369 m 2,1,-1
 435 226 l 2,2,3
 435 106 435 106 383 46 c 128,-1,4
 331 -14 331 -14 229 -14 c 256,5,6
 127 -14 127 -14 75.5 47 c 128,-1,7
 24 108 24 108 24 226 c 2,8,-1
 24 369 l 2,9,10
 24 488 24 488 76 548 c 128,-1,11
 128 608 128 608 229 608 c 2,12,-1
 230 608 l 1,13,-1
 230 608 l 1,14,15
 285 608 285 608 285 669 c 0,16,17
 285 687 285 687 281 707 c 1,18,-1
 246 657 l 1,19,-1
 154 657 l 1,20,-1
 206 796 l 1,21,-1
 345 796 l 1,22,-1
 283 709 l 1,23,-1
 373 714 l 1,24,25
 378 693 378 693 378 668 c 0,26,27
 378 612 378 612 344 581 c 1,28,0
 435 526 435 526 435 369 c 2,1,-1
280 403 m 2,29,30
 280 480 280 480 229 480 c 0,31,32
 179 480 179 480 179 403 c 2,33,-1
 179 192 l 2,34,35
 179 114 179 114 229 114 c 0,36,37
 280 114 280 114 280 191 c 2,38,-1
 280 403 l 2,29,30
EndSplineSet
EndChar

StartChar: uni1EDD
Encoding: 7901 7901 398
Width: 459
GlyphClass: 2
Flags: W
AnchorPoint: "Anchor-19" 409 618 basechar 0
AnchorPoint: "Anchor-18" 225 823 basechar 0
AnchorPoint: "Anchor-17" 342 12 basechar 0
AnchorPoint: "Anchor-16" 229 298 basechar 0
AnchorPoint: "Anchor-15" 225 0 basechar 0
LayerCount: 2
Fore
SplineSet
435 369 m 2,1,-1
 435 226 l 2,2,3
 435 106 435 106 383 46 c 128,-1,4
 331 -14 331 -14 229 -14 c 256,5,6
 127 -14 127 -14 75.5 47 c 128,-1,7
 24 108 24 108 24 226 c 2,8,-1
 24 369 l 2,9,10
 24 488 24 488 76 548 c 128,-1,11
 128 608 128 608 229 608 c 2,12,-1
 230 608 l 1,13,-1
 230 608 l 1,14,15
 280 608 280 608 285 657 c 1,16,-1
 204 657 l 1,17,-1
 105 796 l 1,18,-1
 244 796 l 1,19,-1
 285 687 l 1,20,21
 283 701 283 701 281 709 c 1,22,-1
 373 714 l 1,23,24
 378 693 378 693 378 668 c 0,25,26
 378 612 378 612 344 581 c 1,27,0
 435 526 435 526 435 369 c 2,1,-1
280 403 m 2,28,29
 280 480 280 480 229 480 c 0,30,31
 179 480 179 480 179 403 c 2,32,-1
 179 192 l 2,33,34
 179 114 179 114 229 114 c 0,35,36
 280 114 280 114 280 191 c 2,37,-1
 280 403 l 2,28,29
EndSplineSet
EndChar

StartChar: uni1EDF
Encoding: 7903 7903 399
Width: 459
GlyphClass: 2
Flags: W
AnchorPoint: "Anchor-19" 409 618 basechar 0
AnchorPoint: "Anchor-18" 225 822 basechar 0
AnchorPoint: "Anchor-17" 342 12 basechar 0
AnchorPoint: "Anchor-16" 229 298 basechar 0
AnchorPoint: "Anchor-15" 225 0 basechar 0
LayerCount: 2
Fore
SplineSet
435 369 m 2,1,-1
 435 226 l 2,2,3
 435 106 435 106 383 46 c 128,-1,4
 331 -14 331 -14 229 -14 c 256,5,6
 127 -14 127 -14 75.5 47 c 128,-1,7
 24 108 24 108 24 226 c 2,8,-1
 24 369 l 2,9,10
 24 488 24 488 76 548 c 128,-1,11
 128 608 128 608 229 608 c 2,12,-1
 230 608 l 1,13,-1
 230 608 l 1,14,15
 292 608 292 608 285 681 c 1,16,17
 280 671 280 671 275 663.5 c 128,-1,18
 270 656 270 656 267 651 c 1,19,-1
 196 651 l 1,20,21
 233 707 233 707 233 730 c 0,22,23
 233 742 233 742 221 742 c 0,24,25
 214 742 214 742 210.5 737 c 128,-1,26
 207 732 207 732 208 717 c 1,27,-1
 144 717 l 1,28,29
 142 762 142 762 164.5 784 c 128,-1,30
 187 806 187 806 229 806 c 0,31,32
 267 806 267 806 287 788.5 c 128,-1,33
 307 771 307 771 307 744 c 0,34,35
 307 731 307 731 300 710 c 1,36,-1
 373 714 l 1,37,38
 378 693 378 693 378 668 c 0,39,40
 378 612 378 612 344 581 c 1,41,0
 435 526 435 526 435 369 c 2,1,-1
280 403 m 2,42,43
 280 480 280 480 229 480 c 0,44,45
 179 480 179 480 179 403 c 2,46,-1
 179 192 l 2,47,48
 179 114 179 114 229 114 c 0,49,50
 280 114 280 114 280 191 c 2,51,-1
 280 403 l 2,42,43
EndSplineSet
EndChar

StartChar: uni1EE1
Encoding: 7905 7905 400
Width: 459
GlyphClass: 2
Flags: W
AnchorPoint: "Anchor-19" 409 618 basechar 0
AnchorPoint: "Anchor-18" 225 787 basechar 0
AnchorPoint: "Anchor-17" 342 12 basechar 0
AnchorPoint: "Anchor-16" 229 298 basechar 0
AnchorPoint: "Anchor-15" 225 0 basechar 0
LayerCount: 2
Fore
SplineSet
435 369 m 2,1,-1
 435 226 l 2,2,3
 435 106 435 106 383 46 c 128,-1,4
 331 -14 331 -14 229 -14 c 256,5,6
 127 -14 127 -14 75.5 47 c 128,-1,7
 24 108 24 108 24 226 c 2,8,-1
 24 369 l 2,9,10
 24 488 24 488 76 548 c 128,-1,11
 128 608 128 608 229 608 c 2,12,-1
 230 608 l 1,13,-1
 230 608 l 1,14,15
 276 608 276 608 284 649 c 1,16,17
 262 649 262 649 245.5 654 c 128,-1,18
 229 659 229 659 210 667 c 0,19,20
 188 676 188 676 181 676 c 0,21,22
 163 676 163 676 163 647 c 1,23,-1
 86 658 l 1,24,25
 83 770 83 770 166 770 c 0,26,27
 188 770 188 770 204.5 765 c 128,-1,28
 221 760 221 760 241 751 c 0,29,30
 263 742 263 742 270 742 c 0,31,32
 288 742 288 742 288 771 c 1,33,-1
 365 760 l 1,34,35
 365 734 365 734 362 713 c 1,36,-1
 373 714 l 1,37,38
 378 693 378 693 378 668 c 0,39,40
 378 612 378 612 344 581 c 1,41,0
 435 526 435 526 435 369 c 2,1,-1
280 403 m 2,42,43
 280 480 280 480 229 480 c 0,44,45
 179 480 179 480 179 403 c 2,46,-1
 179 192 l 2,47,48
 179 114 179 114 229 114 c 0,49,50
 280 114 280 114 280 191 c 2,51,-1
 280 403 l 2,42,43
EndSplineSet
EndChar

